  0
SECTION
  2
HEADER
  9
$ACADVER
  1
AC1009
  9
$EXTMIN
 10
0.0
  9
$EXTMAX
 10
2.5
  0
ENDSEC
  0
SECTION
  2
TABLES
  0
TABLE
  2
LAYER
 70
2
  0
LAYER
  2
0
 70
0
 62
7
  6
CONTINUOUS
  0
LAYER
  2
OUTLINE
 70
0
 62
7
  6
CONTINUOUS
  0
ENDTAB
  0
ENDSEC
  0
SECTION
  2
ENTITIES
  0
POLYLINE
  8
OUTLINE
 66
1
 10
0.0
 20
0.0
 30
0.0
 70
1
  0
VERTEX
  8
OUTLINE
 10
0.25
 20
0.0
 30
0.0
  0
VERTEX
  8
OUTLINE
 10
2.25
 20
0.0
 30
0.0
 42
0.4142135623730951
  0
VERTEX
  8
OUTLINE
 10
2.5
 20
0.25
 30
0.0
  0
VERTEX
  8
OUTLINE
 10
2.5
 20
2.25
 30
0.0
 42
0.4142135623730951
  0
VERTEX
  8
OUTLINE
 10
2.25
 20
2.5
 30
0.0
  0
VERTEX
  8
OUTLINE
 10
0.25
 20
2.5
 30
0.0
 42
0.4142135623730951
  0
VERTEX
  8
OUTLINE
 10
0.0
 20
2.25
 30
0.0
  0
VERTEX
  8
OUTLINE
 10
0.0
 20
0.25
 30
0.0
 42
0.4142135623730951
  0
SEQEND
  8
OUTLINE
  0
CIRCLE
  8
OUTLINE
 10
1.25
 20
1.25
 30
0.0
 40
0.5
  0
CIRCLE
  8
OUTLINE
 10
0.35
 20
0.35
 30
0.0
 40
0.125
  0
CIRCLE
  8
OUTLINE
 10
2.15
 20
0.35
 30
0.0
 40
0.125
  0
CIRCLE
  8
OUTLINE
 10
2.15
 20
2.15
 30
0.0
 40
0.125
  0
CIRCLE
  8
OUTLINE
 10
0.35
 20
2.15
 30
0.0
 40
0.125
  0
ENDSEC
  0
EOF
