  0
SECTION
  2
HEADER
  9
$ACADVER
  1
AC1015
  9
$INSUNITS
 70
4
  0
ENDSEC
  0
SECTION
  2
TABLES
  0
TABLE
  2
LAYER
  5
100
100
AcDbSymbolTable
 70
5
  0
LAYER
  5
101
100
AcDbSymbolTableRecord
100
AcDbLayerTableRecord
  2
0
 70
0
 62
7
  6
CONTINUOUS
  0
LAYER
  5
102
100
AcDbSymbolTableRecord
100
AcDbLayerTableRecord
  2
CUT
 70
0
 62
7
  6
CONTINUOUS
  0
LAYER
  5
103
100
AcDbSymbolTableRecord
100
AcDbLayerTableRecord
  2
CONSTRUCTION
 70
0
 62
-8
  6
CONTINUOUS
  0
LAYER
  5
104
100
AcDbSymbolTableRecord
100
AcDbLayerTableRecord
  2
NOTES
 70
1
 62
3
  6
CONTINUOUS
  0
LAYER
  5
105
100
AcDbSymbolTableRecord
100
AcDbLayerTableRecord
  2
ETCH
 70
0
 62
5
  6
CONTINUOUS
  0
ENDTAB
  0
ENDSEC
  0
SECTION
  2
BLOCKS
  0
BLOCK
  5
106
100
AcDbEntity
  8
0
100
AcDbBlockBegin
  2
*Model_Space
 70
0
 10
0.0
 20
0.0
 30
0.0
  3
*Model_Space
  1

  0
ENDBLK
  5
107
100
AcDbEntity
  8
0
100
AcDbBlockEnd
  0
BLOCK
  5
108
100
AcDbEntity
  8
0
100
AcDbBlockBegin
  2
*Paper_Space
 70
0
 10
0.0
 20
0.0
 30
0.0
  3
*Paper_Space
  1

  0
ENDBLK
  5
109
100
AcDbEntity
  8
0
100
AcDbBlockEnd
  0
ENDSEC
  0
SECTION
  2
ENTITIES
  0
LWPOLYLINE
  5
10A
100
AcDbEntity
  8
CUT
100
AcDbPolyline
 90
4
 70
1
 43
0.0
 10
0.0
 20
0.0
 10
100.0
 20
0.0
 10
100.0
 20
60.0
 10
0.0
 20
60.0
  0
CIRCLE
  5
10B
100
AcDbEntity
  8
CUT
100
AcDbCircle
 10
50.0
 20
30.0
 30
0.0
 40
12.0
  0
LINE
  5
10C
100
AcDbEntity
  8
CONSTRUCTION
100
AcDbLine
 10
-10.0
 20
30.0
 30
0.0
 11
110.0
 21
30.0
 31
0.0
  0
LINE
  5
10D
100
AcDbEntity
  8
CONSTRUCTION
100
AcDbLine
 10
50.0
 20
-10.0
 30
0.0
 11
50.0
 21
70.0
 31
0.0
  0
TEXT
  5
10E
100
AcDbEntity
  8
NOTES
100
AcDbText
 10
0.0
 20
70.0
 30
0.0
 40
5.0
  1
PLATE 3MM S235
100
AcDbText
  0
LWPOLYLINE
  5
10F
100
AcDbEntity
  8
ETCH
100
AcDbPolyline
 90
4
 70
1
 43
0.0
 10
5.0
 20
5.0
 10
15.0
 20
5.0
 10
15.0
 20
10.0
 10
5.0
 20
10.0
  0
LINE
  5
110
100
AcDbEntity
  8
CUT
 60
1
100
AcDbLine
 10
0.0
 20
0.0
 30
0.0
 11
100.0
 21
60.0
 31
0.0
  0
ENDSEC
  0
EOF
