  0
SECTION
  2
HEADER
  9
$ACADVER
  1
AC1015
  9
$INSUNITS
 70
4
  9
$MEASUREMENT
 70
1
  0
ENDSEC
  0
SECTION
  2
TABLES
  0
TABLE
  2
LAYER
  5
100
100
AcDbSymbolTable
 70
3
  0
LAYER
  5
101
100
AcDbSymbolTableRecord
100
AcDbLayerTableRecord
  2
0
 70
0
 62
7
  6
CONTINUOUS
  0
LAYER
  5
102
100
AcDbSymbolTableRecord
100
AcDbLayerTableRecord
  2
CUT
 70
0
 62
1
  6
CONTINUOUS
  0
LAYER
  5
103
100
AcDbSymbolTableRecord
100
AcDbLayerTableRecord
  2
DIM
 70
0
 62
3
  6
CONTINUOUS
  0
ENDTAB
  0
ENDSEC
  0
SECTION
  2
BLOCKS
  0
BLOCK
  5
104
100
AcDbEntity
  8
0
100
AcDbBlockBegin
  2
*Model_Space
 70
0
 10
0.0
 20
0.0
 30
0.0
  3
*Model_Space
  1

  0
ENDBLK
  5
105
100
AcDbEntity
  8
0
100
AcDbBlockEnd
  0
BLOCK
  5
106
100
AcDbEntity
  8
0
100
AcDbBlockBegin
  2
*Paper_Space
 70
0
 10
0.0
 20
0.0
 30
0.0
  3
*Paper_Space
  1

  0
ENDBLK
  5
107
100
AcDbEntity
  8
0
100
AcDbBlockEnd
  0
ENDSEC
  0
SECTION
  2
ENTITIES
  0
LWPOLYLINE
  5
108
100
AcDbEntity
  8
CUT
100
AcDbPolyline
 90
5
 70
1
 43
0.0
 10
0.0
 20
0.0
 10
80.0
 20
0.0
 10
80.0
 20
30.0
 42
0.41421356237309503
 10
70.0
 20
40.0
 10
0.0
 20
40.0
  0
CIRCLE
  5
109
100
AcDbEntity
  8
CUT
100
AcDbCircle
 10
15.0
 20
20.0
 30
0.0
 40
4.25
  0
CIRCLE
  5
10A
100
AcDbEntity
  8
CUT
100
AcDbCircle
 10
60.0
 20
20.0
 30
0.0
 40
4.25
  0
DIMENSION
  5
10B
100
AcDbEntity
  8
DIM
100
AcDbDimension
  2
*D1
 10
80.0
 20
10.0
 30
0.0
 70
32
  1

 13
0.0
 23
0.0
 33
0.0
 14
80.0
 24
0.0
 34
0.0
  0
ENDSEC
  0
EOF
