  0
SECTION
  2
HEADER
  9
$ACADVER
  1
AC1009
  9
$INSUNITS
 70
4
  0
ENDSEC
  0
SECTION
  2
TABLES
  0
TABLE
  2
LAYER
 70
1
  0
LAYER
  2
0
 70
0
 62
7
  6
CONTINUOUS
  0
ENDTAB
  0
ENDSEC
  0
SECTION
  2
ENTITIES
  0
POLYLINE
  8
0
 66
1
 10
0.0
 20
0.0
 30
0.0
 70
4
  0
VERTEX
  8
0
 10
0.0
 20
0.0
 30
0.0
 70
16
  0
VERTEX
  8
0
 10
20.0
 20
40.0
 30
0.0
 70
16
  0
VERTEX
  8
0
 10
60.0
 20
40.0
 30
0.0
 70
16
  0
VERTEX
  8
0
 10
80.0
 20
0.0
 30
0.0
 70
16
  0
VERTEX
  8
0
 10
0.0
 20
0.0
 30
0.0
 70
8
  0
VERTEX
  8
0
 10
3.974609375
 20
7.03125
 30
0.0
 70
8
  0
VERTEX
  8
0
 10
8.359375
 20
13.125
 30
0.0
 70
8
  0
VERTEX
  8
0
 10
13.095703125
 20
18.28125
 30
0.0
 70
8
  0
VERTEX
  8
0
 10
18.125
 20
22.5
 30
0.0
 70
8
  0
VERTEX
  8
0
 10
23.388671875
 20
25.78125
 30
0.0
 70
8
  0
VERTEX
  8
0
 10
28.828125
 20
28.125
 30
0.0
 70
8
  0
VERTEX
  8
0
 10
34.384765625
 20
29.53125
 30
0.0
 70
8
  0
VERTEX
  8
0
 10
40.0
 20
30.0
 30
0.0
 70
8
  0
VERTEX
  8
0
 10
45.615234375
 20
29.53125
 30
0.0
 70
8
  0
VERTEX
  8
0
 10
51.171875
 20
28.125
 30
0.0
 70
8
  0
VERTEX
  8
0
 10
56.611328125
 20
25.78125
 30
0.0
 70
8
  0
VERTEX
  8
0
 10
61.875
 20
22.5
 30
0.0
 70
8
  0
VERTEX
  8
0
 10
66.904296875
 20
18.28125
 30
0.0
 70
8
  0
VERTEX
  8
0
 10
71.640625
 20
13.125
 30
0.0
 70
8
  0
VERTEX
  8
0
 10
76.025390625
 20
7.03125
 30
0.0
 70
8
  0
VERTEX
  8
0
 10
80.0
 20
0.0
 30
0.0
 70
8
  0
SEQEND
  8
0
  0
ENDSEC
  0
EOF
