  0
SECTION
  2
HEADER
  9
$ACADVER
  1
AC1027
  9
$INSUNITS
 70
4
  0
ENDSEC
  0
SECTION
  2
TABLES
  0
TABLE
  2
LAYER
  5
100
100
AcDbSymbolTable
 70
1
  0
LAYER
  5
101
100
AcDbSymbolTableRecord
100
AcDbLayerTableRecord
  2
0
 70
0
 62
7
  6
CONTINUOUS
  0
ENDTAB
  0
ENDSEC
  0
SECTION
  2
BLOCKS
  0
BLOCK
  5
102
100
AcDbEntity
  8
0
100
AcDbBlockBegin
  2
*Model_Space
 70
0
 10
0.0
 20
0.0
 30
0.0
  3
*Model_Space
  1

  0
ENDBLK
  5
103
100
AcDbEntity
  8
0
100
AcDbBlockEnd
  0
BLOCK
  5
104
100
AcDbEntity
  8
0
100
AcDbBlockBegin
  2
*Paper_Space
 70
0
 10
0.0
 20
0.0
 30
0.0
  3
*Paper_Space
  1

  0
ENDBLK
  5
105
100
AcDbEntity
  8
0
100
AcDbBlockEnd
  0
ENDSEC
  0
SECTION
  2
ENTITIES
  0
ELLIPSE
  5
106
100
AcDbEntity
  8
0
100
AcDbEllipse
 10
50.0
 20
30.0
 30
0.0
 11
40.0
 21
0.0
 31
0.0
210
0.0
220
0.0
230
1.0
 40
0.5
 41
0.0
 42
6.283185307179586
  0
ELLIPSE
  5
107
100
AcDbEntity
  8
0
100
AcDbEllipse
 10
150.0
 20
30.0
 30
0.0
 11
20.0
 21
20.0
 31
0.0
210
0.0
220
0.0
230
1.0
 40
0.3
 41
0.0
 42
6.283185307179586
  0
ELLIPSE
  5
108
100
AcDbEntity
  8
0
100
AcDbEllipse
 10
20.0
 20
100.0
 30
0.0
 11
10.0
 21
0.0
 31
0.0
210
0.0
220
0.0
230
1.0
 40
0.6
 41
1.5707963267948966
 42
4.71238898038469
  0
ELLIPSE
  5
109
100
AcDbEntity
  8
0
100
AcDbEllipse
 10
80.0
 20
100.0
 30
0.0
 11
10.0
 21
0.0
 31
0.0
210
0.0
220
0.0
230
1.0
 40
0.6
 41
4.71238898038469
 42
1.5707963267948966
  0
LINE
  5
10A
100
AcDbEntity
  8
0
100
AcDbLine
 10
20.0
 20
94.0
 30
0.0
 11
80.0
 21
94.0
 31
0.0
  0
LINE
  5
10B
100
AcDbEntity
  8
0
100
AcDbLine
 10
80.0
 20
106.0
 30
0.0
 11
20.0
 21
106.0
 31
0.0
  0
ENDSEC
  0
EOF
