  0
SECTION
  2
HEADER
  9
$ACADVER
  1
AC1015
  9
$INSUNITS
 70
4
  9
$DWGCODEPAGE
  3
ANSI_1252
  0
ENDSEC
  0
SECTION
  2
TABLES
  0
TABLE
  2
LAYER
  5
100
100
AcDbSymbolTable
 70
2
  0
LAYER
  5
101
100
AcDbSymbolTableRecord
100
AcDbLayerTableRecord
  2
0
 70
0
 62
7
  6
CONTINUOUS
  0
LAYER
  5
102
100
AcDbSymbolTableRecord
100
AcDbLayerTableRecord
  2
gasket
 70
0
 62
7
  6
CONTINUOUS
  0
ENDTAB
  0
ENDSEC
  0
SECTION
  2
BLOCKS
  0
BLOCK
  5
103
100
AcDbEntity
  8
0
100
AcDbBlockBegin
  2
*Model_Space
 70
0
 10
0.0
 20
0.0
 30
0.0
  3
*Model_Space
  1

  0
ENDBLK
  5
104
100
AcDbEntity
  8
0
100
AcDbBlockEnd
  0
BLOCK
  5
105
100
AcDbEntity
  8
0
100
AcDbBlockBegin
  2
*Paper_Space
 70
0
 10
0.0
 20
0.0
 30
0.0
  3
*Paper_Space
  1

  0
ENDBLK
  5
106
100
AcDbEntity
  8
0
100
AcDbBlockEnd
  0
ENDSEC
  0
SECTION
  2
ENTITIES
  0
LWPOLYLINE
  5
107
100
AcDbEntity
  8
gasket
100
AcDbPolyline
 90
4
 70
1
 43
0.0
 10
0.0
 20
0.0
 10
60.0
 20
0.0
 42
1.0
 10
60.0
 20
30.0
 10
0.0
 20
30.0
 42
1.0
  0
LWPOLYLINE
  5
108
100
AcDbEntity
  8
gasket
100
AcDbPolyline
 90
4
 70
1
 43
0.0
 10
15.0
 20
10.0
 10
45.0
 20
10.0
 42
1.0
 10
45.0
 20
20.0
 10
15.0
 20
20.0
 42
1.0
  0
CIRCLE
  5
109
100
AcDbEntity
  8
gasket
100
AcDbCircle
 10
-7.5
 20
15.0
 30
0.0
 40
3.0
  0
CIRCLE
  5
10A
100
AcDbEntity
  8
gasket
100
AcDbCircle
 10
67.5
 20
15.0
 30
0.0
 40
3.0
  0
ENDSEC
  0
EOF
