  0
SECTION
  2
HEADER
  9
$ACADVER
  1
AC1015
  9
$INSUNITS
 70
4
  0
ENDSEC
  0
SECTION
  2
TABLES
  0
TABLE
  2
LAYER
  5
100
100
AcDbSymbolTable
 70
1
  0
LAYER
  5
101
100
AcDbSymbolTableRecord
100
AcDbLayerTableRecord
  2
0
 70
0
 62
7
  6
CONTINUOUS
  0
ENDTAB
  0
ENDSEC
  0
SECTION
  2
BLOCKS
  0
BLOCK
  5
102
100
AcDbEntity
  8
0
100
AcDbBlockBegin
  2
*Model_Space
 70
0
 10
0.0
 20
0.0
 30
0.0
  3
*Model_Space
  1

  0
ENDBLK
  5
103
100
AcDbEntity
  8
0
100
AcDbBlockEnd
  0
BLOCK
  5
104
100
AcDbEntity
  8
0
100
AcDbBlockBegin
  2
*Paper_Space
 70
0
 10
0.0
 20
0.0
 30
0.0
  3
*Paper_Space
  1

  0
ENDBLK
  5
105
100
AcDbEntity
  8
0
100
AcDbBlockEnd
  0
ENDSEC
  0
SECTION
  2
ENTITIES
  0
SPLINE
  5
106
100
AcDbEntity
  8
0
100
AcDbSpline
210
0.0
220
0.0
230
1.0
 70
8
 71
3
 72
0
 73
0
 74
5
 42
1e-10
 43
1e-10
 44
1e-10
 11
0.0
 21
0.0
 31
0.0
 11
25.0
 21
15.0
 31
0.0
 11
50.0
 21
0.0
 31
0.0
 11
75.0
 21
-15.0
 31
0.0
 11
100.0
 21
0.0
 31
0.0
  0
SPLINE
  5
107
100
AcDbEntity
  8
0
100
AcDbSpline
210
0.0
220
0.0
230
1.0
 70
9
 71
3
 72
0
 73
0
 74
6
 42
1e-10
 43
1e-10
 44
1e-10
 11
0.0
 21
60.0
 31
0.0
 11
30.0
 21
50.0
 31
0.0
 11
60.0
 21
60.0
 31
0.0
 11
60.0
 21
90.0
 31
0.0
 11
30.0
 21
100.0
 31
0.0
 11
0.0
 21
90.0
 31
0.0
  0
ENDSEC
  0
EOF
