  0
SECTION
  2
HEADER
  9
$ACADVER
  1
AC1015
  9
$INSUNITS
 70
4
  0
ENDSEC
  0
SECTION
  2
TABLES
  0
TABLE
  2
LAYER
  5
100
100
AcDbSymbolTable
 70
1
  0
LAYER
  5
101
100
AcDbSymbolTableRecord
100
AcDbLayerTableRecord
  2
0
 70
0
 62
7
  6
CONTINUOUS
  0
ENDTAB
  0
ENDSEC
  0
SECTION
  2
BLOCKS
  0
BLOCK
  5
102
100
AcDbEntity
  8
0
100
AcDbBlockBegin
  2
*Model_Space
 70
0
 10
0.0
 20
0.0
 30
0.0
  3
*Model_Space
  1

  0
ENDBLK
  5
103
100
AcDbEntity
  8
0
100
AcDbBlockEnd
  0
BLOCK
  5
104
100
AcDbEntity
  8
0
100
AcDbBlockBegin
  2
*Paper_Space
 70
0
 10
0.0
 20
0.0
 30
0.0
  3
*Paper_Space
  1

  0
ENDBLK
  5
105
100
AcDbEntity
  8
0
100
AcDbBlockEnd
  0
ENDSEC
  0
SECTION
  2
ENTITIES
  0
LINE
  5
106
100
AcDbEntity
  8
0
100
AcDbLine
 10
0.0
 20
0.0
 30
0.0
 11
40.0
 21
0.0
 31
0.0
  0
ARC
  5
107
100
AcDbEntity
  8
0
100
AcDbCircle
 10
-40.0
 20
10.0
 30
0.0
 40
10.0
210
0.0
220
0.0
230
-1.0
100
AcDbArc
 50
90.0
 51
270.0
  0
LINE
  5
108
100
AcDbEntity
  8
0
100
AcDbLine
 10
40.0
 20
20.0
 30
0.0
 11
0.0
 21
20.0
 31
0.0
  0
LINE
  5
109
100
AcDbEntity
  8
0
100
AcDbLine
 10
0.0
 20
20.0
 30
0.0
 11
0.0
 21
0.0
 31
0.0
  0
CIRCLE
  5
10A
100
AcDbEntity
  8
0
100
AcDbCircle
 10
-20.0
 20
10.0
 30
0.0
 40
5.0
210
0.0
220
0.0
230
-1.0
  0
LWPOLYLINE
  5
10B
100
AcDbEntity
  8
0
100
AcDbPolyline
 90
4
 70
1
 43
0.0
 10
-10.0
 20
30.0
 10
-30.0
 20
30.0
 10
-30.0
 20
40.0
 10
-10.0
 20
40.0
210
0.0
220
0.0
230
-1.0
  0
ENDSEC
  0
EOF
