  0
SECTION
  2
HEADER
  9
$ACADVER
  1
AC1015
  9
$INSUNITS
 70
1
  0
ENDSEC
  0
SECTION
  2
TABLES
  0
TABLE
  2
LAYER
  5
100
100
AcDbSymbolTable
 70
2
  0
LAYER
  5
101
100
AcDbSymbolTableRecord
100
AcDbLayerTableRecord
  2
0
 70
0
 62
7
  6
CONTINUOUS
  0
LAYER
  5
102
100
AcDbSymbolTableRecord
100
AcDbLayerTableRecord
  2
BEND
 70
0
 62
2
  6
CONTINUOUS
  0
ENDTAB
  0
ENDSEC
  0
SECTION
  2
BLOCKS
  0
BLOCK
  5
103
100
AcDbEntity
  8
0
100
AcDbBlockBegin
  2
*Model_Space
 70
0
 10
0.0
 20
0.0
 30
0.0
  3
*Model_Space
  1

  0
ENDBLK
  5
104
100
AcDbEntity
  8
0
100
AcDbBlockEnd
  0
BLOCK
  5
105
100
AcDbEntity
  8
0
100
AcDbBlockBegin
  2
*Paper_Space
 70
0
 10
0.0
 20
0.0
 30
0.0
  3
*Paper_Space
  1

  0
ENDBLK
  5
106
100
AcDbEntity
  8
0
100
AcDbBlockEnd
  0
ENDSEC
  0
SECTION
  2
ENTITIES
  0
LINE
  5
107
100
AcDbEntity
  8
0
100
AcDbLine
 10
0.0
 20
0.0
 30
0.0
 11
4.0
 21
0.0
 31
0.0
  0
LINE
  5
108
100
AcDbEntity
  8
0
100
AcDbLine
 10
4.0008
 20
0.0
 30
0.0
 11
4.0
 21
1.75
 31
0.0
  0
ARC
  5
109
100
AcDbEntity
  8
0
100
AcDbCircle
 10
3.75
 20
1.75
 30
0.0
 40
0.25
100
AcDbArc
 50
0.0
 51
90.0
  0
LINE
  5
10A
100
AcDbEntity
  8
0
100
AcDbLine
 10
3.75
 20
2.0
 30
0.0
 11
0.25
 21
2.0008
 31
0.0
  0
ARC
  5
10B
100
AcDbEntity
  8
0
100
AcDbCircle
 10
0.25
 20
1.75
 30
0.0
 40
0.25
100
AcDbArc
 50
90.0
 51
180.0
  0
LINE
  5
10C
100
AcDbEntity
  8
0
100
AcDbLine
 10
0.0
 20
1.75
 30
0.0
 11
0.0
 21
0.0
 31
0.0
  0
CIRCLE
  5
10D
100
AcDbEntity
  8
0
100
AcDbCircle
 10
2.0
 20
1.0
 30
0.0
 40
0.375
  0
LINE
  5
10E
100
AcDbEntity
  8
BEND
100
AcDbLine
 10
0.0
 20
1.0
 30
0.0
 11
4.0
 21
1.0
 31
0.0
  0
LINE
  5
10F
100
AcDbEntity
  8
BEND
100
AcDbLine
 10
4.0
 20
1.0
 30
0.0
 11
0.0
 21
1.0
 31
0.0
  0
LINE
  5
110
100
AcDbEntity
  8
BEND
100
AcDbLine
 10
1.0
 20
1.0
 30
0.0
 11
3.0
 21
1.0
 31
0.0
  0
ENDSEC
  0
EOF
