<svg xmlns="http://www.w3.org/2000/svg" width="800" height="600" viewBox="0 0 800 600"><defs><linearGradient id="base" x2="1" y2="1"><stop stop-color="#f2dfb8"/><stop offset="1" stop-color="#c3a779"/></linearGradient><linearGradient id="light" x2=".7" y2="1"><stop stop-color="#fff" stop-opacity=".16"/><stop offset=".5" stop-color="#fff" stop-opacity="0"/><stop offset="1" stop-color="#000" stop-opacity=".07"/></linearGradient></defs><rect width="800" height="600" fill="#f2dfb8"/><path d="M-20 -30 C7.9 130 -47.9 290 -8.8 630" fill="none" stroke="#c3a779" stroke-opacity="0.2" stroke-width="1.9"/><path d="M-7 -30 C20.4 130 -34.4 290 3.9 630" fill="none" stroke="#c3a779" stroke-opacity="0.2" stroke-width="2.1"/><path d="M6 -30 C-3.1 130 15.1 290 2.4 630" fill="none" stroke="#c3a779" stroke-opacity="0.2" stroke-width="1.2"/><path d="M19 -30 C-12.1 130 50.1 290 6.6 630" fill="none" stroke="#c3a779" stroke-opacity="0.1" stroke-width="2.8"/><path d="M32 -30 C-13.9 130 77.9 290 13.6 630" fill="none" stroke="#c3a779" stroke-opacity="0.2" stroke-width="0.9"/><path d="M45 -30 C29.8 130 60.2 290 38.9 630" fill="none" stroke="#c3a779" stroke-opacity="0.3" stroke-width="1.9"/><path d="M58 -30 C68.1 130 47.9 290 62.0 630" fill="none" stroke="#c3a779" stroke-opacity="0.1" stroke-width="1.8"/><path d="M71 -30 C53.2 130 88.8 290 63.9 630" fill="none" stroke="#c3a779" stroke-opacity="0.1" stroke-width="1.4"/><path d="M84 -30 C101.9 130 66.1 290 91.1 630" fill="none" stroke="#c3a779" stroke-opacity="0.1" stroke-width="2.6"/><path d="M97 -30 C79.0 130 115.0 290 89.8 630" fill="none" stroke="#c3a779" stroke-opacity="0.2" stroke-width="0.5"/><path d="M110 -30 C80.0 130 140.0 290 98.0 630" fill="none" stroke="#c3a779" stroke-opacity="0.2" stroke-width="1.6"/><path d="M123 -30 C91.9 130 154.1 290 110.5 630" fill="none" stroke="#c3a779" stroke-opacity="0.3" stroke-width="1.4"/><path d="M136 -30 C175.0 130 97.0 290 151.6 630" fill="none" stroke="#c3a779" stroke-opacity="0.2" stroke-width="2.1"/><path d="M149 -30 C151.5 130 146.5 290 150.0 630" fill="none" stroke="#c3a779" stroke-opacity="0.2" stroke-width="2.4"/><path d="M162 -30 C151.7 130 172.3 290 157.9 630" fill="none" stroke="#c3a779" stroke-opacity="0.3" stroke-width="0.7"/><path d="M175 -30 C214.7 130 135.3 290 190.9 630" fill="none" stroke="#c3a779" stroke-opacity="0.2" stroke-width="1.0"/><path d="M188 -30 C221.3 130 154.7 290 201.3 630" fill="none" stroke="#c3a779" stroke-opacity="0.3" stroke-width="1.0"/><path d="M201 -30 C219.5 130 182.5 290 208.4 630" fill="none" stroke="#c3a779" stroke-opacity="0.1" stroke-width="2.0"/><path d="M214 -30 C250.9 130 177.1 290 228.7 630" fill="none" stroke="#c3a779" stroke-opacity="0.2" stroke-width="2.6"/><path d="M227 -30 C247.3 130 206.7 290 235.1 630" fill="none" stroke="#c3a779" stroke-opacity="0.1" stroke-width="2.1"/><path d="M240 -30 C261.7 130 218.3 290 248.7 630" fill="none" stroke="#c3a779" stroke-opacity="0.1" stroke-width="2.3"/><path d="M253 -30 C216.8 130 289.2 290 238.5 630" fill="none" stroke="#c3a779" stroke-opacity="0.2" stroke-width="1.5"/><path d="M266 -30 C251.5 130 280.5 290 260.2 630" fill="none" stroke="#c3a779" stroke-opacity="0.2" stroke-width="1.0"/><path d="M279 -30 C273.0 130 285.0 290 276.6 630" fill="none" stroke="#c3a779" stroke-opacity="0.3" stroke-width="1.3"/><path d="M292 -30 C299.9 130 284.1 290 295.2 630" fill="none" stroke="#c3a779" stroke-opacity="0.2" stroke-width="1.5"/><path d="M305 -30 C286.7 130 323.3 290 297.7 630" fill="none" stroke="#c3a779" stroke-opacity="0.3" stroke-width="2.6"/><path d="M318 -30 C349.4 130 286.6 290 330.6 630" fill="none" stroke="#c3a779" stroke-opacity="0.2" stroke-width="2.6"/><path d="M331 -30 C293.8 130 368.2 290 316.1 630" fill="none" stroke="#c3a779" stroke-opacity="0.2" stroke-width="2.5"/><path d="M344 -30 C330.5 130 357.5 290 338.6 630" fill="none" stroke="#c3a779" stroke-opacity="0.3" stroke-width="1.0"/><path d="M357 -30 C399.7 130 314.3 290 374.1 630" fill="none" stroke="#c3a779" stroke-opacity="0.1" stroke-width="2.0"/><path d="M370 -30 C331.5 130 408.5 290 354.6 630" fill="none" stroke="#c3a779" stroke-opacity="0.3" stroke-width="1.8"/><path d="M383 -30 C398.5 130 367.5 290 389.2 630" fill="none" stroke="#c3a779" stroke-opacity="0.2" stroke-width="0.7"/><path d="M396 -30 C358.0 130 434.0 290 380.8 630" fill="none" stroke="#c3a779" stroke-opacity="0.2" stroke-width="1.5"/><path d="M409 -30 C361.7 130 456.3 290 390.1 630" fill="none" stroke="#c3a779" stroke-opacity="0.2" stroke-width="2.4"/><path d="M422 -30 C399.5 130 444.5 290 413.0 630" fill="none" stroke="#c3a779" stroke-opacity="0.2" stroke-width="2.5"/><path d="M435 -30 C473.6 130 396.4 290 450.4 630" fill="none" stroke="#c3a779" stroke-opacity="0.3" stroke-width="2.7"/><path d="M448 -30 C432.4 130 463.6 290 441.8 630" fill="none" stroke="#c3a779" stroke-opacity="0.1" stroke-width="2.1"/><path d="M461 -30 C495.3 130 426.7 290 474.7 630" fill="none" stroke="#c3a779" stroke-opacity="0.2" stroke-width="1.5"/><path d="M474 -30 C477.2 130 470.8 290 475.3 630" fill="none" stroke="#c3a779" stroke-opacity="0.2" stroke-width="1.0"/><path d="M487 -30 C513.7 130 460.3 290 497.7 630" fill="none" stroke="#c3a779" stroke-opacity="0.3" stroke-width="0.8"/><path d="M500 -30 C537.9 130 462.1 290 515.2 630" fill="none" stroke="#c3a779" stroke-opacity="0.2" stroke-width="1.1"/><path d="M513 -30 C547.9 130 478.1 290 527.0 630" fill="none" stroke="#c3a779" stroke-opacity="0.2" stroke-width="1.4"/><path d="M526 -30 C557.3 130 494.7 290 538.5 630" fill="none" stroke="#c3a779" stroke-opacity="0.3" stroke-width="2.0"/><path d="M539 -30 C518.5 130 559.5 290 530.8 630" fill="none" stroke="#c3a779" stroke-opacity="0.3" stroke-width="2.2"/><path d="M552 -30 C577.5 130 526.5 290 562.2 630" fill="none" stroke="#c3a779" stroke-opacity="0.1" stroke-width="2.3"/><path d="M565 -30 C575.6 130 554.4 290 569.2 630" fill="none" stroke="#c3a779" stroke-opacity="0.2" stroke-width="1.8"/><path d="M578 -30 C586.4 130 569.6 290 581.4 630" fill="none" stroke="#c3a779" stroke-opacity="0.1" stroke-width="0.6"/><path d="M591 -30 C606.8 130 575.2 290 597.3 630" fill="none" stroke="#c3a779" stroke-opacity="0.3" stroke-width="1.3"/><path d="M604 -30 C624.3 130 583.7 290 612.1 630" fill="none" stroke="#c3a779" stroke-opacity="0.2" stroke-width="2.5"/><path d="M617 -30 C644.5 130 589.5 290 628.0 630" fill="none" stroke="#c3a779" stroke-opacity="0.1" stroke-width="1.5"/><path d="M630 -30 C591.0 130 669.0 290 614.4 630" fill="none" stroke="#c3a779" stroke-opacity="0.2" stroke-width="2.6"/><path d="M643 -30 C666.7 130 619.3 290 652.5 630" fill="none" stroke="#c3a779" stroke-opacity="0.3" stroke-width="1.3"/><path d="M656 -30 C684.3 130 627.7 290 667.3 630" fill="none" stroke="#c3a779" stroke-opacity="0.2" stroke-width="1.3"/><path d="M669 -30 C677.3 130 660.7 290 672.3 630" fill="none" stroke="#c3a779" stroke-opacity="0.1" stroke-width="1.9"/><path d="M682 -30 C635.2 130 728.8 290 663.3 630" fill="none" stroke="#c3a779" stroke-opacity="0.2" stroke-width="1.0"/><path d="M695 -30 C694.3 130 695.7 290 694.7 630" fill="none" stroke="#c3a779" stroke-opacity="0.1" stroke-width="1.5"/><path d="M708 -30 C662.1 130 753.9 290 689.6 630" fill="none" stroke="#c3a779" stroke-opacity="0.2" stroke-width="1.1"/><path d="M721 -30 C751.6 130 690.4 290 733.3 630" fill="none" stroke="#c3a779" stroke-opacity="0.2" stroke-width="1.6"/><path d="M734 -30 C696.3 130 771.7 290 718.9 630" fill="none" stroke="#c3a779" stroke-opacity="0.2" stroke-width="1.5"/><path d="M747 -30 C713.9 130 780.1 290 733.7 630" fill="none" stroke="#c3a779" stroke-opacity="0.3" stroke-width="1.6"/><path d="M760 -30 C774.0 130 746.0 290 765.6 630" fill="none" stroke="#c3a779" stroke-opacity="0.1" stroke-width="2.3"/><path d="M773 -30 C757.6 130 788.4 290 766.9 630" fill="none" stroke="#c3a779" stroke-opacity="0.1" stroke-width="1.6"/><path d="M786 -30 C760.3 130 811.7 290 775.7 630" fill="none" stroke="#c3a779" stroke-opacity="0.2" stroke-width="1.3"/><path d="M799 -30 C813.0 130 785.0 290 804.6 630" fill="none" stroke="#c3a779" stroke-opacity="0.3" stroke-width="1.4"/><path d="M812 -30 C772.5 130 851.5 290 796.2 630" fill="none" stroke="#c3a779" stroke-opacity="0.2" stroke-width="1.2"/><path d="M353.0 177.7 C367.4 188.2 361.0 201.7 353.0 207.7 C345.0 198.7 341.0 186.7 353.0 177.7" fill="none" stroke="#c3a779" stroke-opacity="0.14" stroke-width="1.4"/><path d="M353.0 157.7 C380.0 182.2 368.0 213.7 353.0 227.7 C338.0 206.7 330.5 178.7 353.0 157.7" fill="none" stroke="#c3a779" stroke-opacity="0.14" stroke-width="1.4"/><path d="M353.0 137.7 C392.6 176.2 375.0 225.7 353.0 247.7 C331.0 214.7 320.0 170.7 353.0 137.7" fill="none" stroke="#c3a779" stroke-opacity="0.14" stroke-width="1.4"/><path d="M353.0 117.7 C405.2 170.2 382.0 237.7 353.0 267.7 C324.0 222.7 309.5 162.7 353.0 117.7" fill="none" stroke="#c3a779" stroke-opacity="0.14" stroke-width="1.4"/><path d="M353.0 97.7 C417.8 164.2 389.0 249.7 353.0 287.7 C317.0 230.7 299.0 154.7 353.0 97.7" fill="none" stroke="#c3a779" stroke-opacity="0.14" stroke-width="1.4"/><path d="M353.0 77.7 C430.4 158.2 396.0 261.7 353.0 307.7 C310.0 238.7 288.5 146.7 353.0 77.7" fill="none" stroke="#c3a779" stroke-opacity="0.14" stroke-width="1.4"/><path d="M353.0 57.7 C443.0 152.2 403.0 273.7 353.0 327.7 C303.0 246.7 278.0 138.7 353.0 57.7" fill="none" stroke="#c3a779" stroke-opacity="0.14" stroke-width="1.4"/><path d="M353.0 37.7 C455.6 146.2 410.0 285.7 353.0 347.7 C296.0 254.7 267.5 130.7 353.0 37.7" fill="none" stroke="#c3a779" stroke-opacity="0.14" stroke-width="1.4"/><path d="M353.0 17.7 C468.2 140.2 417.0 297.7 353.0 367.7 C289.0 262.7 257.0 122.7 353.0 17.7" fill="none" stroke="#c3a779" stroke-opacity="0.14" stroke-width="1.4"/><path d="M353.0 -2.3 C480.8 134.2 424.0 309.7 353.0 387.7 C282.0 270.7 246.5 114.7 353.0 -2.3" fill="none" stroke="#c3a779" stroke-opacity="0.14" stroke-width="1.4"/><path d="M353.0 -22.3 C493.4 128.2 431.0 321.7 353.0 407.7 C275.0 278.7 236.0 106.7 353.0 -22.3" fill="none" stroke="#c3a779" stroke-opacity="0.14" stroke-width="1.4"/><path d="M353.0 -42.3 C506.0 122.2 438.0 333.7 353.0 427.7 C268.0 286.7 225.5 98.7 353.0 -42.3" fill="none" stroke="#c3a779" stroke-opacity="0.14" stroke-width="1.4"/><path d="M353.0 -62.3 C518.6 116.2 445.0 345.7 353.0 447.7 C261.0 294.7 215.0 90.7 353.0 -62.3" fill="none" stroke="#c3a779" stroke-opacity="0.14" stroke-width="1.4"/><path d="M353.0 -82.3 C531.2 110.2 452.0 357.7 353.0 467.7 C254.0 302.7 204.5 82.7 353.0 -82.3" fill="none" stroke="#c3a779" stroke-opacity="0.14" stroke-width="1.4"/><path d="M353.0 -102.3 C543.8 104.2 459.0 369.7 353.0 487.7 C247.0 310.7 194.0 74.7 353.0 -102.3" fill="none" stroke="#c3a779" stroke-opacity="0.14" stroke-width="1.4"/><path d="M353.0 -122.3 C556.4 98.2 466.0 381.7 353.0 507.7 C240.0 318.7 183.5 66.7 353.0 -122.3" fill="none" stroke="#c3a779" stroke-opacity="0.14" stroke-width="1.4"/><rect width="800" height="600" fill="url(#light)"/></svg>
