<svg xmlns="http://www.w3.org/2000/svg" width="800" height="600" viewBox="0 0 800 600"><defs><linearGradient id="base" x2="1" y2="1"><stop stop-color="#e4c798"/><stop offset="1" stop-color="#b18955"/></linearGradient><linearGradient id="light" x2=".7" y2="1"><stop stop-color="#fff" stop-opacity=".16"/><stop offset=".5" stop-color="#fff" stop-opacity="0"/><stop offset="1" stop-color="#000" stop-opacity=".07"/></linearGradient></defs><rect width="800" height="600" fill="#e4c798"/><path d="M-20 -30 C-14.6 130 -25.4 290 -17.9 630" fill="none" stroke="#b18955" stroke-opacity="0.2" stroke-width="2.4"/><path d="M-7 -30 C4.5 130 -18.5 290 -2.4 630" fill="none" stroke="#b18955" stroke-opacity="0.2" stroke-width="0.6"/><path d="M6 -30 C8.9 130 3.1 290 7.2 630" fill="none" stroke="#b18955" stroke-opacity="0.2" stroke-width="1.9"/><path d="M19 -30 C13.6 130 24.4 290 16.8 630" fill="none" stroke="#b18955" stroke-opacity="0.2" stroke-width="0.7"/><path d="M32 -30 C49.0 130 15.0 290 38.8 630" fill="none" stroke="#b18955" stroke-opacity="0.3" stroke-width="1.8"/><path d="M45 -30 C91.0 130 -1.0 290 63.4 630" fill="none" stroke="#b18955" stroke-opacity="0.2" stroke-width="2.1"/><path d="M58 -30 C89.0 130 27.0 290 70.4 630" fill="none" stroke="#b18955" stroke-opacity="0.1" stroke-width="1.6"/><path d="M71 -30 C114.0 130 28.0 290 88.2 630" fill="none" stroke="#b18955" stroke-opacity="0.3" stroke-width="1.0"/><path d="M84 -30 C53.7 130 114.3 290 71.9 630" fill="none" stroke="#b18955" stroke-opacity="0.3" stroke-width="0.7"/><path d="M97 -30 C121.2 130 72.8 290 106.7 630" fill="none" stroke="#b18955" stroke-opacity="0.1" stroke-width="1.6"/><path d="M110 -30 C72.9 130 147.1 290 95.2 630" fill="none" stroke="#b18955" stroke-opacity="0.3" stroke-width="1.3"/><path d="M123 -30 C135.9 130 110.1 290 128.1 630" fill="none" stroke="#b18955" stroke-opacity="0.2" stroke-width="1.4"/><path d="M136 -30 C180.1 130 91.9 290 153.6 630" fill="none" stroke="#b18955" stroke-opacity="0.3" stroke-width="2.3"/><path d="M149 -30 C162.2 130 135.8 290 154.3 630" fill="none" stroke="#b18955" stroke-opacity="0.3" stroke-width="1.6"/><path d="M162 -30 C131.6 130 192.4 290 149.8 630" fill="none" stroke="#b18955" stroke-opacity="0.1" stroke-width="2.0"/><path d="M175 -30 C165.5 130 184.5 290 171.2 630" fill="none" stroke="#b18955" stroke-opacity="0.3" stroke-width="1.4"/><path d="M188 -30 C228.3 130 147.7 290 204.1 630" fill="none" stroke="#b18955" stroke-opacity="0.2" stroke-width="0.8"/><path d="M201 -30 C202.2 130 199.8 290 201.5 630" fill="none" stroke="#b18955" stroke-opacity="0.1" stroke-width="1.1"/><path d="M214 -30 C199.7 130 228.3 290 208.3 630" fill="none" stroke="#b18955" stroke-opacity="0.3" stroke-width="1.9"/><path d="M227 -30 C238.5 130 215.5 290 231.6 630" fill="none" stroke="#b18955" stroke-opacity="0.2" stroke-width="2.8"/><path d="M240 -30 C253.7 130 226.3 290 245.5 630" fill="none" stroke="#b18955" stroke-opacity="0.2" stroke-width="2.5"/><path d="M253 -30 C221.4 130 284.6 290 240.4 630" fill="none" stroke="#b18955" stroke-opacity="0.1" stroke-width="2.9"/><path d="M266 -30 C266.8 130 265.2 290 266.3 630" fill="none" stroke="#b18955" stroke-opacity="0.1" stroke-width="1.9"/><path d="M279 -30 C251.0 130 307.0 290 267.8 630" fill="none" stroke="#b18955" stroke-opacity="0.1" stroke-width="0.8"/><path d="M292 -30 C253.8 130 330.2 290 276.7 630" fill="none" stroke="#b18955" stroke-opacity="0.1" stroke-width="2.9"/><path d="M305 -30 C323.8 130 286.2 290 312.5 630" fill="none" stroke="#b18955" stroke-opacity="0.2" stroke-width="2.4"/><path d="M318 -30 C353.8 130 282.2 290 332.3 630" fill="none" stroke="#b18955" stroke-opacity="0.3" stroke-width="2.7"/><path d="M331 -30 C339.1 130 322.9 290 334.2 630" fill="none" stroke="#b18955" stroke-opacity="0.3" stroke-width="1.1"/><path d="M344 -30 C368.7 130 319.3 290 353.9 630" fill="none" stroke="#b18955" stroke-opacity="0.3" stroke-width="2.3"/><path d="M357 -30 C346.8 130 367.2 290 352.9 630" fill="none" stroke="#b18955" stroke-opacity="0.2" stroke-width="1.1"/><path d="M370 -30 C367.3 130 372.7 290 368.9 630" fill="none" stroke="#b18955" stroke-opacity="0.2" stroke-width="2.7"/><path d="M383 -30 C392.5 130 373.5 290 386.8 630" fill="none" stroke="#b18955" stroke-opacity="0.3" stroke-width="1.5"/><path d="M396 -30 C427.4 130 364.6 290 408.6 630" fill="none" stroke="#b18955" stroke-opacity="0.3" stroke-width="2.6"/><path d="M409 -30 C384.9 130 433.1 290 399.4 630" fill="none" stroke="#b18955" stroke-opacity="0.2" stroke-width="2.3"/><path d="M422 -30 C432.7 130 411.3 290 426.3 630" fill="none" stroke="#b18955" stroke-opacity="0.1" stroke-width="0.5"/><path d="M435 -30 C438.1 130 431.9 290 436.2 630" fill="none" stroke="#b18955" stroke-opacity="0.3" stroke-width="0.7"/><path d="M448 -30 C444.5 130 451.5 290 446.6 630" fill="none" stroke="#b18955" stroke-opacity="0.1" stroke-width="1.2"/><path d="M461 -30 C455.1 130 466.9 290 458.6 630" fill="none" stroke="#b18955" stroke-opacity="0.2" stroke-width="1.3"/><path d="M474 -30 C520.1 130 427.9 290 492.4 630" fill="none" stroke="#b18955" stroke-opacity="0.2" stroke-width="1.0"/><path d="M487 -30 C510.8 130 463.2 290 496.5 630" fill="none" stroke="#b18955" stroke-opacity="0.2" stroke-width="0.9"/><path d="M500 -30 C470.0 130 530.0 290 488.0 630" fill="none" stroke="#b18955" stroke-opacity="0.2" stroke-width="1.3"/><path d="M513 -30 C503.2 130 522.8 290 509.1 630" fill="none" stroke="#b18955" stroke-opacity="0.1" stroke-width="1.4"/><path d="M526 -30 C486.7 130 565.3 290 510.3 630" fill="none" stroke="#b18955" stroke-opacity="0.2" stroke-width="1.0"/><path d="M539 -30 C559.9 130 518.1 290 547.4 630" fill="none" stroke="#b18955" stroke-opacity="0.2" stroke-width="0.7"/><path d="M552 -30 C592.2 130 511.8 290 568.1 630" fill="none" stroke="#b18955" stroke-opacity="0.3" stroke-width="1.3"/><path d="M565 -30 C546.8 130 583.2 290 557.7 630" fill="none" stroke="#b18955" stroke-opacity="0.3" stroke-width="1.8"/><path d="M578 -30 C537.3 130 618.7 290 561.7 630" fill="none" stroke="#b18955" stroke-opacity="0.2" stroke-width="1.2"/><path d="M591 -30 C576.6 130 605.4 290 585.3 630" fill="none" stroke="#b18955" stroke-opacity="0.1" stroke-width="1.6"/><path d="M604 -30 C587.7 130 620.3 290 597.5 630" fill="none" stroke="#b18955" stroke-opacity="0.2" stroke-width="1.8"/><path d="M617 -30 C586.0 130 648.0 290 604.6 630" fill="none" stroke="#b18955" stroke-opacity="0.2" stroke-width="1.5"/><path d="M630 -30 C613.1 130 646.9 290 623.3 630" fill="none" stroke="#b18955" stroke-opacity="0.1" stroke-width="1.9"/><path d="M643 -30 C681.7 130 604.3 290 658.5 630" fill="none" stroke="#b18955" stroke-opacity="0.2" stroke-width="0.6"/><path d="M656 -30 C635.1 130 676.9 290 647.6 630" fill="none" stroke="#b18955" stroke-opacity="0.2" stroke-width="0.6"/><path d="M669 -30 C695.4 130 642.6 290 679.5 630" fill="none" stroke="#b18955" stroke-opacity="0.3" stroke-width="2.5"/><path d="M682 -30 C660.3 130 703.7 290 673.3 630" fill="none" stroke="#b18955" stroke-opacity="0.1" stroke-width="0.9"/><path d="M695 -30 C649.0 130 741.0 290 676.6 630" fill="none" stroke="#b18955" stroke-opacity="0.3" stroke-width="2.1"/><path d="M708 -30 C735.1 130 680.9 290 718.8 630" fill="none" stroke="#b18955" stroke-opacity="0.2" stroke-width="2.2"/><path d="M721 -30 C690.6 130 751.4 290 708.8 630" fill="none" stroke="#b18955" stroke-opacity="0.2" stroke-width="1.1"/><path d="M734 -30 C713.1 130 754.9 290 725.6 630" fill="none" stroke="#b18955" stroke-opacity="0.3" stroke-width="2.0"/><path d="M747 -30 C738.9 130 755.1 290 743.8 630" fill="none" stroke="#b18955" stroke-opacity="0.2" stroke-width="2.1"/><path d="M760 -30 C775.9 130 744.1 290 766.3 630" fill="none" stroke="#b18955" stroke-opacity="0.2" stroke-width="1.5"/><path d="M773 -30 C781.2 130 764.8 290 776.3 630" fill="none" stroke="#b18955" stroke-opacity="0.3" stroke-width="1.9"/><path d="M786 -30 C797.4 130 774.6 290 790.6 630" fill="none" stroke="#b18955" stroke-opacity="0.1" stroke-width="2.1"/><path d="M799 -30 C801.1 130 796.9 290 799.8 630" fill="none" stroke="#b18955" stroke-opacity="0.1" stroke-width="1.0"/><path d="M812 -30 C833.6 130 790.4 290 820.6 630" fill="none" stroke="#b18955" stroke-opacity="0.2" stroke-width="1.3"/><path d="M478.6 246.2 C493.0 256.7 486.6 270.2 478.6 276.2 C470.6 267.2 466.6 255.2 478.6 246.2" fill="none" stroke="#b18955" stroke-opacity="0.14" stroke-width="1.4"/><path d="M478.6 226.2 C505.6 250.7 493.6 282.2 478.6 296.2 C463.6 275.2 456.1 247.2 478.6 226.2" fill="none" stroke="#b18955" stroke-opacity="0.14" stroke-width="1.4"/><path d="M478.6 206.2 C518.2 244.7 500.6 294.2 478.6 316.2 C456.6 283.2 445.6 239.2 478.6 206.2" fill="none" stroke="#b18955" stroke-opacity="0.14" stroke-width="1.4"/><path d="M478.6 186.2 C530.8 238.7 507.6 306.2 478.6 336.2 C449.6 291.2 435.1 231.2 478.6 186.2" fill="none" stroke="#b18955" stroke-opacity="0.14" stroke-width="1.4"/><path d="M478.6 166.2 C543.4 232.7 514.6 318.2 478.6 356.2 C442.6 299.2 424.6 223.2 478.6 166.2" fill="none" stroke="#b18955" stroke-opacity="0.14" stroke-width="1.4"/><path d="M478.6 146.2 C556.0 226.7 521.6 330.2 478.6 376.2 C435.6 307.2 414.1 215.2 478.6 146.2" fill="none" stroke="#b18955" stroke-opacity="0.14" stroke-width="1.4"/><path d="M478.6 126.2 C568.6 220.7 528.6 342.2 478.6 396.2 C428.6 315.2 403.6 207.2 478.6 126.2" fill="none" stroke="#b18955" stroke-opacity="0.14" stroke-width="1.4"/><path d="M478.6 106.2 C581.2 214.7 535.6 354.2 478.6 416.2 C421.6 323.2 393.1 199.2 478.6 106.2" fill="none" stroke="#b18955" stroke-opacity="0.14" stroke-width="1.4"/><path d="M478.6 86.2 C593.8 208.7 542.6 366.2 478.6 436.2 C414.6 331.2 382.6 191.2 478.6 86.2" fill="none" stroke="#b18955" stroke-opacity="0.14" stroke-width="1.4"/><path d="M478.6 66.2 C606.4 202.7 549.6 378.2 478.6 456.2 C407.6 339.2 372.1 183.2 478.6 66.2" fill="none" stroke="#b18955" stroke-opacity="0.14" stroke-width="1.4"/><path d="M478.6 46.2 C619.0 196.7 556.6 390.2 478.6 476.2 C400.6 347.2 361.6 175.2 478.6 46.2" fill="none" stroke="#b18955" stroke-opacity="0.14" stroke-width="1.4"/><path d="M478.6 26.2 C631.6 190.7 563.6 402.2 478.6 496.2 C393.6 355.2 351.1 167.2 478.6 26.2" fill="none" stroke="#b18955" stroke-opacity="0.14" stroke-width="1.4"/><path d="M478.6 6.2 C644.2 184.7 570.6 414.2 478.6 516.2 C386.6 363.2 340.6 159.2 478.6 6.2" fill="none" stroke="#b18955" stroke-opacity="0.14" stroke-width="1.4"/><path d="M478.6 -13.8 C656.8 178.7 577.6 426.2 478.6 536.2 C379.6 371.2 330.1 151.2 478.6 -13.8" fill="none" stroke="#b18955" stroke-opacity="0.14" stroke-width="1.4"/><path d="M478.6 -33.8 C669.4 172.7 584.6 438.2 478.6 556.2 C372.6 379.2 319.6 143.2 478.6 -33.8" fill="none" stroke="#b18955" stroke-opacity="0.14" stroke-width="1.4"/><path d="M478.6 -53.8 C682.0 166.7 591.6 450.2 478.6 576.2 C365.6 387.2 309.1 135.2 478.6 -53.8" fill="none" stroke="#b18955" stroke-opacity="0.14" stroke-width="1.4"/><rect width="800" height="600" fill="url(#light)"/></svg>
