<svg xmlns="http://www.w3.org/2000/svg" width="800" height="600" viewBox="0 0 800 600"><defs><linearGradient id="base" x2="1" y2="1"><stop stop-color="#bd7750"/><stop offset="1" stop-color="#703c2b"/></linearGradient><linearGradient id="light" x2=".7" y2="1"><stop stop-color="#fff" stop-opacity=".16"/><stop offset=".5" stop-color="#fff" stop-opacity="0"/><stop offset="1" stop-color="#000" stop-opacity=".07"/></linearGradient></defs><rect width="800" height="600" fill="#bd7750"/><path d="M-20 -30 C-10.7 130 -29.3 290 -16.3 630" fill="none" stroke="#703c2b" stroke-opacity="0.3" stroke-width="2.0"/><path d="M-7 -30 C-24.5 130 10.5 290 -14.0 630" fill="none" stroke="#703c2b" stroke-opacity="0.1" stroke-width="2.5"/><path d="M6 -30 C-7.4 130 19.4 290 0.7 630" fill="none" stroke="#703c2b" stroke-opacity="0.2" stroke-width="1.3"/><path d="M19 -30 C47.5 130 -9.5 290 30.4 630" fill="none" stroke="#703c2b" stroke-opacity="0.2" stroke-width="0.5"/><path d="M32 -30 C64.5 130 -0.5 290 45.0 630" fill="none" stroke="#703c2b" stroke-opacity="0.3" stroke-width="1.1"/><path d="M45 -30 C57.8 130 32.2 290 50.1 630" fill="none" stroke="#703c2b" stroke-opacity="0.3" stroke-width="1.4"/><path d="M58 -30 C93.6 130 22.4 290 72.2 630" fill="none" stroke="#703c2b" stroke-opacity="0.1" stroke-width="1.9"/><path d="M71 -30 C116.8 130 25.2 290 89.3 630" fill="none" stroke="#703c2b" stroke-opacity="0.1" stroke-width="1.4"/><path d="M84 -30 C85.3 130 82.7 290 84.5 630" fill="none" stroke="#703c2b" stroke-opacity="0.3" stroke-width="1.8"/><path d="M97 -30 C104.6 130 89.4 290 100.0 630" fill="none" stroke="#703c2b" stroke-opacity="0.1" stroke-width="2.0"/><path d="M110 -30 C113.4 130 106.6 290 111.4 630" fill="none" stroke="#703c2b" stroke-opacity="0.2" stroke-width="2.1"/><path d="M123 -30 C129.9 130 116.1 290 125.7 630" fill="none" stroke="#703c2b" stroke-opacity="0.2" stroke-width="1.6"/><path d="M136 -30 C180.3 130 91.7 290 153.7 630" fill="none" stroke="#703c2b" stroke-opacity="0.3" stroke-width="1.7"/><path d="M149 -30 C158.8 130 139.2 290 152.9 630" fill="none" stroke="#703c2b" stroke-opacity="0.1" stroke-width="0.9"/><path d="M162 -30 C165.5 130 158.5 290 163.4 630" fill="none" stroke="#703c2b" stroke-opacity="0.1" stroke-width="1.9"/><path d="M175 -30 C207.0 130 143.0 290 187.8 630" fill="none" stroke="#703c2b" stroke-opacity="0.3" stroke-width="0.7"/><path d="M188 -30 C186.7 130 189.3 290 187.5 630" fill="none" stroke="#703c2b" stroke-opacity="0.2" stroke-width="1.9"/><path d="M201 -30 C160.8 130 241.2 290 184.9 630" fill="none" stroke="#703c2b" stroke-opacity="0.2" stroke-width="2.5"/><path d="M214 -30 C213.5 130 214.5 290 213.8 630" fill="none" stroke="#703c2b" stroke-opacity="0.1" stroke-width="1.8"/><path d="M227 -30 C194.9 130 259.1 290 214.2 630" fill="none" stroke="#703c2b" stroke-opacity="0.1" stroke-width="2.0"/><path d="M240 -30 C279.2 130 200.8 290 255.7 630" fill="none" stroke="#703c2b" stroke-opacity="0.1" stroke-width="1.7"/><path d="M253 -30 C267.4 130 238.6 290 258.7 630" fill="none" stroke="#703c2b" stroke-opacity="0.2" stroke-width="2.0"/><path d="M266 -30 C261.3 130 270.7 290 264.1 630" fill="none" stroke="#703c2b" stroke-opacity="0.2" stroke-width="0.7"/><path d="M279 -30 C262.9 130 295.1 290 272.5 630" fill="none" stroke="#703c2b" stroke-opacity="0.1" stroke-width="2.7"/><path d="M292 -30 C338.1 130 245.9 290 310.4 630" fill="none" stroke="#703c2b" stroke-opacity="0.1" stroke-width="0.7"/><path d="M305 -30 C306.9 130 303.1 290 305.8 630" fill="none" stroke="#703c2b" stroke-opacity="0.3" stroke-width="2.3"/><path d="M318 -30 C361.1 130 274.9 290 335.2 630" fill="none" stroke="#703c2b" stroke-opacity="0.2" stroke-width="2.6"/><path d="M331 -30 C320.9 130 341.1 290 327.0 630" fill="none" stroke="#703c2b" stroke-opacity="0.2" stroke-width="2.7"/><path d="M344 -30 C365.1 130 322.9 290 352.4 630" fill="none" stroke="#703c2b" stroke-opacity="0.3" stroke-width="1.2"/><path d="M357 -30 C388.0 130 326.0 290 369.4 630" fill="none" stroke="#703c2b" stroke-opacity="0.3" stroke-width="2.2"/><path d="M370 -30 C338.9 130 401.1 290 357.6 630" fill="none" stroke="#703c2b" stroke-opacity="0.2" stroke-width="2.5"/><path d="M383 -30 C386.6 130 379.4 290 384.4 630" fill="none" stroke="#703c2b" stroke-opacity="0.2" stroke-width="1.0"/><path d="M396 -30 C382.6 130 409.4 290 390.7 630" fill="none" stroke="#703c2b" stroke-opacity="0.2" stroke-width="2.2"/><path d="M409 -30 C426.3 130 391.7 290 415.9 630" fill="none" stroke="#703c2b" stroke-opacity="0.1" stroke-width="1.9"/><path d="M422 -30 C392.4 130 451.6 290 410.2 630" fill="none" stroke="#703c2b" stroke-opacity="0.2" stroke-width="1.7"/><path d="M435 -30 C436.6 130 433.4 290 435.6 630" fill="none" stroke="#703c2b" stroke-opacity="0.2" stroke-width="2.1"/><path d="M448 -30 C464.2 130 431.8 290 454.5 630" fill="none" stroke="#703c2b" stroke-opacity="0.2" stroke-width="1.3"/><path d="M461 -30 C466.1 130 455.9 290 463.0 630" fill="none" stroke="#703c2b" stroke-opacity="0.3" stroke-width="1.8"/><path d="M474 -30 C512.0 130 436.0 290 489.2 630" fill="none" stroke="#703c2b" stroke-opacity="0.2" stroke-width="1.1"/><path d="M487 -30 C490.5 130 483.5 290 488.4 630" fill="none" stroke="#703c2b" stroke-opacity="0.1" stroke-width="2.8"/><path d="M500 -30 C518.0 130 482.0 290 507.2 630" fill="none" stroke="#703c2b" stroke-opacity="0.2" stroke-width="1.3"/><path d="M513 -30 C558.9 130 467.1 290 531.4 630" fill="none" stroke="#703c2b" stroke-opacity="0.1" stroke-width="2.6"/><path d="M526 -30 C498.5 130 553.5 290 515.0 630" fill="none" stroke="#703c2b" stroke-opacity="0.1" stroke-width="1.7"/><path d="M539 -30 C557.1 130 520.9 290 546.3 630" fill="none" stroke="#703c2b" stroke-opacity="0.2" stroke-width="2.1"/><path d="M552 -30 C519.1 130 584.9 290 538.8 630" fill="none" stroke="#703c2b" stroke-opacity="0.1" stroke-width="1.4"/><path d="M565 -30 C601.5 130 528.5 290 579.6 630" fill="none" stroke="#703c2b" stroke-opacity="0.2" stroke-width="1.4"/><path d="M578 -30 C570.7 130 585.3 290 575.1 630" fill="none" stroke="#703c2b" stroke-opacity="0.2" stroke-width="2.6"/><path d="M591 -30 C572.0 130 610.0 290 583.4 630" fill="none" stroke="#703c2b" stroke-opacity="0.1" stroke-width="2.3"/><path d="M604 -30 C575.6 130 632.4 290 592.6 630" fill="none" stroke="#703c2b" stroke-opacity="0.2" stroke-width="1.7"/><path d="M617 -30 C655.2 130 578.8 290 632.3 630" fill="none" stroke="#703c2b" stroke-opacity="0.1" stroke-width="1.9"/><path d="M630 -30 C582.9 130 677.1 290 611.2 630" fill="none" stroke="#703c2b" stroke-opacity="0.3" stroke-width="2.1"/><path d="M643 -30 C669.9 130 616.1 290 653.7 630" fill="none" stroke="#703c2b" stroke-opacity="0.3" stroke-width="1.8"/><path d="M656 -30 C620.4 130 691.6 290 641.8 630" fill="none" stroke="#703c2b" stroke-opacity="0.1" stroke-width="1.3"/><path d="M669 -30 C674.5 130 663.5 290 671.2 630" fill="none" stroke="#703c2b" stroke-opacity="0.2" stroke-width="1.8"/><path d="M682 -30 C649.1 130 714.9 290 668.8 630" fill="none" stroke="#703c2b" stroke-opacity="0.1" stroke-width="1.7"/><path d="M695 -30 C732.5 130 657.5 290 710.0 630" fill="none" stroke="#703c2b" stroke-opacity="0.2" stroke-width="2.3"/><path d="M708 -30 C682.9 130 733.1 290 698.0 630" fill="none" stroke="#703c2b" stroke-opacity="0.3" stroke-width="0.7"/><path d="M721 -30 C691.2 130 750.8 290 709.1 630" fill="none" stroke="#703c2b" stroke-opacity="0.1" stroke-width="2.3"/><path d="M734 -30 C765.8 130 702.2 290 746.7 630" fill="none" stroke="#703c2b" stroke-opacity="0.2" stroke-width="2.1"/><path d="M747 -30 C744.1 130 749.9 290 745.8 630" fill="none" stroke="#703c2b" stroke-opacity="0.2" stroke-width="2.8"/><path d="M760 -30 C722.9 130 797.1 290 745.1 630" fill="none" stroke="#703c2b" stroke-opacity="0.2" stroke-width="1.2"/><path d="M773 -30 C808.4 130 737.6 290 787.1 630" fill="none" stroke="#703c2b" stroke-opacity="0.1" stroke-width="1.3"/><path d="M786 -30 C758.1 130 813.9 290 774.8 630" fill="none" stroke="#703c2b" stroke-opacity="0.1" stroke-width="2.2"/><path d="M799 -30 C846.0 130 752.0 290 817.8 630" fill="none" stroke="#703c2b" stroke-opacity="0.2" stroke-width="2.3"/><path d="M812 -30 C839.9 130 784.1 290 823.2 630" fill="none" stroke="#703c2b" stroke-opacity="0.2" stroke-width="1.1"/><path d="M547.7 361.1 C562.1 371.6 555.7 385.1 547.7 391.1 C539.7 382.1 535.7 370.1 547.7 361.1" fill="none" stroke="#703c2b" stroke-opacity="0.14" stroke-width="1.4"/><path d="M547.7 341.1 C574.7 365.6 562.7 397.1 547.7 411.1 C532.7 390.1 525.2 362.1 547.7 341.1" fill="none" stroke="#703c2b" stroke-opacity="0.14" stroke-width="1.4"/><path d="M547.7 321.1 C587.3 359.6 569.7 409.1 547.7 431.1 C525.7 398.1 514.7 354.1 547.7 321.1" fill="none" stroke="#703c2b" stroke-opacity="0.14" stroke-width="1.4"/><path d="M547.7 301.1 C599.9 353.6 576.7 421.1 547.7 451.1 C518.7 406.1 504.2 346.1 547.7 301.1" fill="none" stroke="#703c2b" stroke-opacity="0.14" stroke-width="1.4"/><path d="M547.7 281.1 C612.5 347.6 583.7 433.1 547.7 471.1 C511.7 414.1 493.7 338.1 547.7 281.1" fill="none" stroke="#703c2b" stroke-opacity="0.14" stroke-width="1.4"/><path d="M547.7 261.1 C625.1 341.6 590.7 445.1 547.7 491.1 C504.7 422.1 483.2 330.1 547.7 261.1" fill="none" stroke="#703c2b" stroke-opacity="0.14" stroke-width="1.4"/><path d="M547.7 241.1 C637.7 335.6 597.7 457.1 547.7 511.1 C497.7 430.1 472.7 322.1 547.7 241.1" fill="none" stroke="#703c2b" stroke-opacity="0.14" stroke-width="1.4"/><path d="M547.7 221.1 C650.3 329.6 604.7 469.1 547.7 531.1 C490.7 438.1 462.2 314.1 547.7 221.1" fill="none" stroke="#703c2b" stroke-opacity="0.14" stroke-width="1.4"/><path d="M547.7 201.1 C662.9 323.6 611.7 481.1 547.7 551.1 C483.7 446.1 451.7 306.1 547.7 201.1" fill="none" stroke="#703c2b" stroke-opacity="0.14" stroke-width="1.4"/><path d="M547.7 181.1 C675.5 317.6 618.7 493.1 547.7 571.1 C476.7 454.1 441.2 298.1 547.7 181.1" fill="none" stroke="#703c2b" stroke-opacity="0.14" stroke-width="1.4"/><path d="M547.7 161.1 C688.1 311.6 625.7 505.1 547.7 591.1 C469.7 462.1 430.7 290.1 547.7 161.1" fill="none" stroke="#703c2b" stroke-opacity="0.14" stroke-width="1.4"/><path d="M547.7 141.1 C700.7 305.6 632.7 517.1 547.7 611.1 C462.7 470.1 420.2 282.1 547.7 141.1" fill="none" stroke="#703c2b" stroke-opacity="0.14" stroke-width="1.4"/><path d="M547.7 121.1 C713.3 299.6 639.7 529.1 547.7 631.1 C455.7 478.1 409.7 274.1 547.7 121.1" fill="none" stroke="#703c2b" stroke-opacity="0.14" stroke-width="1.4"/><path d="M547.7 101.1 C725.9 293.6 646.7 541.1 547.7 651.1 C448.7 486.1 399.2 266.1 547.7 101.1" fill="none" stroke="#703c2b" stroke-opacity="0.14" stroke-width="1.4"/><path d="M547.7 81.1 C738.5 287.6 653.7 553.1 547.7 671.1 C441.7 494.1 388.7 258.1 547.7 81.1" fill="none" stroke="#703c2b" stroke-opacity="0.14" stroke-width="1.4"/><path d="M547.7 61.1 C751.1 281.6 660.7 565.1 547.7 691.1 C434.7 502.1 378.2 250.1 547.7 61.1" fill="none" stroke="#703c2b" stroke-opacity="0.14" stroke-width="1.4"/><rect width="800" height="600" fill="url(#light)"/></svg>
