<svg xmlns="http://www.w3.org/2000/svg" width="800" height="600" viewBox="0 0 800 600"><defs><linearGradient id="base" x2="1" y2="1"><stop stop-color="#d4e4e3"/><stop offset="1" stop-color="#a4c1c3"/></linearGradient><linearGradient id="light" x2=".7" y2="1"><stop stop-color="#fff" stop-opacity=".16"/><stop offset=".5" stop-color="#fff" stop-opacity="0"/><stop offset="1" stop-color="#000" stop-opacity=".07"/></linearGradient></defs><rect width="800" height="600" fill="url(#base)"/><ellipse cx="210.9" cy="199.4" rx="1.1" ry="1.0" fill="#fff" opacity="0.2"/><ellipse cx="62.6" cy="51.4" rx="1.2" ry="0.5" fill="#fff" opacity="0.3"/><ellipse cx="194.4" cy="57.7" rx="0.6" ry="1.1" fill="#fff" opacity="0.1"/><ellipse cx="92.7" cy="308.6" rx="1.3" ry="1.0" fill="#fff" opacity="0.2"/><ellipse cx="329.7" cy="496.3" rx="0.7" ry="0.5" fill="#fff" opacity="0.3"/><ellipse cx="121.1" cy="347.3" rx="0.9" ry="1.3" fill="#a4c1c3" opacity="0.3"/><ellipse cx="293.1" cy="414.3" rx="1.3" ry="1.0" fill="#fff" opacity="0.1"/><ellipse cx="153.9" cy="158.3" rx="1.5" ry="0.7" fill="#a4c1c3" opacity="0.1"/><ellipse cx="324.6" cy="34.3" rx="0.7" ry="1.2" fill="#a4c1c3" opacity="0.2"/><ellipse cx="433.5" cy="85.9" rx="0.5" ry="0.6" fill="#fff" opacity="0.2"/><ellipse cx="774.0" cy="554.7" rx="1.1" ry="1.2" fill="#fff" opacity="0.3"/><ellipse cx="611.8" cy="292.8" rx="1.8" ry="1.2" fill="#fff" opacity="0.2"/><ellipse cx="462.2" cy="331.0" rx="0.9" ry="0.4" fill="#a4c1c3" opacity="0.2"/><ellipse cx="581.9" cy="481.1" rx="0.8" ry="0.8" fill="#fff" opacity="0.2"/><ellipse cx="391.3" cy="328.0" rx="0.4" ry="1.1" fill="#a4c1c3" opacity="0.1"/><ellipse cx="403.1" cy="85.4" rx="2.2" ry="1.2" fill="#a4c1c3" opacity="0.2"/><ellipse cx="344.7" cy="532.1" rx="2.2" ry="0.4" fill="#fff" opacity="0.1"/><ellipse cx="158.6" cy="502.4" rx="1.7" ry="0.8" fill="#fff" opacity="0.2"/><ellipse cx="111.9" cy="365.4" rx="1.9" ry="1.2" fill="#a4c1c3" opacity="0.1"/><ellipse cx="783.0" cy="274.1" rx="1.3" ry="1.1" fill="#a4c1c3" opacity="0.2"/><ellipse cx="477.1" cy="91.6" rx="1.3" ry="0.8" fill="#a4c1c3" opacity="0.2"/><ellipse cx="695.9" cy="89.4" rx="1.7" ry="0.4" fill="#fff" opacity="0.2"/><ellipse cx="108.3" cy="354.4" rx="1.3" ry="0.8" fill="#a4c1c3" opacity="0.2"/><ellipse cx="80.7" cy="419.6" rx="1.8" ry="0.7" fill="#fff" opacity="0.2"/><ellipse cx="684.5" cy="139.6" rx="0.9" ry="1.2" fill="#fff" opacity="0.1"/><ellipse cx="45.6" cy="554.1" rx="1.2" ry="0.6" fill="#a4c1c3" opacity="0.2"/><ellipse cx="799.8" cy="200.3" rx="1.7" ry="1.1" fill="#a4c1c3" opacity="0.2"/><ellipse cx="103.2" cy="151.1" rx="1.3" ry="0.7" fill="#fff" opacity="0.1"/><ellipse cx="179.0" cy="537.3" rx="0.7" ry="1.2" fill="#a4c1c3" opacity="0.2"/><ellipse cx="8.6" cy="369.9" rx="1.7" ry="0.7" fill="#a4c1c3" opacity="0.1"/><ellipse cx="745.5" cy="474.5" rx="0.7" ry="0.9" fill="#a4c1c3" opacity="0.2"/><ellipse cx="190.5" cy="599.3" rx="1.6" ry="1.2" fill="#fff" opacity="0.2"/><ellipse cx="77.0" cy="419.5" rx="1.1" ry="0.7" fill="#fff" opacity="0.2"/><ellipse cx="15.1" cy="148.9" rx="2.2" ry="0.9" fill="#a4c1c3" opacity="0.1"/><ellipse cx="186.2" cy="351.3" rx="1.8" ry="0.8" fill="#fff" opacity="0.2"/><ellipse cx="520.0" cy="17.5" rx="1.3" ry="0.9" fill="#a4c1c3" opacity="0.3"/><ellipse cx="366.5" cy="424.5" rx="1.4" ry="0.7" fill="#fff" opacity="0.2"/><ellipse cx="53.7" cy="6.1" rx="0.6" ry="0.3" fill="#a4c1c3" opacity="0.1"/><ellipse cx="636.5" cy="231.4" rx="1.0" ry="1.0" fill="#a4c1c3" opacity="0.2"/><ellipse cx="261.4" cy="389.3" rx="2.0" ry="0.6" fill="#a4c1c3" opacity="0.2"/><ellipse cx="124.4" cy="12.0" rx="2.0" ry="1.0" fill="#a4c1c3" opacity="0.2"/><ellipse cx="51.4" cy="111.6" rx="1.2" ry="1.0" fill="#a4c1c3" opacity="0.2"/><ellipse cx="527.0" cy="53.5" rx="1.0" ry="0.7" fill="#fff" opacity="0.1"/><ellipse cx="181.6" cy="424.7" rx="1.3" ry="0.8" fill="#fff" opacity="0.2"/><ellipse cx="183.2" cy="68.3" rx="1.0" ry="0.6" fill="#a4c1c3" opacity="0.1"/><ellipse cx="503.2" cy="229.9" rx="1.5" ry="0.7" fill="#a4c1c3" opacity="0.2"/><ellipse cx="496.7" cy="493.0" rx="1.2" ry="0.9" fill="#a4c1c3" opacity="0.2"/><ellipse cx="98.7" cy="143.1" rx="0.4" ry="0.5" fill="#a4c1c3" opacity="0.2"/><ellipse cx="248.6" cy="598.1" rx="1.8" ry="0.5" fill="#fff" opacity="0.2"/><ellipse cx="351.9" cy="46.7" rx="2.1" ry="0.4" fill="#fff" opacity="0.3"/><ellipse cx="734.9" cy="448.3" rx="1.4" ry="1.1" fill="#a4c1c3" opacity="0.2"/><ellipse cx="787.3" cy="244.2" rx="1.6" ry="1.1" fill="#a4c1c3" opacity="0.2"/><ellipse cx="66.8" cy="105.7" rx="1.4" ry="0.9" fill="#a4c1c3" opacity="0.2"/><ellipse cx="117.4" cy="283.8" rx="0.9" ry="0.8" fill="#fff" opacity="0.1"/><ellipse cx="773.5" cy="414.7" rx="1.1" ry="0.9" fill="#a4c1c3" opacity="0.2"/><ellipse cx="733.1" cy="465.8" rx="1.2" ry="0.6" fill="#a4c1c3" opacity="0.1"/><ellipse cx="641.2" cy="261.5" rx="1.4" ry="0.5" fill="#fff" opacity="0.1"/><ellipse cx="677.1" cy="400.4" rx="1.1" ry="0.6" fill="#fff" opacity="0.1"/><ellipse cx="129.5" cy="345.7" rx="1.4" ry="0.4" fill="#fff" opacity="0.2"/><ellipse cx="537.1" cy="530.0" rx="2.0" ry="0.4" fill="#fff" opacity="0.2"/><ellipse cx="700.0" cy="257.8" rx="2.2" ry="0.6" fill="#a4c1c3" opacity="0.2"/><ellipse cx="94.9" cy="83.4" rx="0.8" ry="1.2" fill="#a4c1c3" opacity="0.1"/><ellipse cx="596.6" cy="401.6" rx="1.4" ry="0.4" fill="#fff" opacity="0.2"/><ellipse cx="571.1" cy="76.2" rx="1.0" ry="1.1" fill="#fff" opacity="0.1"/><ellipse cx="413.1" cy="51.3" rx="1.3" ry="0.5" fill="#fff" opacity="0.2"/><ellipse cx="501.2" cy="323.6" rx="0.7" ry="1.3" fill="#a4c1c3" opacity="0.2"/><ellipse cx="587.7" cy="386.4" rx="1.6" ry="1.0" fill="#a4c1c3" opacity="0.3"/><ellipse cx="681.6" cy="581.5" rx="1.6" ry="0.9" fill="#a4c1c3" opacity="0.1"/><ellipse cx="359.7" cy="492.7" rx="0.8" ry="1.1" fill="#a4c1c3" opacity="0.1"/><ellipse cx="222.5" cy="480.4" rx="1.2" ry="0.3" fill="#fff" opacity="0.2"/><ellipse cx="727.4" cy="271.0" rx="0.7" ry="1.1" fill="#a4c1c3" opacity="0.1"/><ellipse cx="345.1" cy="269.4" rx="0.4" ry="1.0" fill="#fff" opacity="0.1"/><ellipse cx="544.8" cy="344.7" rx="2.0" ry="0.7" fill="#a4c1c3" opacity="0.2"/><ellipse cx="761.3" cy="334.0" rx="1.6" ry="1.2" fill="#fff" opacity="0.2"/><ellipse cx="693.4" cy="5.0" rx="1.3" ry="0.4" fill="#a4c1c3" opacity="0.1"/><ellipse cx="72.4" cy="5.3" rx="1.3" ry="0.5" fill="#a4c1c3" opacity="0.2"/><ellipse cx="267.3" cy="387.1" rx="2.0" ry="0.8" fill="#a4c1c3" opacity="0.2"/><ellipse cx="625.4" cy="524.5" rx="0.9" ry="0.8" fill="#a4c1c3" opacity="0.2"/><ellipse cx="109.5" cy="415.2" rx="1.2" ry="0.9" fill="#fff" opacity="0.2"/><ellipse cx="63.3" cy="379.5" rx="2.1" ry="0.8" fill="#a4c1c3" opacity="0.2"/><ellipse cx="436.4" cy="209.2" rx="2.0" ry="0.6" fill="#fff" opacity="0.3"/><ellipse cx="7.9" cy="179.0" rx="0.6" ry="1.2" fill="#a4c1c3" opacity="0.1"/><ellipse cx="287.4" cy="392.1" rx="1.0" ry="0.6" fill="#fff" opacity="0.2"/><ellipse cx="111.6" cy="178.4" rx="2.0" ry="0.7" fill="#a4c1c3" opacity="0.1"/><ellipse cx="339.0" cy="289.9" rx="1.8" ry="0.4" fill="#a4c1c3" opacity="0.1"/><ellipse cx="316.9" cy="126.1" rx="0.8" ry="0.8" fill="#a4c1c3" opacity="0.2"/><ellipse cx="418.7" cy="563.7" rx="1.5" ry="0.9" fill="#a4c1c3" opacity="0.2"/><ellipse cx="759.6" cy="442.1" rx="0.9" ry="0.7" fill="#fff" opacity="0.1"/><ellipse cx="57.3" cy="365.3" rx="1.0" ry="1.1" fill="#a4c1c3" opacity="0.2"/><ellipse cx="154.9" cy="297.8" rx="1.0" ry="0.8" fill="#fff" opacity="0.2"/><ellipse cx="217.5" cy="256.7" rx="0.5" ry="0.8" fill="#a4c1c3" opacity="0.2"/><ellipse cx="102.5" cy="310.5" rx="1.8" ry="0.5" fill="#a4c1c3" opacity="0.2"/><ellipse cx="535.4" cy="83.9" rx="0.8" ry="0.4" fill="#fff" opacity="0.2"/><ellipse cx="548.8" cy="319.0" rx="1.7" ry="0.9" fill="#fff" opacity="0.2"/><ellipse cx="212.5" cy="345.7" rx="1.0" ry="0.8" fill="#a4c1c3" opacity="0.3"/><ellipse cx="643.7" cy="256.4" rx="1.3" ry="1.2" fill="#a4c1c3" opacity="0.2"/><ellipse cx="496.7" cy="148.9" rx="0.8" ry="1.2" fill="#a4c1c3" opacity="0.1"/><ellipse cx="229.4" cy="284.3" rx="0.7" ry="0.5" fill="#a4c1c3" opacity="0.1"/><ellipse cx="488.8" cy="589.0" rx="1.4" ry="0.7" fill="#a4c1c3" opacity="0.1"/><ellipse cx="598.8" cy="106.1" rx="1.1" ry="0.3" fill="#fff" opacity="0.2"/><ellipse cx="611.5" cy="348.6" rx="0.5" ry="0.7" fill="#fff" opacity="0.1"/><ellipse cx="161.0" cy="522.7" rx="1.6" ry="0.9" fill="#a4c1c3" opacity="0.3"/><ellipse cx="280.6" cy="452.9" rx="1.8" ry="0.7" fill="#fff" opacity="0.1"/><ellipse cx="51.0" cy="248.0" rx="0.7" ry="0.5" fill="#a4c1c3" opacity="0.2"/><ellipse cx="513.3" cy="473.8" rx="1.3" ry="1.2" fill="#fff" opacity="0.1"/><ellipse cx="521.6" cy="349.3" rx="1.3" ry="0.5" fill="#fff" opacity="0.3"/><ellipse cx="13.0" cy="422.8" rx="1.8" ry="0.9" fill="#fff" opacity="0.2"/><ellipse cx="355.2" cy="27.6" rx="1.9" ry="1.1" fill="#a4c1c3" opacity="0.2"/><ellipse cx="666.9" cy="522.9" rx="1.9" ry="0.5" fill="#a4c1c3" opacity="0.2"/><ellipse cx="531.9" cy="4.8" rx="0.7" ry="1.1" fill="#fff" opacity="0.2"/><ellipse cx="194.7" cy="201.8" rx="1.8" ry="0.4" fill="#fff" opacity="0.1"/><ellipse cx="792.9" cy="531.5" rx="1.6" ry="0.8" fill="#fff" opacity="0.2"/><ellipse cx="285.2" cy="194.4" rx="1.9" ry="0.4" fill="#a4c1c3" opacity="0.2"/><ellipse cx="335.4" cy="382.9" rx="1.4" ry="0.9" fill="#a4c1c3" opacity="0.2"/><ellipse cx="359.3" cy="397.6" rx="0.5" ry="0.3" fill="#fff" opacity="0.2"/><ellipse cx="477.0" cy="357.4" rx="1.9" ry="0.9" fill="#fff" opacity="0.2"/><ellipse cx="96.0" cy="67.1" rx="0.8" ry="0.6" fill="#a4c1c3" opacity="0.2"/><ellipse cx="127.9" cy="543.9" rx="0.7" ry="0.6" fill="#fff" opacity="0.1"/><ellipse cx="458.6" cy="496.0" rx="0.6" ry="0.7" fill="#fff" opacity="0.2"/><ellipse cx="706.4" cy="572.9" rx="1.6" ry="1.0" fill="#a4c1c3" opacity="0.1"/><ellipse cx="360.0" cy="267.7" rx="0.4" ry="0.5" fill="#a4c1c3" opacity="0.2"/><ellipse cx="537.5" cy="217.5" rx="0.5" ry="1.2" fill="#fff" opacity="0.2"/><ellipse cx="703.7" cy="322.0" rx="0.6" ry="0.7" fill="#fff" opacity="0.2"/><ellipse cx="570.5" cy="260.6" rx="1.0" ry="0.3" fill="#fff" opacity="0.2"/><ellipse cx="537.4" cy="225.8" rx="2.2" ry="0.8" fill="#fff" opacity="0.2"/><ellipse cx="253.9" cy="91.7" rx="1.0" ry="1.1" fill="#a4c1c3" opacity="0.1"/><ellipse cx="658.0" cy="189.1" rx="1.3" ry="1.0" fill="#a4c1c3" opacity="0.2"/><ellipse cx="204.3" cy="51.8" rx="0.8" ry="1.0" fill="#a4c1c3" opacity="0.2"/><ellipse cx="605.1" cy="116.4" rx="0.5" ry="0.9" fill="#a4c1c3" opacity="0.3"/><ellipse cx="508.3" cy="489.9" rx="1.2" ry="0.8" fill="#fff" opacity="0.1"/><ellipse cx="779.1" cy="335.2" rx="1.1" ry="1.2" fill="#fff" opacity="0.1"/><ellipse cx="492.7" cy="447.2" rx="1.2" ry="0.9" fill="#a4c1c3" opacity="0.2"/><ellipse cx="24.2" cy="390.3" rx="0.7" ry="0.4" fill="#a4c1c3" opacity="0.2"/><ellipse cx="402.9" cy="235.5" rx="1.4" ry="1.0" fill="#a4c1c3" opacity="0.2"/><ellipse cx="10.9" cy="246.9" rx="0.7" ry="0.4" fill="#fff" opacity="0.2"/><ellipse cx="25.3" cy="324.5" rx="2.1" ry="0.8" fill="#fff" opacity="0.1"/><ellipse cx="757.1" cy="591.1" rx="1.2" ry="1.2" fill="#a4c1c3" opacity="0.1"/><ellipse cx="691.1" cy="503.7" rx="2.0" ry="0.4" fill="#a4c1c3" opacity="0.2"/><ellipse cx="625.7" cy="270.2" rx="0.8" ry="0.3" fill="#a4c1c3" opacity="0.2"/><ellipse cx="501.2" cy="435.0" rx="1.7" ry="0.6" fill="#a4c1c3" opacity="0.1"/><ellipse cx="734.4" cy="461.0" rx="1.2" ry="0.7" fill="#a4c1c3" opacity="0.2"/><ellipse cx="6.4" cy="461.1" rx="1.5" ry="0.7" fill="#a4c1c3" opacity="0.1"/><ellipse cx="316.9" cy="110.0" rx="1.4" ry="0.9" fill="#a4c1c3" opacity="0.2"/><ellipse cx="583.6" cy="486.0" rx="0.6" ry="0.8" fill="#a4c1c3" opacity="0.2"/><ellipse cx="172.4" cy="332.8" rx="0.9" ry="0.6" fill="#a4c1c3" opacity="0.2"/><ellipse cx="342.8" cy="292.3" rx="2.0" ry="1.2" fill="#a4c1c3" opacity="0.2"/><ellipse cx="340.6" cy="215.9" rx="1.9" ry="1.1" fill="#a4c1c3" opacity="0.3"/><ellipse cx="604.6" cy="11.9" rx="0.8" ry="1.1" fill="#fff" opacity="0.1"/><ellipse cx="740.2" cy="210.1" rx="0.6" ry="1.1" fill="#fff" opacity="0.2"/><ellipse cx="184.1" cy="214.9" rx="2.1" ry="0.9" fill="#a4c1c3" opacity="0.1"/><ellipse cx="108.0" cy="56.4" rx="2.0" ry="0.8" fill="#a4c1c3" opacity="0.2"/><ellipse cx="519.6" cy="32.5" rx="0.8" ry="1.2" fill="#fff" opacity="0.1"/><ellipse cx="776.8" cy="535.3" rx="1.2" ry="1.3" fill="#a4c1c3" opacity="0.2"/><ellipse cx="83.5" cy="280.8" rx="1.8" ry="1.0" fill="#a4c1c3" opacity="0.2"/><ellipse cx="627.9" cy="480.0" rx="2.1" ry="0.7" fill="#a4c1c3" opacity="0.2"/><ellipse cx="712.3" cy="98.5" rx="0.4" ry="0.5" fill="#a4c1c3" opacity="0.2"/><ellipse cx="158.4" cy="444.0" rx="1.3" ry="1.3" fill="#a4c1c3" opacity="0.2"/><ellipse cx="693.8" cy="366.5" rx="1.3" ry="0.8" fill="#a4c1c3" opacity="0.2"/><ellipse cx="798.2" cy="563.9" rx="0.8" ry="1.0" fill="#a4c1c3" opacity="0.2"/><ellipse cx="49.1" cy="324.5" rx="1.4" ry="1.2" fill="#fff" opacity="0.3"/><ellipse cx="415.5" cy="108.0" rx="2.0" ry="1.2" fill="#a4c1c3" opacity="0.1"/><ellipse cx="446.5" cy="349.1" rx="1.7" ry="0.7" fill="#fff" opacity="0.2"/><ellipse cx="148.7" cy="350.9" rx="1.2" ry="0.8" fill="#fff" opacity="0.2"/><ellipse cx="784.2" cy="10.2" rx="1.8" ry="0.6" fill="#fff" opacity="0.3"/><ellipse cx="100.4" cy="565.5" rx="2.1" ry="0.5" fill="#fff" opacity="0.1"/><ellipse cx="81.8" cy="471.4" rx="0.5" ry="0.6" fill="#fff" opacity="0.1"/><ellipse cx="33.2" cy="472.5" rx="1.4" ry="1.2" fill="#a4c1c3" opacity="0.1"/><ellipse cx="313.9" cy="48.4" rx="2.1" ry="1.2" fill="#a4c1c3" opacity="0.2"/><ellipse cx="603.6" cy="438.2" rx="1.6" ry="1.1" fill="#a4c1c3" opacity="0.2"/><ellipse cx="428.3" cy="93.7" rx="0.8" ry="0.6" fill="#fff" opacity="0.2"/><ellipse cx="71.3" cy="460.8" rx="0.5" ry="0.9" fill="#a4c1c3" opacity="0.2"/><ellipse cx="181.4" cy="120.5" rx="1.8" ry="1.2" fill="#fff" opacity="0.1"/><ellipse cx="22.0" cy="336.8" rx="0.5" ry="0.4" fill="#fff" opacity="0.1"/><ellipse cx="632.6" cy="233.2" rx="0.6" ry="1.2" fill="#a4c1c3" opacity="0.1"/><ellipse cx="241.1" cy="547.0" rx="0.6" ry="0.9" fill="#a4c1c3" opacity="0.1"/><ellipse cx="331.6" cy="279.8" rx="1.6" ry="1.1" fill="#fff" opacity="0.2"/><ellipse cx="675.4" cy="553.5" rx="0.8" ry="1.1" fill="#fff" opacity="0.2"/><ellipse cx="38.9" cy="291.0" rx="1.8" ry="0.3" fill="#a4c1c3" opacity="0.1"/><ellipse cx="621.0" cy="347.9" rx="0.5" ry="1.0" fill="#a4c1c3" opacity="0.3"/><ellipse cx="215.5" cy="322.5" rx="0.9" ry="0.8" fill="#a4c1c3" opacity="0.2"/><ellipse cx="673.8" cy="441.9" rx="2.1" ry="1.0" fill="#a4c1c3" opacity="0.2"/><ellipse cx="519.0" cy="366.3" rx="1.7" ry="1.3" fill="#a4c1c3" opacity="0.2"/><ellipse cx="381.9" cy="439.7" rx="1.3" ry="0.5" fill="#a4c1c3" opacity="0.3"/><ellipse cx="345.3" cy="545.5" rx="1.7" ry="0.8" fill="#fff" opacity="0.2"/><ellipse cx="734.9" cy="84.7" rx="1.6" ry="1.2" fill="#a4c1c3" opacity="0.1"/><ellipse cx="451.5" cy="159.0" rx="1.8" ry="0.5" fill="#fff" opacity="0.1"/><ellipse cx="29.9" cy="219.1" rx="2.0" ry="0.8" fill="#a4c1c3" opacity="0.3"/><ellipse cx="298.8" cy="292.3" rx="1.0" ry="0.9" fill="#fff" opacity="0.2"/><ellipse cx="650.7" cy="48.7" rx="1.1" ry="0.6" fill="#a4c1c3" opacity="0.1"/><ellipse cx="352.0" cy="458.4" rx="1.9" ry="1.0" fill="#a4c1c3" opacity="0.2"/><ellipse cx="497.6" cy="452.4" rx="2.1" ry="1.3" fill="#fff" opacity="0.2"/><ellipse cx="374.2" cy="286.2" rx="2.1" ry="1.0" fill="#a4c1c3" opacity="0.1"/><ellipse cx="605.4" cy="427.7" rx="1.8" ry="0.6" fill="#a4c1c3" opacity="0.3"/><ellipse cx="152.5" cy="20.6" rx="1.9" ry="0.9" fill="#fff" opacity="0.3"/><ellipse cx="687.3" cy="312.0" rx="0.8" ry="0.3" fill="#a4c1c3" opacity="0.2"/><ellipse cx="494.7" cy="351.0" rx="1.4" ry="0.5" fill="#a4c1c3" opacity="0.1"/><ellipse cx="142.1" cy="372.0" rx="2.2" ry="0.7" fill="#a4c1c3" opacity="0.1"/><ellipse cx="131.1" cy="432.9" rx="1.0" ry="1.2" fill="#a4c1c3" opacity="0.2"/><ellipse cx="662.3" cy="299.6" rx="1.2" ry="1.1" fill="#a4c1c3" opacity="0.2"/><ellipse cx="363.1" cy="319.1" rx="0.9" ry="0.9" fill="#a4c1c3" opacity="0.2"/><ellipse cx="380.2" cy="506.5" rx="0.8" ry="0.3" fill="#fff" opacity="0.2"/><ellipse cx="691.8" cy="365.5" rx="2.0" ry="0.3" fill="#a4c1c3" opacity="0.2"/><ellipse cx="89.7" cy="258.0" rx="1.9" ry="0.3" fill="#fff" opacity="0.1"/><ellipse cx="67.0" cy="527.2" rx="1.6" ry="0.4" fill="#a4c1c3" opacity="0.1"/><ellipse cx="682.2" cy="435.6" rx="1.1" ry="1.0" fill="#a4c1c3" opacity="0.2"/><ellipse cx="193.9" cy="211.3" rx="1.3" ry="1.2" fill="#a4c1c3" opacity="0.3"/><ellipse cx="732.1" cy="270.1" rx="2.1" ry="0.5" fill="#a4c1c3" opacity="0.3"/><ellipse cx="332.8" cy="100.0" rx="1.9" ry="0.4" fill="#a4c1c3" opacity="0.2"/><ellipse cx="171.5" cy="335.6" rx="2.0" ry="0.4" fill="#a4c1c3" opacity="0.2"/><ellipse cx="432.2" cy="312.7" rx="1.2" ry="0.6" fill="#fff" opacity="0.2"/><ellipse cx="190.3" cy="244.7" rx="0.9" ry="0.4" fill="#fff" opacity="0.2"/><ellipse cx="30.7" cy="219.9" rx="0.8" ry="0.8" fill="#a4c1c3" opacity="0.2"/><ellipse cx="99.3" cy="35.2" rx="1.2" ry="0.4" fill="#fff" opacity="0.2"/><ellipse cx="566.2" cy="576.0" rx="1.7" ry="0.8" fill="#a4c1c3" opacity="0.1"/><ellipse cx="95.1" cy="590.5" rx="1.2" ry="0.7" fill="#a4c1c3" opacity="0.3"/><ellipse cx="529.5" cy="386.2" rx="1.1" ry="1.0" fill="#fff" opacity="0.2"/><ellipse cx="661.7" cy="382.4" rx="2.1" ry="0.4" fill="#a4c1c3" opacity="0.2"/><ellipse cx="300.1" cy="273.4" rx="1.8" ry="0.4" fill="#a4c1c3" opacity="0.3"/><ellipse cx="749.5" cy="377.8" rx="1.7" ry="1.2" fill="#fff" opacity="0.2"/><ellipse cx="101.2" cy="260.3" rx="1.0" ry="0.6" fill="#a4c1c3" opacity="0.2"/><ellipse cx="266.7" cy="300.4" rx="1.2" ry="0.7" fill="#fff" opacity="0.2"/><ellipse cx="312.3" cy="432.6" rx="0.9" ry="1.0" fill="#a4c1c3" opacity="0.1"/><ellipse cx="621.4" cy="186.9" rx="1.1" ry="0.3" fill="#fff" opacity="0.1"/><ellipse cx="775.6" cy="499.0" rx="0.6" ry="0.6" fill="#fff" opacity="0.1"/><ellipse cx="452.1" cy="329.5" rx="0.5" ry="1.1" fill="#fff" opacity="0.2"/><ellipse cx="735.1" cy="413.4" rx="0.6" ry="0.3" fill="#a4c1c3" opacity="0.2"/><ellipse cx="684.8" cy="44.5" rx="1.0" ry="0.8" fill="#fff" opacity="0.2"/><ellipse cx="445.0" cy="175.1" rx="1.0" ry="1.1" fill="#a4c1c3" opacity="0.2"/><ellipse cx="452.0" cy="57.7" rx="0.7" ry="0.7" fill="#fff" opacity="0.2"/><ellipse cx="84.6" cy="72.5" rx="2.2" ry="0.4" fill="#fff" opacity="0.2"/><ellipse cx="13.2" cy="247.8" rx="1.6" ry="0.5" fill="#a4c1c3" opacity="0.3"/><ellipse cx="619.0" cy="385.9" rx="0.6" ry="0.5" fill="#fff" opacity="0.1"/><ellipse cx="614.1" cy="237.8" rx="1.4" ry="0.6" fill="#a4c1c3" opacity="0.2"/><ellipse cx="240.1" cy="315.3" rx="1.6" ry="0.7" fill="#fff" opacity="0.2"/><ellipse cx="220.6" cy="275.4" rx="1.0" ry="1.2" fill="#fff" opacity="0.1"/><ellipse cx="229.1" cy="248.5" rx="1.2" ry="0.9" fill="#a4c1c3" opacity="0.2"/><ellipse cx="267.2" cy="592.8" rx="1.1" ry="1.2" fill="#a4c1c3" opacity="0.2"/><ellipse cx="674.0" cy="235.3" rx="1.8" ry="0.7" fill="#a4c1c3" opacity="0.3"/><ellipse cx="354.7" cy="586.5" rx="2.1" ry="0.9" fill="#a4c1c3" opacity="0.1"/><ellipse cx="283.4" cy="283.3" rx="1.2" ry="0.6" fill="#fff" opacity="0.2"/><ellipse cx="438.1" cy="508.3" rx="1.6" ry="0.9" fill="#a4c1c3" opacity="0.2"/><ellipse cx="331.2" cy="441.2" rx="0.7" ry="0.5" fill="#a4c1c3" opacity="0.2"/><ellipse cx="638.4" cy="107.1" rx="1.0" ry="0.9" fill="#a4c1c3" opacity="0.1"/><ellipse cx="171.4" cy="584.7" rx="1.6" ry="1.2" fill="#fff" opacity="0.2"/><ellipse cx="219.0" cy="212.8" rx="1.5" ry="0.8" fill="#fff" opacity="0.2"/><ellipse cx="759.4" cy="571.3" rx="1.5" ry="0.7" fill="#a4c1c3" opacity="0.2"/><ellipse cx="662.3" cy="203.6" rx="1.6" ry="0.3" fill="#fff" opacity="0.1"/><ellipse cx="18.4" cy="379.0" rx="1.4" ry="0.8" fill="#a4c1c3" opacity="0.2"/><ellipse cx="384.5" cy="45.1" rx="1.8" ry="1.2" fill="#fff" opacity="0.1"/><ellipse cx="87.9" cy="595.3" rx="1.5" ry="0.6" fill="#a4c1c3" opacity="0.1"/><ellipse cx="26.7" cy="144.7" rx="0.8" ry="1.2" fill="#a4c1c3" opacity="0.2"/><ellipse cx="290.6" cy="170.6" rx="0.4" ry="1.0" fill="#fff" opacity="0.1"/><ellipse cx="658.8" cy="209.4" rx="1.6" ry="0.9" fill="#a4c1c3" opacity="0.2"/><ellipse cx="258.1" cy="504.0" rx="2.2" ry="0.5" fill="#a4c1c3" opacity="0.2"/><ellipse cx="634.1" cy="249.5" rx="1.3" ry="1.0" fill="#fff" opacity="0.2"/><ellipse cx="249.4" cy="474.7" rx="2.0" ry="0.4" fill="#a4c1c3" opacity="0.1"/><ellipse cx="233.0" cy="417.8" rx="0.9" ry="0.8" fill="#a4c1c3" opacity="0.2"/><ellipse cx="302.8" cy="186.2" rx="2.0" ry="1.3" fill="#fff" opacity="0.2"/><ellipse cx="231.1" cy="124.5" rx="1.9" ry="0.4" fill="#a4c1c3" opacity="0.2"/><ellipse cx="56.3" cy="138.3" rx="1.6" ry="1.1" fill="#fff" opacity="0.1"/><ellipse cx="732.1" cy="20.5" rx="1.6" ry="0.6" fill="#a4c1c3" opacity="0.2"/><ellipse cx="475.8" cy="92.8" rx="1.5" ry="1.1" fill="#a4c1c3" opacity="0.2"/><ellipse cx="400.5" cy="387.0" rx="0.8" ry="1.1" fill="#fff" opacity="0.2"/><ellipse cx="127.5" cy="248.3" rx="2.1" ry="0.9" fill="#fff" opacity="0.1"/><ellipse cx="432.7" cy="423.6" rx="0.9" ry="0.9" fill="#fff" opacity="0.2"/><ellipse cx="432.0" cy="289.5" rx="1.4" ry="0.3" fill="#fff" opacity="0.2"/><ellipse cx="204.0" cy="76.4" rx="1.6" ry="0.7" fill="#fff" opacity="0.2"/><ellipse cx="138.6" cy="427.4" rx="1.2" ry="0.9" fill="#fff" opacity="0.2"/><ellipse cx="529.4" cy="193.7" rx="0.8" ry="0.8" fill="#a4c1c3" opacity="0.2"/><ellipse cx="256.4" cy="295.3" rx="0.9" ry="0.8" fill="#a4c1c3" opacity="0.1"/><ellipse cx="273.9" cy="553.4" rx="0.7" ry="0.6" fill="#fff" opacity="0.2"/><ellipse cx="79.5" cy="116.8" rx="1.4" ry="0.8" fill="#fff" opacity="0.2"/><ellipse cx="252.5" cy="250.6" rx="1.0" ry="0.4" fill="#a4c1c3" opacity="0.1"/><ellipse cx="344.7" cy="310.4" rx="1.2" ry="1.1" fill="#a4c1c3" opacity="0.2"/><ellipse cx="555.2" cy="286.1" rx="1.0" ry="0.5" fill="#a4c1c3" opacity="0.2"/><ellipse cx="158.6" cy="47.6" rx="1.2" ry="1.2" fill="#fff" opacity="0.2"/><ellipse cx="35.3" cy="547.8" rx="1.7" ry="0.8" fill="#a4c1c3" opacity="0.1"/><ellipse cx="132.0" cy="229.8" rx="0.9" ry="0.5" fill="#a4c1c3" opacity="0.1"/><ellipse cx="498.5" cy="323.7" rx="1.0" ry="0.7" fill="#a4c1c3" opacity="0.1"/><ellipse cx="358.1" cy="298.4" rx="1.8" ry="0.7" fill="#fff" opacity="0.1"/><ellipse cx="730.8" cy="239.4" rx="2.0" ry="1.3" fill="#a4c1c3" opacity="0.2"/><ellipse cx="473.5" cy="45.9" rx="1.1" ry="0.4" fill="#fff" opacity="0.2"/><ellipse cx="101.3" cy="58.1" rx="1.7" ry="0.5" fill="#a4c1c3" opacity="0.3"/><ellipse cx="438.2" cy="341.4" rx="1.9" ry="0.8" fill="#a4c1c3" opacity="0.1"/><ellipse cx="479.2" cy="136.0" rx="1.2" ry="0.6" fill="#a4c1c3" opacity="0.2"/><ellipse cx="73.1" cy="437.7" rx="1.1" ry="1.1" fill="#a4c1c3" opacity="0.1"/><ellipse cx="200.8" cy="72.5" rx="1.2" ry="1.3" fill="#a4c1c3" opacity="0.1"/><ellipse cx="391.8" cy="475.2" rx="1.5" ry="0.3" fill="#a4c1c3" opacity="0.2"/><ellipse cx="425.3" cy="246.4" rx="1.1" ry="1.1" fill="#a4c1c3" opacity="0.1"/><ellipse cx="364.2" cy="547.7" rx="2.0" ry="1.2" fill="#a4c1c3" opacity="0.1"/><ellipse cx="415.9" cy="77.9" rx="2.2" ry="0.6" fill="#a4c1c3" opacity="0.2"/><ellipse cx="549.8" cy="446.1" rx="1.5" ry="0.3" fill="#a4c1c3" opacity="0.1"/><ellipse cx="85.0" cy="208.3" rx="1.8" ry="0.7" fill="#a4c1c3" opacity="0.1"/><ellipse cx="438.4" cy="146.4" rx="0.9" ry="0.5" fill="#a4c1c3" opacity="0.2"/><ellipse cx="339.3" cy="336.7" rx="0.9" ry="0.9" fill="#fff" opacity="0.2"/><ellipse cx="534.8" cy="55.8" rx="1.4" ry="1.1" fill="#fff" opacity="0.2"/><ellipse cx="763.4" cy="205.6" rx="1.1" ry="0.4" fill="#fff" opacity="0.3"/><ellipse cx="425.9" cy="184.3" rx="1.9" ry="1.0" fill="#a4c1c3" opacity="0.1"/><ellipse cx="779.7" cy="574.4" rx="0.6" ry="1.1" fill="#a4c1c3" opacity="0.2"/><ellipse cx="266.8" cy="557.0" rx="0.5" ry="0.4" fill="#fff" opacity="0.2"/><ellipse cx="221.1" cy="573.6" rx="1.0" ry="0.9" fill="#a4c1c3" opacity="0.1"/><ellipse cx="524.9" cy="531.4" rx="1.2" ry="1.0" fill="#fff" opacity="0.2"/><ellipse cx="254.3" cy="578.1" rx="2.1" ry="1.1" fill="#a4c1c3" opacity="0.1"/><ellipse cx="617.2" cy="237.4" rx="1.1" ry="0.4" fill="#a4c1c3" opacity="0.2"/><ellipse cx="192.1" cy="91.6" rx="2.0" ry="0.9" fill="#a4c1c3" opacity="0.3"/><ellipse cx="481.1" cy="303.9" rx="0.6" ry="0.3" fill="#fff" opacity="0.3"/><ellipse cx="330.5" cy="82.8" rx="1.7" ry="1.1" fill="#fff" opacity="0.1"/><ellipse cx="513.6" cy="389.3" rx="1.5" ry="0.4" fill="#fff" opacity="0.2"/><ellipse cx="350.4" cy="162.8" rx="0.8" ry="0.4" fill="#a4c1c3" opacity="0.2"/><ellipse cx="317.8" cy="179.0" rx="1.7" ry="0.9" fill="#fff" opacity="0.2"/><ellipse cx="618.5" cy="345.6" rx="1.7" ry="1.2" fill="#a4c1c3" opacity="0.1"/><ellipse cx="94.7" cy="68.7" rx="2.1" ry="0.5" fill="#fff" opacity="0.2"/><ellipse cx="327.7" cy="481.9" rx="1.2" ry="0.4" fill="#a4c1c3" opacity="0.2"/><ellipse cx="715.4" cy="96.6" rx="1.3" ry="1.0" fill="#a4c1c3" opacity="0.2"/><ellipse cx="213.1" cy="206.6" rx="1.2" ry="1.1" fill="#fff" opacity="0.1"/><ellipse cx="314.8" cy="40.7" rx="1.3" ry="0.7" fill="#fff" opacity="0.2"/><ellipse cx="180.4" cy="590.6" rx="0.9" ry="0.7" fill="#fff" opacity="0.2"/><ellipse cx="640.9" cy="148.7" rx="0.5" ry="1.1" fill="#a4c1c3" opacity="0.2"/><ellipse cx="786.3" cy="438.1" rx="1.6" ry="0.6" fill="#a4c1c3" opacity="0.2"/><ellipse cx="598.8" cy="312.5" rx="1.4" ry="0.3" fill="#a4c1c3" opacity="0.2"/><ellipse cx="106.4" cy="119.5" rx="1.1" ry="0.7" fill="#a4c1c3" opacity="0.2"/><ellipse cx="227.8" cy="456.8" rx="0.5" ry="0.8" fill="#a4c1c3" opacity="0.2"/><ellipse cx="129.1" cy="180.6" rx="0.8" ry="1.2" fill="#a4c1c3" opacity="0.3"/><ellipse cx="146.4" cy="254.3" rx="1.1" ry="1.0" fill="#a4c1c3" opacity="0.1"/><ellipse cx="213.0" cy="118.8" rx="0.6" ry="0.6" fill="#a4c1c3" opacity="0.1"/><ellipse cx="105.8" cy="35.7" rx="0.7" ry="0.8" fill="#fff" opacity="0.1"/><ellipse cx="144.2" cy="466.9" rx="1.2" ry="0.8" fill="#a4c1c3" opacity="0.1"/><ellipse cx="487.1" cy="107.6" rx="1.9" ry="0.4" fill="#a4c1c3" opacity="0.2"/><ellipse cx="333.5" cy="75.3" rx="2.1" ry="0.6" fill="#a4c1c3" opacity="0.3"/><ellipse cx="380.5" cy="46.1" rx="2.1" ry="0.7" fill="#a4c1c3" opacity="0.1"/><ellipse cx="487.6" cy="433.0" rx="0.7" ry="0.9" fill="#a4c1c3" opacity="0.2"/><ellipse cx="484.8" cy="280.7" rx="0.7" ry="1.0" fill="#a4c1c3" opacity="0.2"/><ellipse cx="694.7" cy="218.0" rx="1.0" ry="0.9" fill="#fff" opacity="0.2"/><ellipse cx="62.8" cy="33.6" rx="0.7" ry="1.0" fill="#a4c1c3" opacity="0.1"/><ellipse cx="261.0" cy="17.7" rx="1.9" ry="0.6" fill="#a4c1c3" opacity="0.1"/><ellipse cx="592.5" cy="231.9" rx="1.5" ry="1.1" fill="#a4c1c3" opacity="0.2"/><ellipse cx="234.1" cy="110.4" rx="1.2" ry="0.8" fill="#a4c1c3" opacity="0.2"/><ellipse cx="149.1" cy="355.7" rx="0.9" ry="0.6" fill="#fff" opacity="0.1"/><ellipse cx="554.2" cy="148.1" rx="2.2" ry="1.2" fill="#a4c1c3" opacity="0.1"/><ellipse cx="357.2" cy="540.4" rx="1.4" ry="0.7" fill="#a4c1c3" opacity="0.1"/><ellipse cx="566.7" cy="130.7" rx="2.0" ry="0.8" fill="#a4c1c3" opacity="0.2"/><ellipse cx="750.3" cy="596.5" rx="1.1" ry="1.1" fill="#fff" opacity="0.1"/><ellipse cx="637.1" cy="413.9" rx="1.5" ry="0.9" fill="#a4c1c3" opacity="0.1"/><ellipse cx="374.1" cy="364.5" rx="0.8" ry="1.1" fill="#a4c1c3" opacity="0.2"/><ellipse cx="402.8" cy="439.2" rx="1.5" ry="0.6" fill="#fff" opacity="0.2"/><ellipse cx="272.3" cy="568.5" rx="1.5" ry="1.2" fill="#fff" opacity="0.3"/><ellipse cx="601.9" cy="228.7" rx="0.8" ry="1.1" fill="#a4c1c3" opacity="0.1"/><ellipse cx="691.8" cy="486.9" rx="1.8" ry="0.9" fill="#a4c1c3" opacity="0.1"/><ellipse cx="414.6" cy="433.6" rx="0.4" ry="1.1" fill="#fff" opacity="0.2"/><ellipse cx="645.0" cy="302.1" rx="0.4" ry="0.6" fill="#a4c1c3" opacity="0.1"/><ellipse cx="55.3" cy="478.6" rx="2.0" ry="0.5" fill="#a4c1c3" opacity="0.2"/><ellipse cx="466.6" cy="548.5" rx="1.2" ry="0.7" fill="#fff" opacity="0.2"/><ellipse cx="153.7" cy="491.3" rx="1.6" ry="0.5" fill="#a4c1c3" opacity="0.1"/><ellipse cx="202.3" cy="222.2" rx="1.4" ry="1.1" fill="#a4c1c3" opacity="0.2"/><ellipse cx="60.6" cy="258.7" rx="0.9" ry="1.2" fill="#fff" opacity="0.2"/><ellipse cx="467.4" cy="68.5" rx="1.1" ry="0.6" fill="#a4c1c3" opacity="0.1"/><ellipse cx="618.3" cy="599.9" rx="1.5" ry="1.1" fill="#fff" opacity="0.2"/><ellipse cx="611.8" cy="313.3" rx="1.7" ry="0.8" fill="#fff" opacity="0.1"/><ellipse cx="330.2" cy="97.1" rx="1.3" ry="0.3" fill="#a4c1c3" opacity="0.2"/><ellipse cx="430.3" cy="253.3" rx="0.7" ry="0.6" fill="#a4c1c3" opacity="0.1"/><ellipse cx="470.3" cy="74.3" rx="1.1" ry="1.2" fill="#fff" opacity="0.1"/><ellipse cx="654.4" cy="71.2" rx="1.7" ry="0.8" fill="#a4c1c3" opacity="0.2"/><ellipse cx="467.4" cy="265.6" rx="1.5" ry="1.0" fill="#fff" opacity="0.2"/><ellipse cx="63.5" cy="591.4" rx="1.7" ry="0.4" fill="#a4c1c3" opacity="0.2"/><ellipse cx="302.6" cy="162.1" rx="0.9" ry="0.5" fill="#a4c1c3" opacity="0.2"/><ellipse cx="54.0" cy="441.9" rx="1.1" ry="0.8" fill="#a4c1c3" opacity="0.1"/><ellipse cx="458.6" cy="179.5" rx="1.6" ry="1.1" fill="#fff" opacity="0.1"/><ellipse cx="501.7" cy="437.2" rx="2.1" ry="0.8" fill="#a4c1c3" opacity="0.2"/><ellipse cx="556.0" cy="536.2" rx="1.4" ry="0.5" fill="#fff" opacity="0.1"/><ellipse cx="557.2" cy="549.5" rx="0.9" ry="0.5" fill="#a4c1c3" opacity="0.2"/><ellipse cx="416.0" cy="83.0" rx="0.5" ry="0.3" fill="#fff" opacity="0.2"/><ellipse cx="610.7" cy="181.6" rx="1.8" ry="1.1" fill="#a4c1c3" opacity="0.2"/><ellipse cx="286.7" cy="474.5" rx="1.7" ry="0.4" fill="#a4c1c3" opacity="0.2"/><ellipse cx="263.1" cy="9.9" rx="1.9" ry="1.1" fill="#a4c1c3" opacity="0.2"/><ellipse cx="369.2" cy="223.4" rx="1.8" ry="0.5" fill="#a4c1c3" opacity="0.2"/><ellipse cx="142.6" cy="210.0" rx="2.0" ry="0.7" fill="#a4c1c3" opacity="0.2"/><ellipse cx="783.3" cy="527.9" rx="2.2" ry="0.3" fill="#fff" opacity="0.2"/><ellipse cx="402.8" cy="233.2" rx="1.4" ry="0.8" fill="#a4c1c3" opacity="0.3"/><ellipse cx="107.6" cy="512.8" rx="2.0" ry="0.9" fill="#fff" opacity="0.1"/><ellipse cx="140.1" cy="48.0" rx="2.1" ry="0.7" fill="#a4c1c3" opacity="0.1"/><ellipse cx="434.2" cy="475.3" rx="1.6" ry="1.1" fill="#a4c1c3" opacity="0.2"/><ellipse cx="569.0" cy="512.8" rx="1.1" ry="0.4" fill="#fff" opacity="0.2"/><ellipse cx="672.8" cy="76.1" rx="0.6" ry="0.7" fill="#a4c1c3" opacity="0.1"/><ellipse cx="591.1" cy="95.0" rx="0.8" ry="0.9" fill="#fff" opacity="0.2"/><ellipse cx="44.5" cy="165.8" rx="1.7" ry="0.6" fill="#fff" opacity="0.2"/><ellipse cx="796.2" cy="302.7" rx="1.9" ry="0.3" fill="#a4c1c3" opacity="0.2"/><ellipse cx="300.3" cy="288.1" rx="0.6" ry="0.7" fill="#a4c1c3" opacity="0.2"/><ellipse cx="133.7" cy="544.4" rx="1.0" ry="0.8" fill="#a4c1c3" opacity="0.2"/><ellipse cx="203.4" cy="249.5" rx="1.0" ry="1.2" fill="#a4c1c3" opacity="0.2"/><ellipse cx="89.8" cy="481.8" rx="1.7" ry="1.3" fill="#a4c1c3" opacity="0.2"/><ellipse cx="12.1" cy="497.1" rx="1.0" ry="1.1" fill="#a4c1c3" opacity="0.2"/><ellipse cx="210.6" cy="492.2" rx="2.0" ry="1.3" fill="#a4c1c3" opacity="0.1"/><ellipse cx="301.3" cy="394.3" rx="1.0" ry="1.2" fill="#a4c1c3" opacity="0.1"/><ellipse cx="206.1" cy="5.7" rx="0.6" ry="0.9" fill="#fff" opacity="0.2"/><ellipse cx="459.0" cy="235.8" rx="1.4" ry="0.3" fill="#a4c1c3" opacity="0.2"/><ellipse cx="74.2" cy="232.4" rx="0.4" ry="0.6" fill="#a4c1c3" opacity="0.2"/><ellipse cx="797.0" cy="391.4" rx="0.9" ry="0.5" fill="#a4c1c3" opacity="0.2"/><ellipse cx="281.9" cy="546.4" rx="1.2" ry="0.5" fill="#a4c1c3" opacity="0.1"/><ellipse cx="412.1" cy="120.8" rx="1.3" ry="1.2" fill="#a4c1c3" opacity="0.2"/><ellipse cx="240.6" cy="140.4" rx="1.2" ry="0.6" fill="#fff" opacity="0.2"/><ellipse cx="735.0" cy="548.0" rx="2.0" ry="0.8" fill="#a4c1c3" opacity="0.2"/><ellipse cx="714.1" cy="519.0" rx="1.5" ry="0.9" fill="#a4c1c3" opacity="0.1"/><ellipse cx="105.9" cy="238.4" rx="0.4" ry="0.4" fill="#fff" opacity="0.2"/><ellipse cx="795.1" cy="343.6" rx="0.8" ry="0.8" fill="#a4c1c3" opacity="0.1"/><ellipse cx="112.5" cy="166.9" rx="2.1" ry="0.8" fill="#fff" opacity="0.2"/><ellipse cx="289.8" cy="96.6" rx="1.9" ry="0.6" fill="#a4c1c3" opacity="0.2"/><ellipse cx="629.6" cy="218.9" rx="1.1" ry="0.4" fill="#fff" opacity="0.2"/><ellipse cx="146.3" cy="579.7" rx="1.5" ry="0.8" fill="#a4c1c3" opacity="0.1"/><ellipse cx="696.5" cy="114.6" rx="0.9" ry="1.1" fill="#a4c1c3" opacity="0.2"/><ellipse cx="165.4" cy="411.7" rx="1.2" ry="1.1" fill="#a4c1c3" opacity="0.2"/><ellipse cx="170.1" cy="397.3" rx="1.6" ry="0.3" fill="#fff" opacity="0.2"/><ellipse cx="630.9" cy="242.2" rx="0.9" ry="0.9" fill="#a4c1c3" opacity="0.1"/><ellipse cx="491.5" cy="476.0" rx="1.5" ry="1.2" fill="#a4c1c3" opacity="0.1"/><ellipse cx="296.6" cy="546.0" rx="1.3" ry="1.1" fill="#fff" opacity="0.3"/><ellipse cx="703.5" cy="462.9" rx="1.2" ry="0.5" fill="#fff" opacity="0.2"/><ellipse cx="168.6" cy="414.0" rx="0.4" ry="0.9" fill="#fff" opacity="0.2"/><ellipse cx="256.1" cy="497.2" rx="1.3" ry="0.4" fill="#fff" opacity="0.2"/><ellipse cx="318.2" cy="107.2" rx="1.6" ry="0.9" fill="#a4c1c3" opacity="0.3"/><ellipse cx="337.8" cy="394.8" rx="0.4" ry="0.3" fill="#a4c1c3" opacity="0.1"/><ellipse cx="366.5" cy="87.7" rx="0.8" ry="0.4" fill="#a4c1c3" opacity="0.1"/><ellipse cx="470.5" cy="215.4" rx="1.6" ry="1.3" fill="#a4c1c3" opacity="0.2"/><ellipse cx="73.6" cy="193.7" rx="0.5" ry="0.4" fill="#a4c1c3" opacity="0.1"/><ellipse cx="104.8" cy="86.6" rx="0.9" ry="1.0" fill="#a4c1c3" opacity="0.2"/><ellipse cx="674.1" cy="373.8" rx="1.9" ry="0.6" fill="#a4c1c3" opacity="0.2"/><ellipse cx="753.7" cy="176.8" rx="1.7" ry="0.8" fill="#a4c1c3" opacity="0.2"/><ellipse cx="594.3" cy="346.1" rx="1.2" ry="0.6" fill="#a4c1c3" opacity="0.1"/><ellipse cx="402.3" cy="56.9" rx="0.8" ry="1.2" fill="#fff" opacity="0.2"/><ellipse cx="187.9" cy="496.9" rx="1.4" ry="0.9" fill="#a4c1c3" opacity="0.2"/><ellipse cx="130.4" cy="441.2" rx="1.8" ry="1.1" fill="#a4c1c3" opacity="0.2"/><ellipse cx="730.1" cy="487.0" rx="1.9" ry="0.5" fill="#a4c1c3" opacity="0.3"/><ellipse cx="686.3" cy="248.7" rx="1.7" ry="0.5" fill="#fff" opacity="0.1"/><ellipse cx="705.6" cy="578.3" rx="1.2" ry="0.9" fill="#a4c1c3" opacity="0.2"/><ellipse cx="548.6" cy="74.9" rx="1.1" ry="0.8" fill="#a4c1c3" opacity="0.1"/><ellipse cx="628.4" cy="48.1" rx="0.6" ry="0.8" fill="#a4c1c3" opacity="0.2"/><ellipse cx="13.6" cy="515.4" rx="0.8" ry="0.5" fill="#a4c1c3" opacity="0.2"/><ellipse cx="631.6" cy="407.0" rx="2.0" ry="0.4" fill="#fff" opacity="0.1"/><ellipse cx="46.6" cy="130.8" rx="0.5" ry="1.1" fill="#a4c1c3" opacity="0.2"/><ellipse cx="64.0" cy="284.2" rx="1.5" ry="1.2" fill="#a4c1c3" opacity="0.2"/><ellipse cx="33.2" cy="394.9" rx="1.9" ry="1.1" fill="#a4c1c3" opacity="0.3"/><ellipse cx="531.2" cy="198.0" rx="0.9" ry="1.1" fill="#a4c1c3" opacity="0.2"/><ellipse cx="369.9" cy="515.8" rx="1.4" ry="0.8" fill="#a4c1c3" opacity="0.2"/><ellipse cx="418.8" cy="175.5" rx="1.7" ry="0.5" fill="#fff" opacity="0.2"/><ellipse cx="29.2" cy="570.9" rx="2.0" ry="1.1" fill="#fff" opacity="0.2"/><ellipse cx="335.2" cy="337.8" rx="1.2" ry="1.2" fill="#a4c1c3" opacity="0.2"/><ellipse cx="239.0" cy="346.1" rx="1.0" ry="1.0" fill="#a4c1c3" opacity="0.1"/><ellipse cx="711.4" cy="316.7" rx="0.6" ry="0.9" fill="#a4c1c3" opacity="0.2"/><ellipse cx="12.4" cy="21.2" rx="1.1" ry="1.1" fill="#a4c1c3" opacity="0.1"/><ellipse cx="195.0" cy="117.5" rx="1.0" ry="0.5" fill="#fff" opacity="0.2"/><ellipse cx="666.0" cy="589.5" rx="0.5" ry="0.6" fill="#fff" opacity="0.1"/><ellipse cx="476.9" cy="394.4" rx="2.0" ry="0.6" fill="#fff" opacity="0.2"/><ellipse cx="663.2" cy="254.8" rx="1.1" ry="0.7" fill="#a4c1c3" opacity="0.2"/><ellipse cx="186.9" cy="253.9" rx="0.8" ry="0.8" fill="#fff" opacity="0.2"/><ellipse cx="722.1" cy="595.5" rx="0.9" ry="0.8" fill="#a4c1c3" opacity="0.2"/><ellipse cx="696.6" cy="451.4" rx="0.5" ry="0.6" fill="#a4c1c3" opacity="0.2"/><ellipse cx="123.0" cy="435.4" rx="2.0" ry="1.2" fill="#a4c1c3" opacity="0.1"/><ellipse cx="466.9" cy="197.5" rx="2.1" ry="1.0" fill="#a4c1c3" opacity="0.2"/><ellipse cx="554.8" cy="513.5" rx="1.7" ry="0.4" fill="#fff" opacity="0.2"/><ellipse cx="377.5" cy="538.5" rx="0.6" ry="1.0" fill="#fff" opacity="0.2"/><ellipse cx="437.0" cy="192.5" rx="0.7" ry="1.2" fill="#a4c1c3" opacity="0.2"/><ellipse cx="275.6" cy="428.0" rx="0.7" ry="0.7" fill="#a4c1c3" opacity="0.2"/><ellipse cx="455.0" cy="596.8" rx="1.2" ry="0.5" fill="#fff" opacity="0.2"/><ellipse cx="782.2" cy="554.0" rx="1.1" ry="0.6" fill="#fff" opacity="0.2"/><ellipse cx="446.1" cy="520.4" rx="1.8" ry="1.0" fill="#a4c1c3" opacity="0.1"/><ellipse cx="592.6" cy="137.8" rx="1.2" ry="0.3" fill="#fff" opacity="0.2"/><ellipse cx="774.1" cy="396.0" rx="1.0" ry="0.7" fill="#a4c1c3" opacity="0.2"/><ellipse cx="508.6" cy="270.6" rx="1.9" ry="0.7" fill="#a4c1c3" opacity="0.2"/><ellipse cx="729.1" cy="364.9" rx="0.8" ry="1.0" fill="#a4c1c3" opacity="0.1"/><ellipse cx="41.2" cy="502.5" rx="0.5" ry="0.8" fill="#a4c1c3" opacity="0.2"/><ellipse cx="291.2" cy="239.1" rx="1.9" ry="0.5" fill="#fff" opacity="0.2"/><ellipse cx="619.3" cy="150.3" rx="1.1" ry="1.1" fill="#a4c1c3" opacity="0.2"/><ellipse cx="594.8" cy="296.4" rx="1.7" ry="0.4" fill="#fff" opacity="0.2"/><ellipse cx="43.4" cy="339.4" rx="2.1" ry="0.5" fill="#fff" opacity="0.2"/><ellipse cx="230.7" cy="198.3" rx="0.6" ry="0.6" fill="#fff" opacity="0.2"/><ellipse cx="621.5" cy="545.7" rx="0.4" ry="0.6" fill="#fff" opacity="0.3"/><ellipse cx="724.6" cy="71.8" rx="0.9" ry="0.5" fill="#a4c1c3" opacity="0.2"/><ellipse cx="24.2" cy="352.7" rx="1.2" ry="0.7" fill="#a4c1c3" opacity="0.2"/><ellipse cx="328.8" cy="146.0" rx="1.7" ry="0.7" fill="#fff" opacity="0.2"/><ellipse cx="496.9" cy="489.8" rx="0.6" ry="1.1" fill="#fff" opacity="0.2"/><ellipse cx="264.3" cy="283.2" rx="1.5" ry="1.1" fill="#a4c1c3" opacity="0.2"/><ellipse cx="266.6" cy="367.3" rx="1.8" ry="1.0" fill="#fff" opacity="0.2"/><ellipse cx="551.3" cy="296.8" rx="1.7" ry="1.1" fill="#a4c1c3" opacity="0.2"/><ellipse cx="780.8" cy="273.1" rx="1.7" ry="0.3" fill="#a4c1c3" opacity="0.2"/><ellipse cx="366.2" cy="294.1" rx="0.5" ry="0.9" fill="#a4c1c3" opacity="0.2"/><ellipse cx="415.9" cy="348.9" rx="1.9" ry="1.3" fill="#a4c1c3" opacity="0.1"/><ellipse cx="460.5" cy="437.7" rx="2.1" ry="0.8" fill="#a4c1c3" opacity="0.1"/><ellipse cx="692.5" cy="7.7" rx="0.6" ry="0.4" fill="#a4c1c3" opacity="0.1"/><ellipse cx="581.7" cy="263.2" rx="1.9" ry="1.1" fill="#fff" opacity="0.1"/><ellipse cx="35.1" cy="412.7" rx="1.2" ry="1.0" fill="#a4c1c3" opacity="0.2"/><ellipse cx="232.1" cy="245.9" rx="1.6" ry="0.8" fill="#fff" opacity="0.1"/><ellipse cx="714.4" cy="179.4" rx="2.0" ry="0.4" fill="#a4c1c3" opacity="0.2"/><ellipse cx="103.2" cy="56.0" rx="0.9" ry="1.1" fill="#a4c1c3" opacity="0.2"/><ellipse cx="408.6" cy="418.9" rx="1.8" ry="0.8" fill="#a4c1c3" opacity="0.2"/><ellipse cx="123.2" cy="93.5" rx="0.8" ry="0.5" fill="#a4c1c3" opacity="0.2"/><ellipse cx="21.9" cy="587.2" rx="0.6" ry="0.8" fill="#a4c1c3" opacity="0.2"/><ellipse cx="656.3" cy="443.3" rx="1.5" ry="0.9" fill="#a4c1c3" opacity="0.2"/><ellipse cx="397.7" cy="355.8" rx="0.9" ry="0.9" fill="#fff" opacity="0.2"/><ellipse cx="788.7" cy="540.5" rx="0.6" ry="1.1" fill="#a4c1c3" opacity="0.2"/><ellipse cx="763.3" cy="70.2" rx="0.6" ry="1.1" fill="#a4c1c3" opacity="0.3"/><ellipse cx="642.1" cy="587.9" rx="2.2" ry="0.4" fill="#a4c1c3" opacity="0.2"/><ellipse cx="745.0" cy="310.8" rx="1.2" ry="1.0" fill="#a4c1c3" opacity="0.2"/><ellipse cx="448.8" cy="514.5" rx="0.8" ry="1.2" fill="#fff" opacity="0.2"/><ellipse cx="789.2" cy="22.3" rx="2.0" ry="0.3" fill="#fff" opacity="0.1"/><ellipse cx="529.3" cy="217.9" rx="2.2" ry="1.2" fill="#a4c1c3" opacity="0.2"/><ellipse cx="29.0" cy="28.2" rx="2.1" ry="1.2" fill="#a4c1c3" opacity="0.1"/><ellipse cx="106.3" cy="178.6" rx="1.1" ry="0.7" fill="#a4c1c3" opacity="0.1"/><ellipse cx="432.2" cy="293.7" rx="0.6" ry="1.3" fill="#a4c1c3" opacity="0.2"/><ellipse cx="296.4" cy="488.7" rx="1.8" ry="1.0" fill="#fff" opacity="0.1"/><ellipse cx="668.9" cy="455.3" rx="0.9" ry="0.9" fill="#a4c1c3" opacity="0.1"/><ellipse cx="13.5" cy="86.0" rx="1.7" ry="0.5" fill="#a4c1c3" opacity="0.2"/><ellipse cx="136.7" cy="80.6" rx="1.6" ry="1.2" fill="#fff" opacity="0.2"/><ellipse cx="124.0" cy="531.2" rx="0.5" ry="1.3" fill="#a4c1c3" opacity="0.1"/><ellipse cx="179.3" cy="75.3" rx="0.9" ry="1.1" fill="#fff" opacity="0.1"/><ellipse cx="189.6" cy="223.2" rx="0.6" ry="1.1" fill="#fff" opacity="0.2"/><ellipse cx="138.5" cy="202.1" rx="1.5" ry="0.4" fill="#a4c1c3" opacity="0.2"/><ellipse cx="336.7" cy="488.6" rx="2.0" ry="1.1" fill="#fff" opacity="0.2"/><ellipse cx="474.8" cy="428.1" rx="1.6" ry="0.5" fill="#a4c1c3" opacity="0.2"/><ellipse cx="187.9" cy="139.7" rx="2.0" ry="1.0" fill="#a4c1c3" opacity="0.2"/><ellipse cx="594.9" cy="164.9" rx="2.1" ry="0.8" fill="#a4c1c3" opacity="0.3"/><ellipse cx="595.6" cy="239.7" rx="0.8" ry="1.2" fill="#a4c1c3" opacity="0.1"/><ellipse cx="24.7" cy="418.7" rx="2.0" ry="0.5" fill="#a4c1c3" opacity="0.2"/><rect width="800" height="600" fill="url(#light)"/></svg>
