<svg xmlns="http://www.w3.org/2000/svg" width="800" height="600" viewBox="0 0 800 600"><defs><linearGradient id="base" x2="1" y2="1"><stop stop-color="#8b4730"/><stop offset="1" stop-color="#4d261e"/></linearGradient><linearGradient id="light" x2=".7" y2="1"><stop stop-color="#fff" stop-opacity=".16"/><stop offset=".5" stop-color="#fff" stop-opacity="0"/><stop offset="1" stop-color="#000" stop-opacity=".07"/></linearGradient></defs><rect width="800" height="600" fill="#8b4730"/><path d="M-20 -30 C23.1 130 -63.1 290 -2.8 630" fill="none" stroke="#4d261e" stroke-opacity="0.3" stroke-width="1.6"/><path d="M-7 -30 C-18.9 130 4.9 290 -11.8 630" fill="none" stroke="#4d261e" stroke-opacity="0.2" stroke-width="2.2"/><path d="M6 -30 C-40.5 130 52.5 290 -12.6 630" fill="none" stroke="#4d261e" stroke-opacity="0.2" stroke-width="2.5"/><path d="M19 -30 C-27.9 130 65.9 290 0.2 630" fill="none" stroke="#4d261e" stroke-opacity="0.1" stroke-width="2.6"/><path d="M32 -30 C-3.8 130 67.8 290 17.7 630" fill="none" stroke="#4d261e" stroke-opacity="0.1" stroke-width="2.6"/><path d="M45 -30 C25.7 130 64.3 290 37.3 630" fill="none" stroke="#4d261e" stroke-opacity="0.2" stroke-width="2.4"/><path d="M58 -30 C92.3 130 23.7 290 71.7 630" fill="none" stroke="#4d261e" stroke-opacity="0.3" stroke-width="2.2"/><path d="M71 -30 C40.9 130 101.1 290 59.0 630" fill="none" stroke="#4d261e" stroke-opacity="0.1" stroke-width="1.7"/><path d="M84 -30 C68.6 130 99.4 290 77.9 630" fill="none" stroke="#4d261e" stroke-opacity="0.1" stroke-width="1.3"/><path d="M97 -30 C68.9 130 125.1 290 85.8 630" fill="none" stroke="#4d261e" stroke-opacity="0.3" stroke-width="0.7"/><path d="M110 -30 C95.4 130 124.6 290 104.2 630" fill="none" stroke="#4d261e" stroke-opacity="0.2" stroke-width="2.6"/><path d="M123 -30 C90.5 130 155.5 290 110.0 630" fill="none" stroke="#4d261e" stroke-opacity="0.2" stroke-width="0.8"/><path d="M136 -30 C129.4 130 142.6 290 133.4 630" fill="none" stroke="#4d261e" stroke-opacity="0.3" stroke-width="1.0"/><path d="M149 -30 C150.7 130 147.3 290 149.7 630" fill="none" stroke="#4d261e" stroke-opacity="0.2" stroke-width="0.8"/><path d="M162 -30 C197.9 130 126.1 290 176.4 630" fill="none" stroke="#4d261e" stroke-opacity="0.2" stroke-width="2.8"/><path d="M175 -30 C186.8 130 163.2 290 179.7 630" fill="none" stroke="#4d261e" stroke-opacity="0.3" stroke-width="1.8"/><path d="M188 -30 C142.9 130 233.1 290 170.0 630" fill="none" stroke="#4d261e" stroke-opacity="0.2" stroke-width="1.7"/><path d="M201 -30 C234.0 130 168.0 290 214.2 630" fill="none" stroke="#4d261e" stroke-opacity="0.3" stroke-width="1.4"/><path d="M214 -30 C183.6 130 244.4 290 201.9 630" fill="none" stroke="#4d261e" stroke-opacity="0.3" stroke-width="0.9"/><path d="M227 -30 C266.4 130 187.6 290 242.8 630" fill="none" stroke="#4d261e" stroke-opacity="0.2" stroke-width="0.6"/><path d="M240 -30 C252.7 130 227.3 290 245.1 630" fill="none" stroke="#4d261e" stroke-opacity="0.2" stroke-width="2.0"/><path d="M253 -30 C226.0 130 280.0 290 242.2 630" fill="none" stroke="#4d261e" stroke-opacity="0.2" stroke-width="1.8"/><path d="M266 -30 C312.1 130 219.9 290 284.4 630" fill="none" stroke="#4d261e" stroke-opacity="0.2" stroke-width="0.6"/><path d="M279 -30 C318.9 130 239.1 290 294.9 630" fill="none" stroke="#4d261e" stroke-opacity="0.1" stroke-width="2.4"/><path d="M292 -30 C258.7 130 325.3 290 278.7 630" fill="none" stroke="#4d261e" stroke-opacity="0.1" stroke-width="2.1"/><path d="M305 -30 C261.0 130 349.0 290 287.4 630" fill="none" stroke="#4d261e" stroke-opacity="0.2" stroke-width="0.6"/><path d="M318 -30 C299.0 130 337.0 290 310.4 630" fill="none" stroke="#4d261e" stroke-opacity="0.2" stroke-width="0.6"/><path d="M331 -30 C367.9 130 294.1 290 345.8 630" fill="none" stroke="#4d261e" stroke-opacity="0.2" stroke-width="0.8"/><path d="M344 -30 C331.7 130 356.3 290 339.1 630" fill="none" stroke="#4d261e" stroke-opacity="0.2" stroke-width="2.8"/><path d="M357 -30 C371.5 130 342.5 290 362.8 630" fill="none" stroke="#4d261e" stroke-opacity="0.1" stroke-width="1.7"/><path d="M370 -30 C414.1 130 325.9 290 387.6 630" fill="none" stroke="#4d261e" stroke-opacity="0.3" stroke-width="2.5"/><path d="M383 -30 C385.6 130 380.4 290 384.1 630" fill="none" stroke="#4d261e" stroke-opacity="0.2" stroke-width="1.2"/><path d="M396 -30 C386.9 130 405.1 290 392.4 630" fill="none" stroke="#4d261e" stroke-opacity="0.2" stroke-width="1.8"/><path d="M409 -30 C406.0 130 412.0 290 407.8 630" fill="none" stroke="#4d261e" stroke-opacity="0.2" stroke-width="2.1"/><path d="M422 -30 C420.3 130 423.7 290 421.3 630" fill="none" stroke="#4d261e" stroke-opacity="0.3" stroke-width="1.4"/><path d="M435 -30 C393.6 130 476.4 290 418.4 630" fill="none" stroke="#4d261e" stroke-opacity="0.2" stroke-width="2.4"/><path d="M448 -30 C405.8 130 490.2 290 431.1 630" fill="none" stroke="#4d261e" stroke-opacity="0.2" stroke-width="2.3"/><path d="M461 -30 C508.3 130 413.7 290 479.9 630" fill="none" stroke="#4d261e" stroke-opacity="0.1" stroke-width="2.5"/><path d="M474 -30 C462.2 130 485.8 290 469.3 630" fill="none" stroke="#4d261e" stroke-opacity="0.3" stroke-width="2.7"/><path d="M487 -30 C458.9 130 515.1 290 475.8 630" fill="none" stroke="#4d261e" stroke-opacity="0.3" stroke-width="0.5"/><path d="M500 -30 C506.3 130 493.7 290 502.5 630" fill="none" stroke="#4d261e" stroke-opacity="0.1" stroke-width="1.9"/><path d="M513 -30 C497.5 130 528.5 290 506.8 630" fill="none" stroke="#4d261e" stroke-opacity="0.3" stroke-width="1.7"/><path d="M526 -30 C528.3 130 523.7 290 526.9 630" fill="none" stroke="#4d261e" stroke-opacity="0.3" stroke-width="1.6"/><path d="M539 -30 C506.6 130 571.4 290 526.1 630" fill="none" stroke="#4d261e" stroke-opacity="0.3" stroke-width="2.5"/><path d="M552 -30 C533.9 130 570.1 290 544.8 630" fill="none" stroke="#4d261e" stroke-opacity="0.2" stroke-width="1.0"/><path d="M565 -30 C603.1 130 526.9 290 580.3 630" fill="none" stroke="#4d261e" stroke-opacity="0.2" stroke-width="2.3"/><path d="M578 -30 C553.9 130 602.1 290 568.4 630" fill="none" stroke="#4d261e" stroke-opacity="0.3" stroke-width="1.9"/><path d="M591 -30 C557.5 130 624.5 290 577.6 630" fill="none" stroke="#4d261e" stroke-opacity="0.3" stroke-width="2.5"/><path d="M604 -30 C585.9 130 622.1 290 596.8 630" fill="none" stroke="#4d261e" stroke-opacity="0.1" stroke-width="1.6"/><path d="M617 -30 C610.9 130 623.1 290 614.6 630" fill="none" stroke="#4d261e" stroke-opacity="0.3" stroke-width="1.6"/><path d="M630 -30 C590.7 130 669.3 290 614.3 630" fill="none" stroke="#4d261e" stroke-opacity="0.2" stroke-width="1.9"/><path d="M643 -30 C601.3 130 684.7 290 626.3 630" fill="none" stroke="#4d261e" stroke-opacity="0.2" stroke-width="2.3"/><path d="M656 -30 C673.2 130 638.8 290 662.9 630" fill="none" stroke="#4d261e" stroke-opacity="0.1" stroke-width="2.8"/><path d="M669 -30 C680.7 130 657.3 290 673.7 630" fill="none" stroke="#4d261e" stroke-opacity="0.3" stroke-width="2.4"/><path d="M682 -30 C687.9 130 676.1 290 684.4 630" fill="none" stroke="#4d261e" stroke-opacity="0.1" stroke-width="2.7"/><path d="M695 -30 C667.3 130 722.7 290 683.9 630" fill="none" stroke="#4d261e" stroke-opacity="0.2" stroke-width="2.0"/><path d="M708 -30 C694.2 130 721.8 290 702.5 630" fill="none" stroke="#4d261e" stroke-opacity="0.1" stroke-width="2.0"/><path d="M721 -30 C751.3 130 690.7 290 733.1 630" fill="none" stroke="#4d261e" stroke-opacity="0.3" stroke-width="0.6"/><path d="M734 -30 C718.9 130 749.1 290 728.0 630" fill="none" stroke="#4d261e" stroke-opacity="0.1" stroke-width="1.3"/><path d="M747 -30 C728.8 130 765.2 290 739.7 630" fill="none" stroke="#4d261e" stroke-opacity="0.2" stroke-width="2.4"/><path d="M760 -30 C779.1 130 740.9 290 767.6 630" fill="none" stroke="#4d261e" stroke-opacity="0.2" stroke-width="1.9"/><path d="M773 -30 C794.2 130 751.8 290 781.5 630" fill="none" stroke="#4d261e" stroke-opacity="0.2" stroke-width="0.9"/><path d="M786 -30 C794.0 130 778.0 290 789.2 630" fill="none" stroke="#4d261e" stroke-opacity="0.3" stroke-width="1.1"/><path d="M799 -30 C766.6 130 831.4 290 786.0 630" fill="none" stroke="#4d261e" stroke-opacity="0.1" stroke-width="1.2"/><path d="M812 -30 C851.1 130 772.9 290 827.6 630" fill="none" stroke="#4d261e" stroke-opacity="0.1" stroke-width="1.8"/><path d="M219.7 210.8 C234.1 221.3 227.7 234.8 219.7 240.8 C211.7 231.8 207.7 219.8 219.7 210.8" fill="none" stroke="#4d261e" stroke-opacity="0.14" stroke-width="1.4"/><path d="M219.7 190.8 C246.7 215.3 234.7 246.8 219.7 260.8 C204.7 239.8 197.2 211.8 219.7 190.8" fill="none" stroke="#4d261e" stroke-opacity="0.14" stroke-width="1.4"/><path d="M219.7 170.8 C259.3 209.3 241.7 258.8 219.7 280.8 C197.7 247.8 186.7 203.8 219.7 170.8" fill="none" stroke="#4d261e" stroke-opacity="0.14" stroke-width="1.4"/><path d="M219.7 150.8 C271.9 203.3 248.7 270.8 219.7 300.8 C190.7 255.8 176.2 195.8 219.7 150.8" fill="none" stroke="#4d261e" stroke-opacity="0.14" stroke-width="1.4"/><path d="M219.7 130.8 C284.5 197.3 255.7 282.8 219.7 320.8 C183.7 263.8 165.7 187.8 219.7 130.8" fill="none" stroke="#4d261e" stroke-opacity="0.14" stroke-width="1.4"/><path d="M219.7 110.8 C297.1 191.3 262.7 294.8 219.7 340.8 C176.7 271.8 155.2 179.8 219.7 110.8" fill="none" stroke="#4d261e" stroke-opacity="0.14" stroke-width="1.4"/><path d="M219.7 90.8 C309.7 185.3 269.7 306.8 219.7 360.8 C169.7 279.8 144.7 171.8 219.7 90.8" fill="none" stroke="#4d261e" stroke-opacity="0.14" stroke-width="1.4"/><path d="M219.7 70.8 C322.3 179.3 276.7 318.8 219.7 380.8 C162.7 287.8 134.2 163.8 219.7 70.8" fill="none" stroke="#4d261e" stroke-opacity="0.14" stroke-width="1.4"/><path d="M219.7 50.8 C334.9 173.3 283.7 330.8 219.7 400.8 C155.7 295.8 123.7 155.8 219.7 50.8" fill="none" stroke="#4d261e" stroke-opacity="0.14" stroke-width="1.4"/><path d="M219.7 30.8 C347.5 167.3 290.7 342.8 219.7 420.8 C148.7 303.8 113.2 147.8 219.7 30.8" fill="none" stroke="#4d261e" stroke-opacity="0.14" stroke-width="1.4"/><path d="M219.7 10.8 C360.1 161.3 297.7 354.8 219.7 440.8 C141.7 311.8 102.7 139.8 219.7 10.8" fill="none" stroke="#4d261e" stroke-opacity="0.14" stroke-width="1.4"/><path d="M219.7 -9.2 C372.7 155.3 304.7 366.8 219.7 460.8 C134.7 319.8 92.2 131.8 219.7 -9.2" fill="none" stroke="#4d261e" stroke-opacity="0.14" stroke-width="1.4"/><path d="M219.7 -29.2 C385.3 149.3 311.7 378.8 219.7 480.8 C127.7 327.8 81.7 123.8 219.7 -29.2" fill="none" stroke="#4d261e" stroke-opacity="0.14" stroke-width="1.4"/><path d="M219.7 -49.2 C397.9 143.3 318.7 390.8 219.7 500.8 C120.7 335.8 71.2 115.8 219.7 -49.2" fill="none" stroke="#4d261e" stroke-opacity="0.14" stroke-width="1.4"/><path d="M219.7 -69.2 C410.5 137.3 325.7 402.8 219.7 520.8 C113.7 343.8 60.7 107.8 219.7 -69.2" fill="none" stroke="#4d261e" stroke-opacity="0.14" stroke-width="1.4"/><path d="M219.7 -89.2 C423.1 131.3 332.7 414.8 219.7 540.8 C106.7 351.8 50.2 99.8 219.7 -89.2" fill="none" stroke="#4d261e" stroke-opacity="0.14" stroke-width="1.4"/><rect width="800" height="600" fill="url(#light)"/></svg>
