<svg xmlns="http://www.w3.org/2000/svg" width="800" height="600" viewBox="0 0 800 600"><defs><linearGradient id="base" x2="1" y2="1"><stop stop-color="#d0dcdf"/><stop offset="1" stop-color="#69828e"/></linearGradient><linearGradient id="light" x2=".7" y2="1"><stop stop-color="#fff" stop-opacity=".16"/><stop offset=".5" stop-color="#fff" stop-opacity="0"/><stop offset="1" stop-color="#000" stop-opacity=".07"/></linearGradient><linearGradient id="metal" x1="0" y1="0" x2="1" y2=".55"><stop stop-color="#69828e"/><stop offset=".35" stop-color="#d0dcdf"/><stop offset=".57" stop-color="#d0dcdf"/><stop offset="1" stop-color="#69828e"/></linearGradient></defs><rect width="800" height="600" fill="url(#metal)"/><path d="M-84.8 271.6h645.1" fill="none" stroke="#69828e" stroke-opacity="0.1" stroke-width="0.6"/><path d="M-91.1 572.2h816.6" fill="none" stroke="#69828e" stroke-opacity="0.1" stroke-width="0.5"/><path d="M-59.5 79.9h736.0" fill="none" stroke="#fff" stroke-opacity="0.1" stroke-width="0.7"/><path d="M-33.8 263.4h729.9" fill="none" stroke="#fff" stroke-opacity="0.1" stroke-width="0.9"/><path d="M-19.9 215.3h521.9" fill="none" stroke="#fff" stroke-opacity="0.0" stroke-width="0.7"/><path d="M-86.2 513.4h694.5" fill="none" stroke="#fff" stroke-opacity="0.1" stroke-width="0.6"/><path d="M-31.1 449.1h588.8" fill="none" stroke="#fff" stroke-opacity="0.1" stroke-width="0.6"/><path d="M-52.9 418.0h673.3" fill="none" stroke="#fff" stroke-opacity="0.0" stroke-width="0.9"/><path d="M-26.3 445.5h891.6" fill="none" stroke="#69828e" stroke-opacity="0.1" stroke-width="0.9"/><path d="M-97.0 146.7h771.8" fill="none" stroke="#69828e" stroke-opacity="0.0" stroke-width="0.9"/><path d="M-90.9 188.6h700.3" fill="none" stroke="#69828e" stroke-opacity="0.1" stroke-width="0.7"/><path d="M-2.7 514.2h634.1" fill="none" stroke="#fff" stroke-opacity="0.0" stroke-width="0.5"/><path d="M-7.7 496.9h782.5" fill="none" stroke="#fff" stroke-opacity="0.0" stroke-width="0.4"/><path d="M-41.9 403.7h760.8" fill="none" stroke="#69828e" stroke-opacity="0.1" stroke-width="0.8"/><path d="M-44.7 540.6h716.1" fill="none" stroke="#fff" stroke-opacity="0.1" stroke-width="0.8"/><path d="M-67.3 432.8h689.9" fill="none" stroke="#69828e" stroke-opacity="0.0" stroke-width="0.4"/><path d="M-45.6 227.5h725.8" fill="none" stroke="#69828e" stroke-opacity="0.1" stroke-width="0.9"/><path d="M-26.4 400.4h687.1" fill="none" stroke="#fff" stroke-opacity="0.0" stroke-width="0.3"/><path d="M-53.6 473.1h737.4" fill="none" stroke="#69828e" stroke-opacity="0.0" stroke-width="0.7"/><path d="M-66.6 408.9h887.4" fill="none" stroke="#fff" stroke-opacity="0.1" stroke-width="0.3"/><path d="M-78.1 520.6h642.9" fill="none" stroke="#69828e" stroke-opacity="0.1" stroke-width="0.5"/><path d="M-76.9 98.5h732.6" fill="none" stroke="#fff" stroke-opacity="0.1" stroke-width="0.3"/><path d="M-85.3 25.8h671.1" fill="none" stroke="#69828e" stroke-opacity="0.1" stroke-width="0.3"/><path d="M-87.0 186.8h848.1" fill="none" stroke="#fff" stroke-opacity="0.1" stroke-width="0.4"/><path d="M-72.8 574.1h856.8" fill="none" stroke="#69828e" stroke-opacity="0.1" stroke-width="0.8"/><path d="M-18.0 454.0h803.2" fill="none" stroke="#69828e" stroke-opacity="0.0" stroke-width="0.7"/><path d="M-58.5 243.0h703.1" fill="none" stroke="#69828e" stroke-opacity="0.1" stroke-width="1.0"/><path d="M-56.1 462.5h698.1" fill="none" stroke="#69828e" stroke-opacity="0.1" stroke-width="0.8"/><path d="M-93.6 177.7h628.9" fill="none" stroke="#69828e" stroke-opacity="0.1" stroke-width="0.4"/><path d="M-94.1 454.1h621.9" fill="none" stroke="#fff" stroke-opacity="0.0" stroke-width="0.8"/><path d="M-81.5 294.5h898.1" fill="none" stroke="#69828e" stroke-opacity="0.1" stroke-width="0.6"/><path d="M-60.6 13.7h524.3" fill="none" stroke="#fff" stroke-opacity="0.1" stroke-width="0.5"/><path d="M-60.7 377.3h620.8" fill="none" stroke="#fff" stroke-opacity="0.1" stroke-width="0.7"/><path d="M-33.9 40.5h746.8" fill="none" stroke="#fff" stroke-opacity="0.1" stroke-width="0.5"/><path d="M-84.4 183.9h723.7" fill="none" stroke="#fff" stroke-opacity="0.1" stroke-width="0.6"/><path d="M-8.2 517.7h754.4" fill="none" stroke="#69828e" stroke-opacity="0.1" stroke-width="0.7"/><path d="M-5.0 126.7h880.8" fill="none" stroke="#fff" stroke-opacity="0.1" stroke-width="0.8"/><path d="M-60.0 520.9h514.2" fill="none" stroke="#fff" stroke-opacity="0.1" stroke-width="0.6"/><path d="M-45.3 44.1h899.6" fill="none" stroke="#fff" stroke-opacity="0.1" stroke-width="0.7"/><path d="M-33.5 456.1h662.6" fill="none" stroke="#69828e" stroke-opacity="0.1" stroke-width="0.6"/><path d="M-15.8 327.5h756.0" fill="none" stroke="#fff" stroke-opacity="0.0" stroke-width="0.7"/><path d="M-40.7 67.7h506.2" fill="none" stroke="#69828e" stroke-opacity="0.1" stroke-width="0.4"/><path d="M-9.4 220.6h771.7" fill="none" stroke="#69828e" stroke-opacity="0.1" stroke-width="0.9"/><path d="M-47.1 307.6h599.7" fill="none" stroke="#69828e" stroke-opacity="0.0" stroke-width="0.3"/><path d="M-82.4 255.6h728.4" fill="none" stroke="#fff" stroke-opacity="0.1" stroke-width="0.9"/><path d="M-86.7 504.8h744.1" fill="none" stroke="#69828e" stroke-opacity="0.1" stroke-width="0.8"/><path d="M-3.4 342.2h811.3" fill="none" stroke="#69828e" stroke-opacity="0.1" stroke-width="0.4"/><path d="M-29.0 428.2h749.3" fill="none" stroke="#69828e" stroke-opacity="0.1" stroke-width="0.3"/><path d="M-29.7 175.8h577.3" fill="none" stroke="#fff" stroke-opacity="0.1" stroke-width="0.3"/><path d="M-90.9 180.8h605.9" fill="none" stroke="#fff" stroke-opacity="0.1" stroke-width="0.6"/><path d="M-41.9 379.2h639.8" fill="none" stroke="#69828e" stroke-opacity="0.1" stroke-width="0.8"/><path d="M-65.6 18.4h807.5" fill="none" stroke="#fff" stroke-opacity="0.0" stroke-width="0.8"/><path d="M-46.7 544.2h665.7" fill="none" stroke="#fff" stroke-opacity="0.1" stroke-width="0.4"/><path d="M-12.5 530.7h869.8" fill="none" stroke="#69828e" stroke-opacity="0.1" stroke-width="0.8"/><path d="M-28.8 89.0h577.1" fill="none" stroke="#69828e" stroke-opacity="0.1" stroke-width="0.6"/><path d="M-29.9 178.5h588.7" fill="none" stroke="#69828e" stroke-opacity="0.1" stroke-width="0.5"/><path d="M-10.3 196.7h751.9" fill="none" stroke="#69828e" stroke-opacity="0.1" stroke-width="0.6"/><path d="M-4.1 524.7h681.6" fill="none" stroke="#69828e" stroke-opacity="0.1" stroke-width="0.8"/><path d="M-51.8 449.6h716.7" fill="none" stroke="#69828e" stroke-opacity="0.1" stroke-width="0.9"/><path d="M-6.4 251.5h756.1" fill="none" stroke="#69828e" stroke-opacity="0.1" stroke-width="0.6"/><path d="M-0.7 126.9h726.5" fill="none" stroke="#69828e" stroke-opacity="0.1" stroke-width="0.6"/><path d="M-83.4 4.3h648.4" fill="none" stroke="#69828e" stroke-opacity="0.1" stroke-width="0.9"/><path d="M-71.3 479.8h724.1" fill="none" stroke="#69828e" stroke-opacity="0.1" stroke-width="0.9"/><path d="M-59.2 52.4h877.3" fill="none" stroke="#fff" stroke-opacity="0.1" stroke-width="0.6"/><path d="M-13.0 250.1h873.7" fill="none" stroke="#69828e" stroke-opacity="0.1" stroke-width="0.3"/><path d="M-48.0 506.6h855.7" fill="none" stroke="#fff" stroke-opacity="0.1" stroke-width="0.6"/><path d="M-2.0 248.1h761.7" fill="none" stroke="#fff" stroke-opacity="0.1" stroke-width="0.6"/><path d="M-43.6 186.4h804.3" fill="none" stroke="#fff" stroke-opacity="0.1" stroke-width="0.9"/><path d="M-60.4 555.3h858.7" fill="none" stroke="#69828e" stroke-opacity="0.0" stroke-width="0.4"/><path d="M-34.4 575.0h610.9" fill="none" stroke="#fff" stroke-opacity="0.0" stroke-width="1.0"/><path d="M-89.4 467.6h737.5" fill="none" stroke="#fff" stroke-opacity="0.1" stroke-width="1.0"/><path d="M-62.1 454.0h579.4" fill="none" stroke="#69828e" stroke-opacity="0.1" stroke-width="1.0"/><path d="M-72.2 44.5h638.7" fill="none" stroke="#69828e" stroke-opacity="0.1" stroke-width="0.7"/><path d="M-20.3 558.6h711.4" fill="none" stroke="#69828e" stroke-opacity="0.0" stroke-width="0.8"/><path d="M-79.4 479.9h679.8" fill="none" stroke="#69828e" stroke-opacity="0.1" stroke-width="0.3"/><path d="M-63.5 543.1h865.6" fill="none" stroke="#69828e" stroke-opacity="0.0" stroke-width="0.5"/><path d="M-86.0 60.1h500.1" fill="none" stroke="#fff" stroke-opacity="0.1" stroke-width="0.5"/><path d="M-71.0 98.1h637.1" fill="none" stroke="#fff" stroke-opacity="0.1" stroke-width="0.8"/><path d="M-81.6 25.3h635.9" fill="none" stroke="#fff" stroke-opacity="0.1" stroke-width="0.8"/><path d="M-86.5 9.5h701.9" fill="none" stroke="#fff" stroke-opacity="0.1" stroke-width="0.6"/><path d="M-32.2 598.9h619.8" fill="none" stroke="#69828e" stroke-opacity="0.1" stroke-width="0.4"/><path d="M-29.3 300.0h668.7" fill="none" stroke="#69828e" stroke-opacity="0.1" stroke-width="0.9"/><path d="M-26.5 1.4h896.8" fill="none" stroke="#69828e" stroke-opacity="0.0" stroke-width="1.0"/><path d="M-46.1 544.3h583.9" fill="none" stroke="#69828e" stroke-opacity="0.0" stroke-width="0.9"/><path d="M-13.8 414.3h552.5" fill="none" stroke="#69828e" stroke-opacity="0.1" stroke-width="0.5"/><path d="M-49.7 397.6h530.6" fill="none" stroke="#fff" stroke-opacity="0.1" stroke-width="0.4"/><path d="M-17.0 408.6h546.0" fill="none" stroke="#69828e" stroke-opacity="0.1" stroke-width="0.6"/><path d="M-64.7 329.1h869.1" fill="none" stroke="#69828e" stroke-opacity="0.0" stroke-width="0.5"/><path d="M-78.6 305.6h641.8" fill="none" stroke="#69828e" stroke-opacity="0.1" stroke-width="0.5"/><path d="M-75.4 300.1h558.8" fill="none" stroke="#fff" stroke-opacity="0.1" stroke-width="0.4"/><path d="M-72.2 283.2h734.1" fill="none" stroke="#69828e" stroke-opacity="0.1" stroke-width="0.8"/><path d="M-46.2 278.3h707.9" fill="none" stroke="#69828e" stroke-opacity="0.1" stroke-width="1.0"/><path d="M-86.6 595.2h557.4" fill="none" stroke="#69828e" stroke-opacity="0.1" stroke-width="0.8"/><path d="M-59.9 28.5h593.8" fill="none" stroke="#fff" stroke-opacity="0.1" stroke-width="0.5"/><path d="M-67.0 218.3h677.7" fill="none" stroke="#fff" stroke-opacity="0.1" stroke-width="0.7"/><path d="M-94.4 569.6h698.1" fill="none" stroke="#fff" stroke-opacity="0.1" stroke-width="0.6"/><path d="M-69.7 592.7h556.5" fill="none" stroke="#69828e" stroke-opacity="0.1" stroke-width="0.7"/><path d="M-32.3 240.2h599.0" fill="none" stroke="#69828e" stroke-opacity="0.1" stroke-width="0.7"/><path d="M-63.4 272.0h783.8" fill="none" stroke="#69828e" stroke-opacity="0.1" stroke-width="0.5"/><path d="M-74.9 61.3h866.5" fill="none" stroke="#fff" stroke-opacity="0.1" stroke-width="0.6"/><path d="M-85.8 47.3h670.7" fill="none" stroke="#69828e" stroke-opacity="0.0" stroke-width="0.7"/><path d="M-5.2 239.3h603.0" fill="none" stroke="#fff" stroke-opacity="0.1" stroke-width="0.5"/><path d="M-36.8 462.8h899.0" fill="none" stroke="#69828e" stroke-opacity="0.1" stroke-width="0.9"/><path d="M-20.4 397.3h773.4" fill="none" stroke="#69828e" stroke-opacity="0.1" stroke-width="0.3"/><path d="M-67.3 186.6h617.7" fill="none" stroke="#69828e" stroke-opacity="0.1" stroke-width="0.5"/><path d="M-28.4 76.6h768.2" fill="none" stroke="#69828e" stroke-opacity="0.1" stroke-width="0.6"/><path d="M-96.0 253.3h883.7" fill="none" stroke="#fff" stroke-opacity="0.1" stroke-width="0.7"/><path d="M-80.6 399.8h543.8" fill="none" stroke="#fff" stroke-opacity="0.1" stroke-width="0.7"/><path d="M-62.0 144.3h837.9" fill="none" stroke="#69828e" stroke-opacity="0.1" stroke-width="0.7"/><path d="M-84.2 134.7h783.3" fill="none" stroke="#fff" stroke-opacity="0.1" stroke-width="0.4"/><path d="M-96.1 20.6h711.3" fill="none" stroke="#69828e" stroke-opacity="0.0" stroke-width="0.4"/><path d="M-15.2 549.7h822.2" fill="none" stroke="#fff" stroke-opacity="0.1" stroke-width="0.3"/><path d="M-68.6 174.2h656.1" fill="none" stroke="#69828e" stroke-opacity="0.0" stroke-width="0.4"/><path d="M-27.9 2.8h581.5" fill="none" stroke="#69828e" stroke-opacity="0.1" stroke-width="0.4"/><path d="M-46.3 314.3h892.5" fill="none" stroke="#69828e" stroke-opacity="0.1" stroke-width="0.6"/><path d="M-30.5 153.5h853.7" fill="none" stroke="#69828e" stroke-opacity="0.1" stroke-width="0.4"/><path d="M-66.3 252.2h768.5" fill="none" stroke="#69828e" stroke-opacity="0.1" stroke-width="0.6"/><path d="M-71.8 237.7h783.6" fill="none" stroke="#fff" stroke-opacity="0.0" stroke-width="0.6"/><path d="M-10.6 102.7h824.2" fill="none" stroke="#69828e" stroke-opacity="0.1" stroke-width="0.5"/><path d="M-60.6 398.9h689.1" fill="none" stroke="#fff" stroke-opacity="0.1" stroke-width="0.9"/><path d="M-37.0 65.9h854.3" fill="none" stroke="#fff" stroke-opacity="0.0" stroke-width="1.0"/><path d="M-12.1 412.4h865.4" fill="none" stroke="#69828e" stroke-opacity="0.1" stroke-width="0.8"/><path d="M-2.3 5.7h664.2" fill="none" stroke="#fff" stroke-opacity="0.0" stroke-width="0.9"/><path d="M-91.5 97.2h715.5" fill="none" stroke="#69828e" stroke-opacity="0.1" stroke-width="0.4"/><path d="M-82.2 391.3h712.1" fill="none" stroke="#69828e" stroke-opacity="0.1" stroke-width="0.6"/><path d="M-0.9 52.7h651.6" fill="none" stroke="#69828e" stroke-opacity="0.1" stroke-width="0.6"/><path d="M-73.2 315.5h730.3" fill="none" stroke="#69828e" stroke-opacity="0.0" stroke-width="0.4"/><path d="M-29.2 313.4h511.5" fill="none" stroke="#fff" stroke-opacity="0.1" stroke-width="0.4"/><path d="M-33.4 457.6h521.9" fill="none" stroke="#69828e" stroke-opacity="0.1" stroke-width="0.5"/><path d="M-60.6 60.9h732.7" fill="none" stroke="#fff" stroke-opacity="0.0" stroke-width="0.7"/><path d="M-94.9 404.9h824.0" fill="none" stroke="#69828e" stroke-opacity="0.0" stroke-width="0.4"/><path d="M-11.8 483.8h628.3" fill="none" stroke="#69828e" stroke-opacity="0.1" stroke-width="0.5"/><path d="M-56.0 299.0h632.1" fill="none" stroke="#fff" stroke-opacity="0.1" stroke-width="0.7"/><path d="M-43.3 427.3h608.9" fill="none" stroke="#69828e" stroke-opacity="0.1" stroke-width="0.9"/><path d="M-35.6 122.9h680.5" fill="none" stroke="#fff" stroke-opacity="0.1" stroke-width="0.8"/><path d="M-65.1 421.1h894.3" fill="none" stroke="#fff" stroke-opacity="0.1" stroke-width="0.8"/><path d="M-47.5 293.8h870.6" fill="none" stroke="#69828e" stroke-opacity="0.1" stroke-width="0.5"/><path d="M-32.6 228.8h557.5" fill="none" stroke="#fff" stroke-opacity="0.0" stroke-width="0.6"/><path d="M-29.0 177.9h742.4" fill="none" stroke="#69828e" stroke-opacity="0.1" stroke-width="0.4"/><path d="M-2.0 406.8h846.4" fill="none" stroke="#fff" stroke-opacity="0.1" stroke-width="0.3"/><path d="M-28.7 292.0h581.9" fill="none" stroke="#69828e" stroke-opacity="0.1" stroke-width="0.4"/><path d="M-90.9 515.4h825.9" fill="none" stroke="#69828e" stroke-opacity="0.1" stroke-width="0.8"/><path d="M-38.8 308.6h859.0" fill="none" stroke="#69828e" stroke-opacity="0.0" stroke-width="0.5"/><path d="M-65.5 571.5h684.8" fill="none" stroke="#fff" stroke-opacity="0.0" stroke-width="0.9"/><path d="M-29.2 129.3h588.8" fill="none" stroke="#69828e" stroke-opacity="0.1" stroke-width="0.4"/><path d="M-48.2 483.9h550.1" fill="none" stroke="#69828e" stroke-opacity="0.1" stroke-width="0.7"/><path d="M-14.9 42.2h510.8" fill="none" stroke="#fff" stroke-opacity="0.1" stroke-width="0.6"/><path d="M-16.2 162.3h754.1" fill="none" stroke="#69828e" stroke-opacity="0.1" stroke-width="0.9"/><path d="M-66.6 329.3h679.0" fill="none" stroke="#69828e" stroke-opacity="0.1" stroke-width="0.8"/><path d="M-37.1 139.4h796.9" fill="none" stroke="#fff" stroke-opacity="0.0" stroke-width="0.7"/><path d="M-45.2 239.5h558.1" fill="none" stroke="#fff" stroke-opacity="0.1" stroke-width="0.9"/><path d="M-62.0 298.2h748.2" fill="none" stroke="#fff" stroke-opacity="0.1" stroke-width="1.0"/><path d="M-19.5 592.5h617.0" fill="none" stroke="#69828e" stroke-opacity="0.1" stroke-width="0.4"/><path d="M-69.5 443.9h532.5" fill="none" stroke="#69828e" stroke-opacity="0.1" stroke-width="0.8"/><path d="M-99.6 29.1h516.2" fill="none" stroke="#69828e" stroke-opacity="0.1" stroke-width="0.6"/><path d="M-33.5 12.1h641.1" fill="none" stroke="#fff" stroke-opacity="0.1" stroke-width="1.0"/><path d="M-93.5 274.0h680.6" fill="none" stroke="#fff" stroke-opacity="0.1" stroke-width="1.0"/><path d="M-58.2 352.7h715.0" fill="none" stroke="#69828e" stroke-opacity="0.0" stroke-width="0.4"/><path d="M-69.2 527.2h553.4" fill="none" stroke="#fff" stroke-opacity="0.1" stroke-width="0.9"/><path d="M-1.6 581.5h542.1" fill="none" stroke="#69828e" stroke-opacity="0.1" stroke-width="0.8"/><path d="M-82.1 247.4h522.7" fill="none" stroke="#69828e" stroke-opacity="0.1" stroke-width="0.8"/><path d="M-82.0 338.5h512.6" fill="none" stroke="#69828e" stroke-opacity="0.1" stroke-width="1.0"/><path d="M-97.9 346.3h616.3" fill="none" stroke="#69828e" stroke-opacity="0.1" stroke-width="0.7"/><path d="M-39.3 145.7h676.6" fill="none" stroke="#69828e" stroke-opacity="0.0" stroke-width="0.7"/><path d="M-20.7 156.7h758.1" fill="none" stroke="#69828e" stroke-opacity="0.1" stroke-width="0.8"/><path d="M-94.3 402.4h846.9" fill="none" stroke="#fff" stroke-opacity="0.1" stroke-width="0.8"/><path d="M-8.8 290.9h678.5" fill="none" stroke="#fff" stroke-opacity="0.0" stroke-width="0.5"/><path d="M-28.0 211.0h691.5" fill="none" stroke="#fff" stroke-opacity="0.1" stroke-width="0.5"/><path d="M-34.5 56.1h875.2" fill="none" stroke="#69828e" stroke-opacity="0.1" stroke-width="0.8"/><path d="M-75.8 372.6h860.0" fill="none" stroke="#fff" stroke-opacity="0.1" stroke-width="0.4"/><path d="M-23.7 440.5h514.8" fill="none" stroke="#69828e" stroke-opacity="0.1" stroke-width="0.9"/><path d="M-6.2 43.2h685.5" fill="none" stroke="#69828e" stroke-opacity="0.1" stroke-width="0.9"/><path d="M-79.6 437.0h672.5" fill="none" stroke="#69828e" stroke-opacity="0.1" stroke-width="1.0"/><path d="M-30.6 91.3h508.4" fill="none" stroke="#fff" stroke-opacity="0.1" stroke-width="0.4"/><path d="M-76.6 420.2h600.5" fill="none" stroke="#69828e" stroke-opacity="0.1" stroke-width="0.6"/><path d="M-63.1 547.8h764.4" fill="none" stroke="#fff" stroke-opacity="0.0" stroke-width="0.5"/><path d="M-79.2 41.8h820.8" fill="none" stroke="#fff" stroke-opacity="0.0" stroke-width="0.3"/><path d="M-26.7 88.1h880.4" fill="none" stroke="#69828e" stroke-opacity="0.1" stroke-width="0.6"/><path d="M-21.2 459.5h535.7" fill="none" stroke="#69828e" stroke-opacity="0.0" stroke-width="0.6"/><path d="M-75.5 237.6h722.3" fill="none" stroke="#69828e" stroke-opacity="0.1" stroke-width="0.4"/><path d="M-51.9 466.7h549.3" fill="none" stroke="#69828e" stroke-opacity="0.1" stroke-width="0.6"/><path d="M-79.0 341.2h639.1" fill="none" stroke="#69828e" stroke-opacity="0.1" stroke-width="0.7"/><path d="M-31.5 237.2h594.4" fill="none" stroke="#69828e" stroke-opacity="0.0" stroke-width="0.8"/><path d="M-88.1 87.4h646.1" fill="none" stroke="#69828e" stroke-opacity="0.1" stroke-width="0.5"/><path d="M-35.1 150.6h857.8" fill="none" stroke="#fff" stroke-opacity="0.1" stroke-width="0.3"/><path d="M-100 600L360 0h95L-5 600Z" fill="#fff" opacity=".2"/><rect width="800" height="600" fill="url(#light)"/></svg>
