<svg xmlns="http://www.w3.org/2000/svg" width="800" height="600" viewBox="0 0 800 600"><defs><linearGradient id="base" x2="1" y2="1"><stop stop-color="#9e4740"/><stop offset="1" stop-color="#682c2b"/></linearGradient><linearGradient id="light" x2=".7" y2="1"><stop stop-color="#fff" stop-opacity=".16"/><stop offset=".5" stop-color="#fff" stop-opacity="0"/><stop offset="1" stop-color="#000" stop-opacity=".07"/></linearGradient><linearGradient id="metal" x1="0" y1="0" x2="1" y2=".55"><stop stop-color="#682c2b"/><stop offset=".35" stop-color="#9e4740"/><stop offset=".57" stop-color="#9e4740"/><stop offset="1" stop-color="#682c2b"/></linearGradient></defs><rect width="800" height="600" fill="url(#metal)"/><ellipse cx="434.5" cy="4.4" rx="1.0" ry="1.1" fill="#682c2b" opacity="0.1"/><ellipse cx="434.2" cy="342.1" rx="1.7" ry="1.1" fill="#682c2b" opacity="0.1"/><ellipse cx="266.3" cy="228.2" rx="2.1" ry="0.4" fill="#682c2b" opacity="0.2"/><ellipse cx="579.7" cy="467.1" rx="1.2" ry="0.7" fill="#682c2b" opacity="0.2"/><ellipse cx="263.8" cy="391.4" rx="0.8" ry="0.5" fill="#682c2b" opacity="0.1"/><ellipse cx="134.7" cy="50.3" rx="1.0" ry="0.8" fill="#fff" opacity="0.2"/><ellipse cx="529.0" cy="302.9" rx="2.1" ry="1.3" fill="#682c2b" opacity="0.1"/><ellipse cx="345.1" cy="133.5" rx="1.5" ry="0.8" fill="#fff" opacity="0.3"/><ellipse cx="425.3" cy="72.7" rx="0.5" ry="1.0" fill="#682c2b" opacity="0.2"/><ellipse cx="64.3" cy="382.4" rx="0.8" ry="1.0" fill="#682c2b" opacity="0.1"/><ellipse cx="720.1" cy="322.0" rx="0.7" ry="0.8" fill="#fff" opacity="0.2"/><ellipse cx="132.5" cy="551.2" rx="0.7" ry="1.1" fill="#682c2b" opacity="0.2"/><ellipse cx="284.5" cy="25.1" rx="1.9" ry="0.5" fill="#682c2b" opacity="0.1"/><ellipse cx="406.0" cy="192.3" rx="1.4" ry="0.3" fill="#682c2b" opacity="0.2"/><ellipse cx="787.7" cy="596.5" rx="1.4" ry="0.6" fill="#fff" opacity="0.2"/><ellipse cx="175.9" cy="501.4" rx="0.7" ry="0.6" fill="#682c2b" opacity="0.2"/><ellipse cx="223.3" cy="392.2" rx="1.3" ry="0.8" fill="#682c2b" opacity="0.2"/><ellipse cx="111.7" cy="339.7" rx="1.3" ry="0.6" fill="#682c2b" opacity="0.2"/><ellipse cx="305.1" cy="537.5" rx="0.8" ry="0.9" fill="#682c2b" opacity="0.1"/><ellipse cx="68.5" cy="222.1" rx="1.4" ry="0.8" fill="#fff" opacity="0.2"/><ellipse cx="169.9" cy="548.9" rx="1.6" ry="0.8" fill="#fff" opacity="0.2"/><ellipse cx="95.0" cy="14.0" rx="1.2" ry="0.3" fill="#682c2b" opacity="0.2"/><ellipse cx="225.2" cy="165.1" rx="0.9" ry="1.1" fill="#fff" opacity="0.1"/><ellipse cx="179.6" cy="225.6" rx="2.0" ry="0.7" fill="#682c2b" opacity="0.2"/><ellipse cx="178.2" cy="552.8" rx="2.2" ry="0.7" fill="#682c2b" opacity="0.2"/><ellipse cx="72.8" cy="145.5" rx="0.4" ry="0.5" fill="#682c2b" opacity="0.3"/><ellipse cx="285.3" cy="3.4" rx="1.0" ry="1.1" fill="#fff" opacity="0.1"/><ellipse cx="722.0" cy="3.7" rx="1.8" ry="1.1" fill="#682c2b" opacity="0.2"/><ellipse cx="657.7" cy="384.5" rx="1.3" ry="0.3" fill="#682c2b" opacity="0.3"/><ellipse cx="257.8" cy="104.5" rx="1.2" ry="0.9" fill="#682c2b" opacity="0.2"/><ellipse cx="62.1" cy="564.5" rx="1.6" ry="1.2" fill="#682c2b" opacity="0.2"/><ellipse cx="68.8" cy="220.3" rx="0.6" ry="0.8" fill="#682c2b" opacity="0.2"/><ellipse cx="653.1" cy="573.7" rx="1.5" ry="1.1" fill="#682c2b" opacity="0.2"/><ellipse cx="700.8" cy="287.2" rx="1.7" ry="0.6" fill="#682c2b" opacity="0.2"/><ellipse cx="475.7" cy="218.5" rx="1.6" ry="1.0" fill="#fff" opacity="0.1"/><ellipse cx="321.2" cy="591.5" rx="0.7" ry="1.2" fill="#682c2b" opacity="0.2"/><ellipse cx="573.9" cy="14.2" rx="0.9" ry="1.3" fill="#682c2b" opacity="0.2"/><ellipse cx="682.6" cy="390.1" rx="0.7" ry="0.6" fill="#682c2b" opacity="0.2"/><ellipse cx="144.9" cy="452.1" rx="0.4" ry="0.8" fill="#682c2b" opacity="0.2"/><ellipse cx="125.4" cy="53.0" rx="1.2" ry="0.9" fill="#fff" opacity="0.2"/><ellipse cx="574.3" cy="565.8" rx="0.4" ry="1.1" fill="#fff" opacity="0.1"/><ellipse cx="556.3" cy="570.7" rx="1.1" ry="1.1" fill="#682c2b" opacity="0.2"/><ellipse cx="191.6" cy="514.2" rx="1.7" ry="1.1" fill="#682c2b" opacity="0.3"/><ellipse cx="339.5" cy="415.3" rx="1.4" ry="0.5" fill="#682c2b" opacity="0.2"/><ellipse cx="182.6" cy="443.7" rx="1.6" ry="1.2" fill="#fff" opacity="0.2"/><ellipse cx="439.5" cy="97.0" rx="1.2" ry="0.8" fill="#fff" opacity="0.2"/><ellipse cx="695.7" cy="49.0" rx="2.1" ry="0.5" fill="#fff" opacity="0.3"/><ellipse cx="151.1" cy="306.4" rx="0.6" ry="1.3" fill="#fff" opacity="0.1"/><ellipse cx="781.3" cy="395.1" rx="0.5" ry="0.9" fill="#682c2b" opacity="0.2"/><ellipse cx="556.5" cy="83.1" rx="1.5" ry="0.6" fill="#fff" opacity="0.2"/><ellipse cx="799.5" cy="117.0" rx="1.1" ry="1.1" fill="#682c2b" opacity="0.1"/><ellipse cx="444.4" cy="401.5" rx="0.7" ry="0.4" fill="#682c2b" opacity="0.2"/><ellipse cx="536.3" cy="464.2" rx="0.5" ry="1.2" fill="#682c2b" opacity="0.2"/><ellipse cx="30.6" cy="113.7" rx="1.6" ry="0.9" fill="#682c2b" opacity="0.2"/><ellipse cx="62.6" cy="202.9" rx="0.8" ry="1.0" fill="#682c2b" opacity="0.3"/><ellipse cx="17.1" cy="141.2" rx="2.1" ry="0.4" fill="#fff" opacity="0.2"/><ellipse cx="177.0" cy="544.0" rx="1.1" ry="1.2" fill="#682c2b" opacity="0.2"/><ellipse cx="526.0" cy="155.0" rx="0.6" ry="0.7" fill="#fff" opacity="0.2"/><ellipse cx="266.5" cy="211.3" rx="1.2" ry="1.2" fill="#682c2b" opacity="0.1"/><ellipse cx="648.0" cy="335.8" rx="0.9" ry="1.0" fill="#fff" opacity="0.2"/><ellipse cx="425.7" cy="515.4" rx="2.0" ry="0.4" fill="#682c2b" opacity="0.1"/><ellipse cx="340.2" cy="553.6" rx="0.5" ry="1.2" fill="#682c2b" opacity="0.2"/><ellipse cx="469.3" cy="250.1" rx="0.8" ry="0.6" fill="#682c2b" opacity="0.2"/><ellipse cx="213.9" cy="258.5" rx="1.7" ry="0.9" fill="#682c2b" opacity="0.2"/><ellipse cx="677.6" cy="574.8" rx="0.9" ry="0.7" fill="#fff" opacity="0.2"/><ellipse cx="546.3" cy="122.9" rx="2.2" ry="1.2" fill="#fff" opacity="0.2"/><ellipse cx="510.5" cy="1.1" rx="0.8" ry="0.9" fill="#682c2b" opacity="0.2"/><ellipse cx="257.0" cy="25.3" rx="2.2" ry="0.6" fill="#682c2b" opacity="0.2"/><ellipse cx="530.0" cy="547.7" rx="1.4" ry="1.2" fill="#fff" opacity="0.2"/><ellipse cx="784.6" cy="117.1" rx="1.5" ry="0.9" fill="#682c2b" opacity="0.2"/><ellipse cx="165.4" cy="78.4" rx="2.1" ry="0.9" fill="#682c2b" opacity="0.2"/><ellipse cx="1.8" cy="462.5" rx="0.7" ry="0.6" fill="#682c2b" opacity="0.1"/><ellipse cx="162.4" cy="591.5" rx="0.7" ry="0.5" fill="#682c2b" opacity="0.2"/><ellipse cx="705.7" cy="292.2" rx="1.7" ry="0.8" fill="#fff" opacity="0.1"/><ellipse cx="350.2" cy="573.6" rx="1.1" ry="1.0" fill="#fff" opacity="0.1"/><ellipse cx="22.6" cy="461.7" rx="1.3" ry="0.9" fill="#682c2b" opacity="0.1"/><ellipse cx="366.3" cy="284.5" rx="0.6" ry="1.2" fill="#682c2b" opacity="0.2"/><ellipse cx="662.0" cy="254.8" rx="1.0" ry="0.8" fill="#682c2b" opacity="0.1"/><ellipse cx="776.2" cy="389.5" rx="1.2" ry="0.6" fill="#682c2b" opacity="0.2"/><ellipse cx="360.5" cy="222.6" rx="1.1" ry="1.0" fill="#fff" opacity="0.3"/><ellipse cx="624.3" cy="302.9" rx="1.3" ry="0.4" fill="#682c2b" opacity="0.2"/><ellipse cx="50.0" cy="98.9" rx="1.3" ry="0.7" fill="#fff" opacity="0.3"/><ellipse cx="455.0" cy="360.6" rx="1.4" ry="0.5" fill="#682c2b" opacity="0.2"/><ellipse cx="290.6" cy="183.0" rx="1.3" ry="0.7" fill="#fff" opacity="0.2"/><ellipse cx="40.4" cy="85.2" rx="1.8" ry="1.0" fill="#fff" opacity="0.2"/><ellipse cx="502.7" cy="329.3" rx="1.5" ry="0.6" fill="#682c2b" opacity="0.3"/><ellipse cx="252.8" cy="561.3" rx="1.4" ry="0.6" fill="#fff" opacity="0.1"/><ellipse cx="539.2" cy="436.3" rx="1.9" ry="1.0" fill="#682c2b" opacity="0.2"/><ellipse cx="319.2" cy="484.5" rx="1.0" ry="0.9" fill="#682c2b" opacity="0.2"/><ellipse cx="331.7" cy="473.0" rx="1.1" ry="0.3" fill="#682c2b" opacity="0.2"/><ellipse cx="295.2" cy="201.8" rx="0.5" ry="0.6" fill="#682c2b" opacity="0.1"/><ellipse cx="751.2" cy="36.5" rx="0.5" ry="1.2" fill="#fff" opacity="0.1"/><ellipse cx="396.1" cy="7.4" rx="1.8" ry="1.0" fill="#682c2b" opacity="0.2"/><ellipse cx="219.1" cy="578.2" rx="0.9" ry="0.6" fill="#682c2b" opacity="0.1"/><ellipse cx="222.1" cy="110.8" rx="1.6" ry="1.0" fill="#fff" opacity="0.1"/><ellipse cx="206.8" cy="391.3" rx="1.5" ry="0.9" fill="#682c2b" opacity="0.2"/><ellipse cx="316.4" cy="241.5" rx="2.1" ry="0.7" fill="#682c2b" opacity="0.1"/><ellipse cx="160.3" cy="200.3" rx="1.4" ry="0.6" fill="#682c2b" opacity="0.2"/><ellipse cx="691.9" cy="6.9" rx="1.3" ry="0.4" fill="#682c2b" opacity="0.2"/><ellipse cx="189.2" cy="141.4" rx="0.6" ry="0.5" fill="#682c2b" opacity="0.1"/><ellipse cx="765.5" cy="69.4" rx="0.4" ry="1.0" fill="#fff" opacity="0.1"/><ellipse cx="455.6" cy="276.2" rx="1.9" ry="0.7" fill="#682c2b" opacity="0.2"/><ellipse cx="536.8" cy="156.3" rx="1.1" ry="1.0" fill="#fff" opacity="0.2"/><ellipse cx="1.5" cy="128.6" rx="1.6" ry="0.3" fill="#682c2b" opacity="0.2"/><ellipse cx="648.4" cy="270.9" rx="1.6" ry="1.1" fill="#682c2b" opacity="0.2"/><ellipse cx="352.6" cy="85.2" rx="0.9" ry="0.8" fill="#fff" opacity="0.2"/><ellipse cx="766.8" cy="218.4" rx="1.5" ry="1.1" fill="#682c2b" opacity="0.1"/><ellipse cx="234.0" cy="450.7" rx="1.1" ry="0.7" fill="#682c2b" opacity="0.2"/><ellipse cx="719.2" cy="512.6" rx="1.5" ry="0.3" fill="#682c2b" opacity="0.2"/><ellipse cx="738.5" cy="98.0" rx="1.2" ry="1.3" fill="#682c2b" opacity="0.1"/><ellipse cx="225.2" cy="79.7" rx="0.7" ry="0.6" fill="#682c2b" opacity="0.1"/><ellipse cx="481.3" cy="404.3" rx="2.0" ry="1.3" fill="#682c2b" opacity="0.1"/><ellipse cx="461.1" cy="124.5" rx="1.4" ry="0.8" fill="#682c2b" opacity="0.3"/><ellipse cx="482.1" cy="513.1" rx="1.0" ry="1.2" fill="#682c2b" opacity="0.2"/><ellipse cx="492.6" cy="273.8" rx="1.7" ry="1.1" fill="#682c2b" opacity="0.2"/><ellipse cx="309.5" cy="114.4" rx="1.8" ry="1.1" fill="#fff" opacity="0.2"/><ellipse cx="215.8" cy="264.5" rx="2.1" ry="1.2" fill="#682c2b" opacity="0.2"/><ellipse cx="26.2" cy="280.6" rx="1.3" ry="1.2" fill="#682c2b" opacity="0.2"/><ellipse cx="41.8" cy="189.7" rx="0.4" ry="0.9" fill="#682c2b" opacity="0.2"/><ellipse cx="273.4" cy="252.5" rx="1.1" ry="0.6" fill="#682c2b" opacity="0.2"/><ellipse cx="563.5" cy="270.7" rx="2.2" ry="0.4" fill="#682c2b" opacity="0.1"/><ellipse cx="229.6" cy="213.2" rx="0.7" ry="0.7" fill="#682c2b" opacity="0.2"/><ellipse cx="42.6" cy="68.0" rx="1.8" ry="0.4" fill="#fff" opacity="0.1"/><ellipse cx="583.9" cy="441.4" rx="1.2" ry="0.9" fill="#fff" opacity="0.1"/><ellipse cx="552.4" cy="200.4" rx="1.8" ry="0.6" fill="#682c2b" opacity="0.2"/><ellipse cx="459.4" cy="585.5" rx="1.2" ry="0.8" fill="#fff" opacity="0.3"/><ellipse cx="216.4" cy="183.6" rx="0.8" ry="0.7" fill="#682c2b" opacity="0.2"/><ellipse cx="624.9" cy="547.9" rx="1.7" ry="0.8" fill="#fff" opacity="0.1"/><ellipse cx="378.2" cy="557.6" rx="1.0" ry="0.3" fill="#fff" opacity="0.1"/><ellipse cx="732.9" cy="420.3" rx="1.9" ry="0.9" fill="#fff" opacity="0.3"/><ellipse cx="741.0" cy="216.5" rx="1.5" ry="0.9" fill="#682c2b" opacity="0.1"/><ellipse cx="120.4" cy="62.6" rx="2.2" ry="0.8" fill="#fff" opacity="0.2"/><ellipse cx="514.2" cy="406.8" rx="1.5" ry="0.3" fill="#fff" opacity="0.1"/><ellipse cx="710.3" cy="262.0" rx="0.8" ry="0.7" fill="#fff" opacity="0.1"/><ellipse cx="604.9" cy="10.1" rx="0.6" ry="0.8" fill="#682c2b" opacity="0.2"/><ellipse cx="352.0" cy="367.9" rx="2.0" ry="1.0" fill="#fff" opacity="0.2"/><ellipse cx="490.7" cy="475.4" rx="2.0" ry="0.6" fill="#fff" opacity="0.2"/><ellipse cx="336.6" cy="38.3" rx="1.4" ry="0.8" fill="#682c2b" opacity="0.2"/><ellipse cx="412.7" cy="516.9" rx="2.1" ry="1.3" fill="#fff" opacity="0.2"/><ellipse cx="626.2" cy="292.7" rx="1.6" ry="0.8" fill="#fff" opacity="0.2"/><ellipse cx="524.8" cy="443.1" rx="1.9" ry="0.6" fill="#682c2b" opacity="0.2"/><ellipse cx="533.7" cy="408.8" rx="0.9" ry="0.6" fill="#682c2b" opacity="0.2"/><ellipse cx="38.9" cy="131.8" rx="1.3" ry="0.6" fill="#682c2b" opacity="0.2"/><ellipse cx="390.9" cy="555.4" rx="1.6" ry="0.6" fill="#682c2b" opacity="0.2"/><ellipse cx="400.1" cy="18.6" rx="0.7" ry="0.7" fill="#682c2b" opacity="0.2"/><ellipse cx="742.6" cy="401.7" rx="1.7" ry="1.0" fill="#682c2b" opacity="0.2"/><ellipse cx="733.4" cy="212.3" rx="0.5" ry="1.0" fill="#682c2b" opacity="0.2"/><ellipse cx="603.4" cy="293.5" rx="1.7" ry="1.2" fill="#fff" opacity="0.1"/><ellipse cx="396.2" cy="204.5" rx="1.6" ry="0.3" fill="#682c2b" opacity="0.2"/><ellipse cx="516.0" cy="337.1" rx="1.9" ry="0.9" fill="#fff" opacity="0.1"/><ellipse cx="475.7" cy="587.6" rx="1.4" ry="1.2" fill="#682c2b" opacity="0.3"/><ellipse cx="347.0" cy="81.5" rx="1.9" ry="0.9" fill="#fff" opacity="0.2"/><ellipse cx="268.5" cy="548.8" rx="2.0" ry="0.9" fill="#682c2b" opacity="0.3"/><ellipse cx="359.7" cy="438.9" rx="2.0" ry="0.5" fill="#682c2b" opacity="0.2"/><ellipse cx="179.7" cy="53.3" rx="0.9" ry="1.2" fill="#fff" opacity="0.2"/><ellipse cx="698.6" cy="35.7" rx="0.7" ry="0.3" fill="#682c2b" opacity="0.1"/><ellipse cx="278.3" cy="184.5" rx="1.6" ry="0.9" fill="#fff" opacity="0.1"/><ellipse cx="225.8" cy="532.9" rx="0.6" ry="0.7" fill="#682c2b" opacity="0.1"/><ellipse cx="748.4" cy="55.4" rx="1.4" ry="0.3" fill="#682c2b" opacity="0.1"/><ellipse cx="645.4" cy="207.2" rx="0.9" ry="0.9" fill="#682c2b" opacity="0.1"/><ellipse cx="271.6" cy="256.9" rx="1.6" ry="0.8" fill="#fff" opacity="0.2"/><ellipse cx="453.8" cy="234.0" rx="1.2" ry="0.6" fill="#fff" opacity="0.2"/><ellipse cx="578.8" cy="160.5" rx="1.8" ry="0.3" fill="#fff" opacity="0.2"/><ellipse cx="252.7" cy="261.7" rx="1.1" ry="0.8" fill="#682c2b" opacity="0.2"/><ellipse cx="9.6" cy="537.5" rx="1.9" ry="1.1" fill="#682c2b" opacity="0.2"/><ellipse cx="363.7" cy="219.3" rx="1.1" ry="0.5" fill="#fff" opacity="0.2"/><ellipse cx="716.0" cy="314.3" rx="1.0" ry="1.3" fill="#fff" opacity="0.2"/><ellipse cx="680.6" cy="246.9" rx="0.6" ry="0.7" fill="#682c2b" opacity="0.2"/><ellipse cx="748.0" cy="426.2" rx="1.2" ry="0.5" fill="#682c2b" opacity="0.2"/><ellipse cx="97.7" cy="389.9" rx="0.8" ry="1.1" fill="#fff" opacity="0.2"/><ellipse cx="58.7" cy="287.2" rx="1.1" ry="0.6" fill="#fff" opacity="0.2"/><ellipse cx="251.4" cy="48.1" rx="0.9" ry="1.0" fill="#682c2b" opacity="0.1"/><ellipse cx="66.8" cy="140.8" rx="1.6" ry="0.3" fill="#682c2b" opacity="0.2"/><ellipse cx="112.5" cy="319.5" rx="1.2" ry="0.5" fill="#fff" opacity="0.2"/><ellipse cx="613.3" cy="507.5" rx="0.7" ry="0.8" fill="#fff" opacity="0.2"/><ellipse cx="166.7" cy="530.2" rx="0.5" ry="1.1" fill="#682c2b" opacity="0.1"/><ellipse cx="750.0" cy="294.1" rx="1.2" ry="1.1" fill="#682c2b" opacity="0.2"/><ellipse cx="721.4" cy="190.7" rx="0.8" ry="1.0" fill="#682c2b" opacity="0.1"/><ellipse cx="398.5" cy="81.9" rx="0.4" ry="0.7" fill="#682c2b" opacity="0.2"/><ellipse cx="674.8" cy="368.3" rx="0.6" ry="0.7" fill="#fff" opacity="0.1"/><ellipse cx="115.0" cy="457.8" rx="1.2" ry="0.9" fill="#fff" opacity="0.1"/><ellipse cx="86.7" cy="418.8" rx="1.0" ry="1.1" fill="#fff" opacity="0.1"/><ellipse cx="400.5" cy="404.3" rx="1.2" ry="1.1" fill="#fff" opacity="0.1"/><ellipse cx="487.4" cy="564.8" rx="1.3" ry="0.4" fill="#fff" opacity="0.2"/><ellipse cx="592.8" cy="315.1" rx="1.9" ry="0.7" fill="#682c2b" opacity="0.2"/><ellipse cx="261.8" cy="563.6" rx="1.2" ry="1.3" fill="#fff" opacity="0.2"/><ellipse cx="777.6" cy="550.7" rx="1.5" ry="0.6" fill="#682c2b" opacity="0.2"/><ellipse cx="247.5" cy="454.7" rx="0.6" ry="1.2" fill="#682c2b" opacity="0.1"/><ellipse cx="757.3" cy="399.8" rx="1.3" ry="0.7" fill="#fff" opacity="0.2"/><ellipse cx="483.2" cy="527.4" rx="0.5" ry="0.7" fill="#682c2b" opacity="0.2"/><ellipse cx="714.2" cy="63.0" rx="1.0" ry="0.8" fill="#682c2b" opacity="0.1"/><ellipse cx="445.8" cy="198.5" rx="1.6" ry="0.8" fill="#fff" opacity="0.1"/><ellipse cx="405.1" cy="23.3" rx="0.6" ry="0.8" fill="#fff" opacity="0.1"/><ellipse cx="112.9" cy="442.2" rx="0.7" ry="1.3" fill="#fff" opacity="0.1"/><ellipse cx="326.4" cy="119.6" rx="1.6" ry="0.7" fill="#fff" opacity="0.2"/><ellipse cx="188.6" cy="161.6" rx="1.1" ry="0.8" fill="#fff" opacity="0.2"/><ellipse cx="485.3" cy="189.0" rx="0.7" ry="0.8" fill="#682c2b" opacity="0.2"/><ellipse cx="30.6" cy="442.8" rx="0.9" ry="1.2" fill="#682c2b" opacity="0.2"/><ellipse cx="616.2" cy="93.3" rx="1.0" ry="0.6" fill="#682c2b" opacity="0.2"/><ellipse cx="14.6" cy="182.4" rx="2.0" ry="0.8" fill="#682c2b" opacity="0.2"/><ellipse cx="278.9" cy="94.6" rx="0.8" ry="0.7" fill="#fff" opacity="0.3"/><ellipse cx="75.7" cy="328.6" rx="0.7" ry="1.2" fill="#682c2b" opacity="0.2"/><ellipse cx="676.2" cy="297.5" rx="2.2" ry="0.5" fill="#682c2b" opacity="0.2"/><ellipse cx="762.0" cy="527.2" rx="0.7" ry="0.7" fill="#682c2b" opacity="0.2"/><ellipse cx="628.8" cy="421.0" rx="0.9" ry="1.1" fill="#682c2b" opacity="0.1"/><ellipse cx="539.7" cy="312.2" rx="2.1" ry="0.6" fill="#682c2b" opacity="0.1"/><ellipse cx="144.4" cy="118.8" rx="0.6" ry="0.8" fill="#682c2b" opacity="0.2"/><ellipse cx="86.0" cy="332.8" rx="1.6" ry="0.7" fill="#682c2b" opacity="0.1"/><ellipse cx="419.3" cy="209.7" rx="2.1" ry="0.4" fill="#fff" opacity="0.1"/><ellipse cx="508.3" cy="455.9" rx="2.1" ry="0.5" fill="#682c2b" opacity="0.2"/><ellipse cx="508.9" cy="538.2" rx="0.9" ry="0.9" fill="#fff" opacity="0.2"/><ellipse cx="225.9" cy="136.6" rx="0.7" ry="0.7" fill="#682c2b" opacity="0.1"/><ellipse cx="705.9" cy="526.9" rx="0.4" ry="0.9" fill="#fff" opacity="0.1"/><ellipse cx="253.4" cy="595.3" rx="0.6" ry="0.5" fill="#682c2b" opacity="0.2"/><ellipse cx="462.5" cy="239.2" rx="0.8" ry="0.5" fill="#fff" opacity="0.2"/><ellipse cx="621.9" cy="94.0" rx="0.6" ry="1.1" fill="#fff" opacity="0.1"/><ellipse cx="494.9" cy="515.9" rx="1.7" ry="1.2" fill="#682c2b" opacity="0.2"/><ellipse cx="475.7" cy="150.8" rx="1.9" ry="1.2" fill="#fff" opacity="0.1"/><ellipse cx="507.4" cy="303.3" rx="0.5" ry="0.8" fill="#682c2b" opacity="0.1"/><ellipse cx="182.9" cy="483.9" rx="1.3" ry="0.3" fill="#fff" opacity="0.1"/><ellipse cx="173.1" cy="236.2" rx="1.3" ry="0.4" fill="#fff" opacity="0.2"/><ellipse cx="796.5" cy="226.4" rx="1.1" ry="1.0" fill="#682c2b" opacity="0.2"/><ellipse cx="9.8" cy="93.4" rx="1.6" ry="1.2" fill="#682c2b" opacity="0.2"/><ellipse cx="403.4" cy="300.8" rx="1.7" ry="1.1" fill="#682c2b" opacity="0.2"/><ellipse cx="587.4" cy="90.4" rx="0.9" ry="1.1" fill="#fff" opacity="0.2"/><ellipse cx="700.0" cy="196.0" rx="0.7" ry="0.7" fill="#682c2b" opacity="0.2"/><ellipse cx="305.0" cy="524.4" rx="0.6" ry="0.3" fill="#682c2b" opacity="0.2"/><ellipse cx="530.5" cy="535.1" rx="0.6" ry="0.7" fill="#682c2b" opacity="0.2"/><ellipse cx="174.9" cy="439.0" rx="1.2" ry="0.7" fill="#fff" opacity="0.2"/><ellipse cx="525.8" cy="177.2" rx="2.2" ry="1.1" fill="#682c2b" opacity="0.2"/><ellipse cx="251.5" cy="321.5" rx="1.7" ry="0.4" fill="#fff" opacity="0.2"/><ellipse cx="781.4" cy="140.8" rx="2.2" ry="0.8" fill="#fff" opacity="0.2"/><ellipse cx="541.9" cy="202.0" rx="1.0" ry="0.5" fill="#682c2b" opacity="0.1"/><ellipse cx="110.4" cy="392.8" rx="1.4" ry="0.7" fill="#682c2b" opacity="0.2"/><ellipse cx="236.1" cy="265.8" rx="0.7" ry="0.5" fill="#682c2b" opacity="0.1"/><ellipse cx="10.4" cy="290.3" rx="1.7" ry="0.3" fill="#682c2b" opacity="0.2"/><ellipse cx="494.3" cy="448.7" rx="0.5" ry="0.8" fill="#682c2b" opacity="0.2"/><ellipse cx="680.2" cy="419.2" rx="2.1" ry="1.0" fill="#fff" opacity="0.1"/><ellipse cx="228.5" cy="427.5" rx="1.2" ry="0.3" fill="#fff" opacity="0.2"/><ellipse cx="626.2" cy="117.2" rx="1.1" ry="1.0" fill="#fff" opacity="0.1"/><ellipse cx="116.7" cy="374.2" rx="0.9" ry="0.9" fill="#682c2b" opacity="0.1"/><ellipse cx="393.1" cy="123.5" rx="0.5" ry="0.9" fill="#682c2b" opacity="0.1"/><ellipse cx="685.9" cy="586.8" rx="2.0" ry="0.4" fill="#fff" opacity="0.2"/><ellipse cx="759.0" cy="146.1" rx="0.8" ry="0.6" fill="#682c2b" opacity="0.2"/><ellipse cx="502.6" cy="64.5" rx="1.0" ry="0.5" fill="#fff" opacity="0.2"/><ellipse cx="330.8" cy="486.3" rx="1.1" ry="0.8" fill="#fff" opacity="0.2"/><ellipse cx="707.7" cy="241.8" rx="1.3" ry="0.5" fill="#fff" opacity="0.2"/><ellipse cx="77.8" cy="210.8" rx="1.3" ry="0.4" fill="#682c2b" opacity="0.2"/><ellipse cx="733.5" cy="447.6" rx="2.0" ry="0.3" fill="#682c2b" opacity="0.1"/><ellipse cx="141.2" cy="114.0" rx="1.0" ry="0.7" fill="#682c2b" opacity="0.3"/><ellipse cx="640.2" cy="4.4" rx="0.7" ry="0.9" fill="#682c2b" opacity="0.2"/><ellipse cx="57.3" cy="258.6" rx="1.9" ry="0.9" fill="#682c2b" opacity="0.2"/><ellipse cx="109.2" cy="433.8" rx="0.8" ry="0.4" fill="#682c2b" opacity="0.2"/><ellipse cx="130.4" cy="37.0" rx="1.2" ry="0.4" fill="#682c2b" opacity="0.2"/><ellipse cx="331.4" cy="183.5" rx="2.0" ry="1.1" fill="#682c2b" opacity="0.2"/><ellipse cx="295.5" cy="443.3" rx="1.0" ry="0.9" fill="#682c2b" opacity="0.2"/><ellipse cx="27.1" cy="242.1" rx="0.5" ry="0.9" fill="#fff" opacity="0.1"/><ellipse cx="205.0" cy="596.3" rx="1.8" ry="1.0" fill="#fff" opacity="0.2"/><ellipse cx="235.6" cy="155.7" rx="0.6" ry="0.8" fill="#fff" opacity="0.3"/><ellipse cx="480.6" cy="505.2" rx="0.6" ry="1.2" fill="#fff" opacity="0.2"/><ellipse cx="711.9" cy="114.8" rx="2.0" ry="0.7" fill="#fff" opacity="0.3"/><ellipse cx="464.1" cy="17.2" rx="2.0" ry="0.7" fill="#fff" opacity="0.1"/><ellipse cx="568.0" cy="323.4" rx="1.1" ry="1.2" fill="#682c2b" opacity="0.2"/><ellipse cx="8.2" cy="238.9" rx="1.2" ry="0.6" fill="#682c2b" opacity="0.2"/><ellipse cx="795.7" cy="419.5" rx="0.8" ry="1.1" fill="#682c2b" opacity="0.2"/><ellipse cx="241.8" cy="70.9" rx="1.9" ry="0.4" fill="#682c2b" opacity="0.2"/><ellipse cx="109.6" cy="60.4" rx="1.5" ry="0.6" fill="#682c2b" opacity="0.2"/><ellipse cx="48.9" cy="447.8" rx="1.2" ry="0.7" fill="#682c2b" opacity="0.2"/><ellipse cx="546.9" cy="138.8" rx="1.6" ry="0.4" fill="#fff" opacity="0.3"/><ellipse cx="398.9" cy="222.8" rx="2.1" ry="1.2" fill="#682c2b" opacity="0.2"/><ellipse cx="261.6" cy="45.7" rx="1.5" ry="0.4" fill="#fff" opacity="0.2"/><ellipse cx="64.6" cy="187.5" rx="0.8" ry="0.5" fill="#fff" opacity="0.2"/><ellipse cx="750.8" cy="346.5" rx="1.2" ry="0.3" fill="#682c2b" opacity="0.1"/><ellipse cx="65.7" cy="69.3" rx="0.5" ry="1.0" fill="#682c2b" opacity="0.2"/><ellipse cx="750.4" cy="583.4" rx="2.1" ry="0.5" fill="#682c2b" opacity="0.2"/><ellipse cx="776.6" cy="494.9" rx="2.0" ry="0.8" fill="#fff" opacity="0.2"/><ellipse cx="438.5" cy="72.9" rx="1.6" ry="0.9" fill="#682c2b" opacity="0.2"/><ellipse cx="633.8" cy="461.6" rx="1.5" ry="1.3" fill="#fff" opacity="0.2"/><ellipse cx="582.1" cy="111.5" rx="1.1" ry="0.4" fill="#682c2b" opacity="0.1"/><ellipse cx="782.5" cy="206.8" rx="1.9" ry="0.5" fill="#fff" opacity="0.2"/><ellipse cx="667.1" cy="156.4" rx="2.0" ry="1.0" fill="#682c2b" opacity="0.1"/><ellipse cx="198.3" cy="316.7" rx="1.3" ry="1.1" fill="#fff" opacity="0.2"/><ellipse cx="247.1" cy="497.1" rx="1.6" ry="0.4" fill="#682c2b" opacity="0.2"/><ellipse cx="422.9" cy="64.1" rx="1.6" ry="1.2" fill="#682c2b" opacity="0.2"/><ellipse cx="749.2" cy="82.6" rx="1.2" ry="1.2" fill="#fff" opacity="0.2"/><ellipse cx="50.0" cy="516.5" rx="1.9" ry="0.9" fill="#682c2b" opacity="0.3"/><ellipse cx="375.0" cy="520.3" rx="1.3" ry="1.0" fill="#682c2b" opacity="0.2"/><ellipse cx="99.4" cy="104.9" rx="1.7" ry="0.6" fill="#fff" opacity="0.2"/><ellipse cx="532.7" cy="412.1" rx="1.1" ry="0.6" fill="#682c2b" opacity="0.2"/><ellipse cx="17.7" cy="494.1" rx="1.5" ry="0.6" fill="#fff" opacity="0.2"/><ellipse cx="39.3" cy="344.1" rx="0.6" ry="0.8" fill="#fff" opacity="0.3"/><ellipse cx="241.3" cy="544.6" rx="0.6" ry="0.6" fill="#682c2b" opacity="0.2"/><ellipse cx="730.1" cy="594.0" rx="1.7" ry="0.7" fill="#682c2b" opacity="0.2"/><ellipse cx="260.5" cy="107.7" rx="1.6" ry="0.7" fill="#682c2b" opacity="0.3"/><ellipse cx="311.9" cy="173.2" rx="1.3" ry="1.0" fill="#682c2b" opacity="0.2"/><ellipse cx="522.6" cy="143.1" rx="1.4" ry="0.3" fill="#682c2b" opacity="0.1"/><ellipse cx="498.8" cy="568.6" rx="1.2" ry="0.4" fill="#fff" opacity="0.1"/><ellipse cx="709.5" cy="201.4" rx="1.5" ry="0.7" fill="#682c2b" opacity="0.2"/><ellipse cx="267.7" cy="299.5" rx="0.7" ry="0.7" fill="#fff" opacity="0.1"/><ellipse cx="729.7" cy="460.1" rx="0.6" ry="0.7" fill="#fff" opacity="0.2"/><ellipse cx="270.3" cy="156.4" rx="0.5" ry="1.3" fill="#fff" opacity="0.2"/><ellipse cx="560.5" cy="55.0" rx="1.5" ry="0.6" fill="#fff" opacity="0.2"/><ellipse cx="639.8" cy="135.2" rx="1.0" ry="0.4" fill="#682c2b" opacity="0.1"/><ellipse cx="78.5" cy="397.8" rx="1.3" ry="1.2" fill="#682c2b" opacity="0.3"/><ellipse cx="230.1" cy="435.3" rx="1.5" ry="0.8" fill="#682c2b" opacity="0.1"/><ellipse cx="216.0" cy="119.4" rx="1.7" ry="0.7" fill="#682c2b" opacity="0.2"/><ellipse cx="723.6" cy="433.7" rx="2.2" ry="0.5" fill="#682c2b" opacity="0.1"/><ellipse cx="581.0" cy="230.7" rx="0.4" ry="0.3" fill="#682c2b" opacity="0.2"/><ellipse cx="47.3" cy="504.9" rx="1.2" ry="0.9" fill="#682c2b" opacity="0.1"/><ellipse cx="77.3" cy="440.8" rx="1.5" ry="1.3" fill="#682c2b" opacity="0.1"/><ellipse cx="531.9" cy="297.6" rx="0.5" ry="0.7" fill="#682c2b" opacity="0.2"/><ellipse cx="63.3" cy="123.4" rx="1.4" ry="0.4" fill="#fff" opacity="0.1"/><ellipse cx="654.4" cy="438.5" rx="1.0" ry="0.6" fill="#682c2b" opacity="0.1"/><ellipse cx="186.7" cy="172.2" rx="0.7" ry="1.2" fill="#682c2b" opacity="0.2"/><ellipse cx="199.2" cy="374.6" rx="1.5" ry="1.1" fill="#682c2b" opacity="0.1"/><ellipse cx="432.2" cy="335.7" rx="2.2" ry="1.0" fill="#fff" opacity="0.2"/><ellipse cx="76.8" cy="222.8" rx="0.8" ry="1.0" fill="#fff" opacity="0.1"/><ellipse cx="719.9" cy="572.1" rx="0.9" ry="0.7" fill="#fff" opacity="0.1"/><ellipse cx="636.8" cy="240.5" rx="0.9" ry="0.8" fill="#682c2b" opacity="0.1"/><ellipse cx="792.6" cy="114.9" rx="1.0" ry="0.6" fill="#682c2b" opacity="0.1"/><ellipse cx="112.8" cy="84.3" rx="1.6" ry="0.6" fill="#fff" opacity="0.2"/><ellipse cx="128.0" cy="90.5" rx="1.3" ry="1.1" fill="#682c2b" opacity="0.1"/><ellipse cx="637.3" cy="170.2" rx="1.5" ry="0.6" fill="#682c2b" opacity="0.2"/><ellipse cx="214.9" cy="76.3" rx="0.7" ry="0.4" fill="#fff" opacity="0.2"/><ellipse cx="662.9" cy="404.2" rx="1.5" ry="1.1" fill="#fff" opacity="0.2"/><ellipse cx="529.7" cy="143.2" rx="0.7" ry="1.1" fill="#fff" opacity="0.2"/><ellipse cx="29.1" cy="95.5" rx="1.0" ry="1.0" fill="#682c2b" opacity="0.1"/><ellipse cx="551.7" cy="270.1" rx="1.8" ry="1.3" fill="#682c2b" opacity="0.1"/><ellipse cx="109.8" cy="20.4" rx="2.0" ry="1.2" fill="#682c2b" opacity="0.2"/><ellipse cx="353.5" cy="572.9" rx="2.0" ry="0.8" fill="#fff" opacity="0.3"/><ellipse cx="81.6" cy="551.2" rx="0.4" ry="0.4" fill="#682c2b" opacity="0.2"/><ellipse cx="505.4" cy="537.5" rx="2.0" ry="0.7" fill="#682c2b" opacity="0.3"/><ellipse cx="148.0" cy="116.5" rx="1.0" ry="1.0" fill="#682c2b" opacity="0.2"/><ellipse cx="630.0" cy="398.2" rx="2.0" ry="1.1" fill="#fff" opacity="0.1"/><ellipse cx="359.2" cy="208.0" rx="1.3" ry="0.6" fill="#fff" opacity="0.1"/><ellipse cx="145.3" cy="152.2" rx="2.0" ry="1.3" fill="#682c2b" opacity="0.1"/><ellipse cx="663.2" cy="499.3" rx="0.7" ry="0.4" fill="#fff" opacity="0.1"/><ellipse cx="133.8" cy="249.7" rx="2.1" ry="0.4" fill="#682c2b" opacity="0.2"/><ellipse cx="26.6" cy="193.4" rx="1.6" ry="1.2" fill="#682c2b" opacity="0.2"/><ellipse cx="674.5" cy="351.4" rx="1.8" ry="1.0" fill="#fff" opacity="0.2"/><ellipse cx="662.5" cy="262.8" rx="1.1" ry="1.3" fill="#682c2b" opacity="0.2"/><ellipse cx="176.0" cy="493.8" rx="1.1" ry="0.5" fill="#682c2b" opacity="0.1"/><ellipse cx="403.1" cy="199.7" rx="2.1" ry="0.3" fill="#682c2b" opacity="0.1"/><ellipse cx="247.5" cy="152.5" rx="0.8" ry="0.8" fill="#682c2b" opacity="0.1"/><ellipse cx="453.8" cy="440.3" rx="0.9" ry="0.6" fill="#682c2b" opacity="0.1"/><ellipse cx="646.3" cy="444.3" rx="0.9" ry="1.3" fill="#fff" opacity="0.2"/><ellipse cx="767.6" cy="180.0" rx="0.7" ry="0.9" fill="#fff" opacity="0.1"/><ellipse cx="237.3" cy="458.9" rx="2.2" ry="1.0" fill="#fff" opacity="0.2"/><ellipse cx="275.5" cy="244.2" rx="2.0" ry="0.8" fill="#682c2b" opacity="0.2"/><ellipse cx="105.1" cy="461.0" rx="2.0" ry="1.2" fill="#682c2b" opacity="0.1"/><ellipse cx="212.8" cy="431.3" rx="1.0" ry="0.7" fill="#682c2b" opacity="0.2"/><ellipse cx="352.3" cy="252.4" rx="2.1" ry="0.8" fill="#682c2b" opacity="0.1"/><ellipse cx="176.1" cy="92.4" rx="1.2" ry="0.9" fill="#682c2b" opacity="0.2"/><ellipse cx="725.7" cy="336.2" rx="1.5" ry="1.2" fill="#fff" opacity="0.2"/><ellipse cx="750.5" cy="64.8" rx="1.3" ry="1.2" fill="#682c2b" opacity="0.1"/><ellipse cx="203.8" cy="472.9" rx="1.2" ry="1.1" fill="#fff" opacity="0.1"/><ellipse cx="344.0" cy="23.0" rx="1.1" ry="0.3" fill="#fff" opacity="0.2"/><ellipse cx="486.6" cy="568.5" rx="1.3" ry="1.3" fill="#682c2b" opacity="0.2"/><ellipse cx="465.9" cy="464.7" rx="1.4" ry="0.7" fill="#fff" opacity="0.1"/><ellipse cx="123.0" cy="586.6" rx="2.1" ry="1.0" fill="#682c2b" opacity="0.1"/><ellipse cx="287.4" cy="96.3" rx="1.7" ry="0.6" fill="#682c2b" opacity="0.2"/><ellipse cx="613.7" cy="523.8" rx="1.7" ry="0.5" fill="#682c2b" opacity="0.2"/><ellipse cx="722.3" cy="533.7" rx="1.3" ry="1.2" fill="#682c2b" opacity="0.2"/><ellipse cx="428.2" cy="440.3" rx="2.2" ry="1.1" fill="#682c2b" opacity="0.1"/><ellipse cx="63.6" cy="384.3" rx="2.0" ry="0.3" fill="#682c2b" opacity="0.2"/><ellipse cx="272.1" cy="84.7" rx="2.2" ry="0.8" fill="#682c2b" opacity="0.2"/><ellipse cx="215.9" cy="525.9" rx="0.9" ry="1.0" fill="#fff" opacity="0.1"/><ellipse cx="742.3" cy="204.9" rx="0.8" ry="1.0" fill="#682c2b" opacity="0.2"/><ellipse cx="358.8" cy="547.4" rx="1.9" ry="0.6" fill="#fff" opacity="0.2"/><ellipse cx="108.8" cy="586.2" rx="2.2" ry="0.4" fill="#682c2b" opacity="0.1"/><ellipse cx="680.4" cy="68.0" rx="2.2" ry="0.6" fill="#fff" opacity="0.2"/><ellipse cx="159.4" cy="204.8" rx="1.3" ry="0.3" fill="#682c2b" opacity="0.2"/><ellipse cx="617.9" cy="199.2" rx="1.3" ry="1.2" fill="#682c2b" opacity="0.2"/><ellipse cx="244.8" cy="240.2" rx="0.7" ry="0.8" fill="#fff" opacity="0.2"/><ellipse cx="241.9" cy="567.1" rx="2.0" ry="0.3" fill="#682c2b" opacity="0.1"/><ellipse cx="662.6" cy="35.4" rx="2.0" ry="1.1" fill="#682c2b" opacity="0.1"/><ellipse cx="24.2" cy="58.1" rx="0.5" ry="0.8" fill="#682c2b" opacity="0.1"/><ellipse cx="716.9" cy="246.1" rx="0.8" ry="0.4" fill="#682c2b" opacity="0.2"/><ellipse cx="23.3" cy="6.6" rx="0.4" ry="1.1" fill="#fff" opacity="0.2"/><ellipse cx="190.8" cy="569.0" rx="0.6" ry="0.5" fill="#682c2b" opacity="0.2"/><ellipse cx="528.9" cy="287.1" rx="1.9" ry="1.2" fill="#682c2b" opacity="0.2"/><ellipse cx="370.3" cy="590.5" rx="0.5" ry="1.2" fill="#fff" opacity="0.1"/><ellipse cx="799.1" cy="529.3" rx="2.2" ry="1.1" fill="#682c2b" opacity="0.2"/><ellipse cx="156.0" cy="446.4" rx="1.2" ry="1.1" fill="#682c2b" opacity="0.1"/><ellipse cx="731.1" cy="220.2" rx="1.4" ry="0.5" fill="#682c2b" opacity="0.2"/><ellipse cx="600.6" cy="532.5" rx="0.8" ry="1.3" fill="#682c2b" opacity="0.2"/><ellipse cx="100.2" cy="8.4" rx="1.8" ry="0.5" fill="#fff" opacity="0.3"/><ellipse cx="210.4" cy="257.5" rx="1.3" ry="0.8" fill="#fff" opacity="0.2"/><ellipse cx="607.0" cy="77.8" rx="0.6" ry="1.1" fill="#682c2b" opacity="0.2"/><ellipse cx="346.1" cy="178.4" rx="0.6" ry="0.7" fill="#682c2b" opacity="0.2"/><ellipse cx="168.3" cy="5.2" rx="2.2" ry="0.9" fill="#fff" opacity="0.2"/><ellipse cx="263.7" cy="9.0" rx="0.5" ry="0.5" fill="#682c2b" opacity="0.2"/><ellipse cx="290.1" cy="467.6" rx="0.9" ry="1.1" fill="#682c2b" opacity="0.2"/><ellipse cx="729.8" cy="142.6" rx="1.5" ry="0.7" fill="#fff" opacity="0.2"/><ellipse cx="360.9" cy="115.1" rx="1.0" ry="1.0" fill="#682c2b" opacity="0.2"/><ellipse cx="150.5" cy="79.0" rx="0.4" ry="0.7" fill="#fff" opacity="0.1"/><ellipse cx="100.7" cy="274.7" rx="1.3" ry="0.4" fill="#fff" opacity="0.2"/><ellipse cx="151.7" cy="496.5" rx="1.0" ry="1.0" fill="#fff" opacity="0.1"/><ellipse cx="405.9" cy="300.9" rx="0.6" ry="0.6" fill="#fff" opacity="0.2"/><ellipse cx="146.9" cy="260.0" rx="1.3" ry="1.2" fill="#682c2b" opacity="0.2"/><ellipse cx="225.3" cy="138.4" rx="1.5" ry="1.2" fill="#682c2b" opacity="0.1"/><ellipse cx="631.1" cy="204.9" rx="1.0" ry="0.5" fill="#682c2b" opacity="0.2"/><ellipse cx="106.2" cy="413.3" rx="0.6" ry="0.6" fill="#fff" opacity="0.2"/><ellipse cx="738.2" cy="488.7" rx="1.8" ry="0.7" fill="#fff" opacity="0.1"/><ellipse cx="46.9" cy="116.8" rx="2.1" ry="1.1" fill="#682c2b" opacity="0.2"/><ellipse cx="598.6" cy="49.7" rx="1.3" ry="1.2" fill="#682c2b" opacity="0.3"/><ellipse cx="294.4" cy="499.2" rx="2.0" ry="1.0" fill="#fff" opacity="0.2"/><ellipse cx="35.9" cy="264.0" rx="1.4" ry="0.7" fill="#fff" opacity="0.2"/><ellipse cx="323.9" cy="538.2" rx="0.5" ry="1.3" fill="#682c2b" opacity="0.2"/><ellipse cx="538.4" cy="41.4" rx="1.3" ry="1.2" fill="#682c2b" opacity="0.2"/><ellipse cx="237.6" cy="97.4" rx="1.8" ry="1.2" fill="#682c2b" opacity="0.2"/><ellipse cx="44.9" cy="351.3" rx="2.2" ry="0.7" fill="#682c2b" opacity="0.1"/><ellipse cx="220.6" cy="41.3" rx="0.4" ry="0.8" fill="#682c2b" opacity="0.2"/><ellipse cx="680.5" cy="317.7" rx="0.9" ry="0.5" fill="#fff" opacity="0.2"/><ellipse cx="291.9" cy="121.7" rx="1.6" ry="0.7" fill="#682c2b" opacity="0.3"/><ellipse cx="180.8" cy="176.0" rx="0.6" ry="0.8" fill="#682c2b" opacity="0.2"/><ellipse cx="386.4" cy="401.6" rx="0.4" ry="0.9" fill="#682c2b" opacity="0.1"/><ellipse cx="342.7" cy="130.1" rx="2.2" ry="0.5" fill="#682c2b" opacity="0.1"/><ellipse cx="207.3" cy="131.8" rx="1.9" ry="1.0" fill="#682c2b" opacity="0.2"/><ellipse cx="436.9" cy="502.9" rx="0.5" ry="0.7" fill="#682c2b" opacity="0.1"/><ellipse cx="85.4" cy="146.2" rx="0.7" ry="0.5" fill="#fff" opacity="0.2"/><ellipse cx="522.9" cy="317.6" rx="1.5" ry="1.1" fill="#682c2b" opacity="0.3"/><ellipse cx="282.3" cy="591.3" rx="1.8" ry="0.4" fill="#fff" opacity="0.2"/><ellipse cx="601.3" cy="4.0" rx="1.2" ry="0.7" fill="#682c2b" opacity="0.2"/><ellipse cx="376.6" cy="355.5" rx="0.7" ry="0.4" fill="#fff" opacity="0.2"/><ellipse cx="141.7" cy="267.7" rx="0.8" ry="0.6" fill="#682c2b" opacity="0.1"/><ellipse cx="568.5" cy="513.6" rx="1.0" ry="0.8" fill="#682c2b" opacity="0.2"/><ellipse cx="324.5" cy="113.8" rx="1.8" ry="0.5" fill="#fff" opacity="0.2"/><ellipse cx="542.9" cy="452.7" rx="2.1" ry="0.5" fill="#fff" opacity="0.2"/><ellipse cx="333.6" cy="166.0" rx="1.6" ry="1.2" fill="#682c2b" opacity="0.1"/><ellipse cx="525.4" cy="94.8" rx="1.6" ry="0.5" fill="#682c2b" opacity="0.2"/><ellipse cx="36.4" cy="171.5" rx="0.7" ry="0.6" fill="#682c2b" opacity="0.2"/><ellipse cx="571.5" cy="181.1" rx="1.5" ry="1.2" fill="#fff" opacity="0.2"/><ellipse cx="790.3" cy="131.8" rx="1.7" ry="0.7" fill="#682c2b" opacity="0.1"/><ellipse cx="725.0" cy="534.9" rx="1.3" ry="0.9" fill="#fff" opacity="0.2"/><ellipse cx="313.1" cy="251.2" rx="1.4" ry="1.1" fill="#682c2b" opacity="0.2"/><ellipse cx="83.1" cy="567.9" rx="0.9" ry="0.5" fill="#fff" opacity="0.3"/><ellipse cx="152.2" cy="442.2" rx="0.6" ry="0.3" fill="#682c2b" opacity="0.1"/><ellipse cx="206.6" cy="445.5" rx="0.5" ry="1.1" fill="#682c2b" opacity="0.2"/><ellipse cx="494.6" cy="279.6" rx="1.7" ry="0.4" fill="#682c2b" opacity="0.1"/><ellipse cx="111.7" cy="276.8" rx="0.6" ry="0.3" fill="#682c2b" opacity="0.1"/><ellipse cx="450.7" cy="443.5" rx="2.1" ry="0.5" fill="#682c2b" opacity="0.3"/><ellipse cx="681.4" cy="245.6" rx="1.4" ry="1.0" fill="#682c2b" opacity="0.2"/><ellipse cx="552.1" cy="241.2" rx="1.5" ry="0.4" fill="#682c2b" opacity="0.2"/><ellipse cx="534.3" cy="546.9" rx="1.0" ry="0.6" fill="#682c2b" opacity="0.2"/><ellipse cx="400.4" cy="350.0" rx="1.2" ry="0.4" fill="#682c2b" opacity="0.2"/><ellipse cx="787.2" cy="145.2" rx="1.0" ry="1.2" fill="#682c2b" opacity="0.2"/><ellipse cx="604.3" cy="270.3" rx="1.1" ry="0.5" fill="#682c2b" opacity="0.1"/><ellipse cx="350.6" cy="120.3" rx="0.7" ry="0.5" fill="#fff" opacity="0.2"/><ellipse cx="741.6" cy="530.2" rx="1.7" ry="0.5" fill="#682c2b" opacity="0.2"/><ellipse cx="393.1" cy="115.6" rx="0.9" ry="1.0" fill="#fff" opacity="0.2"/><ellipse cx="485.7" cy="31.8" rx="0.5" ry="1.1" fill="#682c2b" opacity="0.2"/><ellipse cx="12.9" cy="555.7" rx="0.7" ry="0.7" fill="#682c2b" opacity="0.3"/><ellipse cx="32.0" cy="80.7" rx="2.0" ry="0.5" fill="#682c2b" opacity="0.2"/><ellipse cx="554.2" cy="47.6" rx="0.9" ry="0.4" fill="#682c2b" opacity="0.2"/><ellipse cx="163.1" cy="388.2" rx="1.4" ry="1.0" fill="#fff" opacity="0.1"/><ellipse cx="205.3" cy="331.3" rx="1.0" ry="0.3" fill="#682c2b" opacity="0.2"/><ellipse cx="89.2" cy="87.7" rx="1.2" ry="0.6" fill="#fff" opacity="0.2"/><ellipse cx="716.3" cy="97.3" rx="1.6" ry="1.2" fill="#682c2b" opacity="0.1"/><ellipse cx="202.8" cy="155.1" rx="0.9" ry="0.7" fill="#fff" opacity="0.2"/><ellipse cx="273.8" cy="533.5" rx="1.2" ry="1.2" fill="#682c2b" opacity="0.2"/><ellipse cx="282.8" cy="175.4" rx="2.0" ry="0.4" fill="#fff" opacity="0.2"/><ellipse cx="370.5" cy="19.7" rx="2.0" ry="0.5" fill="#682c2b" opacity="0.2"/><ellipse cx="688.1" cy="543.5" rx="1.7" ry="0.5" fill="#fff" opacity="0.2"/><ellipse cx="305.9" cy="534.2" rx="1.0" ry="0.8" fill="#682c2b" opacity="0.2"/><ellipse cx="676.5" cy="342.8" rx="0.6" ry="1.2" fill="#682c2b" opacity="0.1"/><ellipse cx="358.0" cy="488.5" rx="2.0" ry="1.1" fill="#fff" opacity="0.2"/><ellipse cx="186.4" cy="489.9" rx="2.0" ry="0.5" fill="#fff" opacity="0.1"/><ellipse cx="460.2" cy="455.2" rx="0.7" ry="0.4" fill="#fff" opacity="0.2"/><ellipse cx="420.5" cy="287.2" rx="0.5" ry="0.6" fill="#682c2b" opacity="0.2"/><ellipse cx="624.6" cy="405.3" rx="2.2" ry="1.3" fill="#fff" opacity="0.1"/><ellipse cx="366.2" cy="274.1" rx="2.2" ry="1.0" fill="#682c2b" opacity="0.2"/><ellipse cx="746.0" cy="220.2" rx="0.8" ry="0.4" fill="#682c2b" opacity="0.2"/><ellipse cx="193.5" cy="415.9" rx="1.3" ry="0.3" fill="#682c2b" opacity="0.1"/><ellipse cx="25.9" cy="394.5" rx="1.5" ry="0.3" fill="#682c2b" opacity="0.2"/><ellipse cx="264.5" cy="224.0" rx="0.6" ry="0.3" fill="#682c2b" opacity="0.2"/><ellipse cx="453.4" cy="594.1" rx="0.6" ry="0.7" fill="#fff" opacity="0.2"/><ellipse cx="695.0" cy="344.5" rx="1.4" ry="1.3" fill="#682c2b" opacity="0.1"/><ellipse cx="581.1" cy="486.9" rx="2.0" ry="0.9" fill="#fff" opacity="0.1"/><ellipse cx="203.7" cy="508.5" rx="2.2" ry="1.0" fill="#682c2b" opacity="0.2"/><ellipse cx="432.3" cy="210.0" rx="1.4" ry="0.4" fill="#682c2b" opacity="0.2"/><ellipse cx="387.4" cy="283.6" rx="1.5" ry="1.1" fill="#fff" opacity="0.2"/><ellipse cx="178.5" cy="390.5" rx="1.9" ry="0.6" fill="#fff" opacity="0.1"/><ellipse cx="159.2" cy="217.2" rx="1.9" ry="0.8" fill="#fff" opacity="0.2"/><ellipse cx="223.0" cy="583.9" rx="2.1" ry="1.3" fill="#682c2b" opacity="0.2"/><ellipse cx="488.2" cy="512.6" rx="0.5" ry="1.2" fill="#682c2b" opacity="0.2"/><ellipse cx="129.9" cy="548.3" rx="0.5" ry="0.5" fill="#fff" opacity="0.1"/><ellipse cx="576.3" cy="528.3" rx="0.7" ry="1.0" fill="#fff" opacity="0.1"/><ellipse cx="434.9" cy="516.4" rx="2.0" ry="1.1" fill="#fff" opacity="0.2"/><ellipse cx="412.3" cy="140.9" rx="1.3" ry="0.3" fill="#682c2b" opacity="0.1"/><ellipse cx="375.3" cy="384.5" rx="1.8" ry="0.6" fill="#fff" opacity="0.1"/><ellipse cx="37.5" cy="563.3" rx="2.0" ry="0.9" fill="#682c2b" opacity="0.3"/><ellipse cx="777.1" cy="282.0" rx="1.2" ry="0.4" fill="#682c2b" opacity="0.2"/><ellipse cx="463.9" cy="556.8" rx="0.8" ry="0.5" fill="#682c2b" opacity="0.1"/><ellipse cx="737.2" cy="337.4" rx="2.0" ry="1.1" fill="#682c2b" opacity="0.2"/><ellipse cx="179.5" cy="330.1" rx="0.5" ry="1.3" fill="#fff" opacity="0.2"/><ellipse cx="137.2" cy="6.6" rx="1.1" ry="0.4" fill="#fff" opacity="0.2"/><ellipse cx="579.3" cy="363.9" rx="1.8" ry="0.5" fill="#682c2b" opacity="0.3"/><ellipse cx="226.2" cy="479.8" rx="0.8" ry="1.0" fill="#fff" opacity="0.2"/><ellipse cx="260.6" cy="552.7" rx="0.8" ry="1.2" fill="#682c2b" opacity="0.2"/><ellipse cx="311.7" cy="31.2" rx="1.4" ry="0.9" fill="#682c2b" opacity="0.1"/><ellipse cx="718.2" cy="404.7" rx="1.4" ry="1.1" fill="#682c2b" opacity="0.2"/><ellipse cx="794.6" cy="528.1" rx="1.1" ry="0.7" fill="#fff" opacity="0.1"/><ellipse cx="578.0" cy="588.9" rx="0.9" ry="0.9" fill="#682c2b" opacity="0.1"/><ellipse cx="585.6" cy="264.8" rx="1.4" ry="0.4" fill="#fff" opacity="0.2"/><ellipse cx="506.7" cy="272.1" rx="1.4" ry="1.0" fill="#682c2b" opacity="0.1"/><ellipse cx="342.1" cy="37.1" rx="1.1" ry="0.5" fill="#682c2b" opacity="0.2"/><ellipse cx="334.6" cy="435.2" rx="2.2" ry="0.7" fill="#fff" opacity="0.1"/><ellipse cx="761.6" cy="322.7" rx="2.1" ry="0.6" fill="#fff" opacity="0.2"/><ellipse cx="529.0" cy="108.5" rx="2.1" ry="0.9" fill="#682c2b" opacity="0.2"/><ellipse cx="569.7" cy="583.5" rx="1.7" ry="1.2" fill="#682c2b" opacity="0.2"/><ellipse cx="356.4" cy="219.7" rx="1.9" ry="1.2" fill="#682c2b" opacity="0.1"/><ellipse cx="640.2" cy="454.7" rx="0.5" ry="0.5" fill="#682c2b" opacity="0.1"/><ellipse cx="469.7" cy="491.4" rx="2.0" ry="0.6" fill="#682c2b" opacity="0.1"/><ellipse cx="84.7" cy="337.1" rx="1.7" ry="0.4" fill="#fff" opacity="0.1"/><ellipse cx="259.7" cy="182.0" rx="1.9" ry="0.7" fill="#fff" opacity="0.2"/><ellipse cx="749.4" cy="258.4" rx="1.4" ry="1.0" fill="#fff" opacity="0.2"/><ellipse cx="506.2" cy="408.0" rx="1.4" ry="0.7" fill="#682c2b" opacity="0.1"/><ellipse cx="755.7" cy="218.0" rx="0.5" ry="0.3" fill="#682c2b" opacity="0.1"/><ellipse cx="468.5" cy="540.7" rx="1.1" ry="0.6" fill="#682c2b" opacity="0.3"/><ellipse cx="324.1" cy="582.0" rx="0.8" ry="1.0" fill="#fff" opacity="0.2"/><ellipse cx="350.6" cy="516.0" rx="1.7" ry="0.7" fill="#682c2b" opacity="0.2"/><ellipse cx="116.5" cy="43.3" rx="0.9" ry="1.0" fill="#682c2b" opacity="0.2"/><ellipse cx="281.0" cy="48.7" rx="0.7" ry="0.7" fill="#682c2b" opacity="0.2"/><ellipse cx="536.2" cy="213.3" rx="1.3" ry="1.0" fill="#682c2b" opacity="0.2"/><ellipse cx="742.0" cy="292.6" rx="0.6" ry="0.9" fill="#682c2b" opacity="0.2"/><ellipse cx="221.7" cy="259.7" rx="0.7" ry="0.5" fill="#fff" opacity="0.2"/><ellipse cx="787.8" cy="435.5" rx="0.9" ry="0.6" fill="#682c2b" opacity="0.2"/><ellipse cx="173.8" cy="556.9" rx="1.8" ry="0.8" fill="#fff" opacity="0.2"/><ellipse cx="188.7" cy="471.1" rx="0.6" ry="0.4" fill="#682c2b" opacity="0.2"/><ellipse cx="150.7" cy="264.4" rx="1.6" ry="1.0" fill="#682c2b" opacity="0.2"/><ellipse cx="638.0" cy="537.6" rx="0.6" ry="0.8" fill="#682c2b" opacity="0.2"/><ellipse cx="571.3" cy="298.5" rx="1.7" ry="0.3" fill="#682c2b" opacity="0.3"/><ellipse cx="560.3" cy="564.1" rx="0.7" ry="0.8" fill="#682c2b" opacity="0.2"/><ellipse cx="162.6" cy="513.3" rx="0.8" ry="0.7" fill="#682c2b" opacity="0.1"/><ellipse cx="657.3" cy="515.6" rx="1.7" ry="0.4" fill="#682c2b" opacity="0.2"/><ellipse cx="589.0" cy="456.7" rx="1.7" ry="1.3" fill="#682c2b" opacity="0.2"/><ellipse cx="730.2" cy="475.6" rx="1.5" ry="0.9" fill="#fff" opacity="0.2"/><ellipse cx="701.2" cy="16.6" rx="1.8" ry="1.1" fill="#682c2b" opacity="0.1"/><ellipse cx="514.7" cy="559.9" rx="1.9" ry="0.8" fill="#682c2b" opacity="0.2"/><ellipse cx="42.5" cy="22.9" rx="1.3" ry="1.0" fill="#682c2b" opacity="0.2"/><ellipse cx="667.3" cy="199.2" rx="0.8" ry="1.3" fill="#682c2b" opacity="0.2"/><ellipse cx="249.1" cy="22.1" rx="1.0" ry="0.7" fill="#682c2b" opacity="0.1"/><ellipse cx="239.7" cy="82.9" rx="0.8" ry="0.5" fill="#682c2b" opacity="0.1"/><ellipse cx="382.7" cy="188.0" rx="1.6" ry="1.2" fill="#682c2b" opacity="0.1"/><ellipse cx="778.6" cy="4.5" rx="0.9" ry="1.1" fill="#682c2b" opacity="0.2"/><ellipse cx="32.8" cy="86.1" rx="0.7" ry="0.3" fill="#fff" opacity="0.2"/><ellipse cx="189.6" cy="398.9" rx="1.9" ry="0.9" fill="#fff" opacity="0.2"/><ellipse cx="225.5" cy="356.6" rx="1.1" ry="0.8" fill="#682c2b" opacity="0.1"/><ellipse cx="501.1" cy="511.5" rx="2.1" ry="0.7" fill="#682c2b" opacity="0.1"/><ellipse cx="377.5" cy="331.1" rx="1.0" ry="0.9" fill="#682c2b" opacity="0.2"/><ellipse cx="266.8" cy="92.2" rx="1.2" ry="0.8" fill="#682c2b" opacity="0.3"/><ellipse cx="131.3" cy="349.4" rx="2.0" ry="0.9" fill="#682c2b" opacity="0.2"/><ellipse cx="144.2" cy="251.3" rx="1.8" ry="1.0" fill="#682c2b" opacity="0.1"/><ellipse cx="711.2" cy="291.9" rx="0.4" ry="0.4" fill="#fff" opacity="0.2"/><ellipse cx="785.8" cy="471.7" rx="2.0" ry="1.3" fill="#682c2b" opacity="0.2"/><ellipse cx="634.7" cy="392.5" rx="1.5" ry="0.4" fill="#682c2b" opacity="0.1"/><ellipse cx="381.8" cy="315.0" rx="0.8" ry="1.2" fill="#682c2b" opacity="0.1"/><ellipse cx="20.0" cy="348.8" rx="1.1" ry="0.8" fill="#fff" opacity="0.2"/><ellipse cx="190.4" cy="113.8" rx="1.6" ry="1.2" fill="#682c2b" opacity="0.2"/><ellipse cx="724.4" cy="94.1" rx="1.7" ry="0.9" fill="#682c2b" opacity="0.2"/><ellipse cx="194.4" cy="490.3" rx="2.1" ry="0.8" fill="#682c2b" opacity="0.1"/><ellipse cx="152.6" cy="348.0" rx="1.8" ry="0.4" fill="#682c2b" opacity="0.1"/><ellipse cx="20.9" cy="92.2" rx="1.2" ry="1.1" fill="#fff" opacity="0.2"/><ellipse cx="772.5" cy="9.5" rx="0.6" ry="0.3" fill="#682c2b" opacity="0.3"/><ellipse cx="461.6" cy="85.4" rx="1.5" ry="1.2" fill="#682c2b" opacity="0.2"/><ellipse cx="774.7" cy="210.3" rx="1.8" ry="0.8" fill="#682c2b" opacity="0.1"/><ellipse cx="331.5" cy="95.9" rx="1.8" ry="0.3" fill="#682c2b" opacity="0.1"/><ellipse cx="314.7" cy="392.4" rx="1.1" ry="0.4" fill="#682c2b" opacity="0.2"/><ellipse cx="403.8" cy="439.9" rx="1.3" ry="1.1" fill="#fff" opacity="0.2"/><ellipse cx="374.2" cy="126.2" rx="1.7" ry="0.7" fill="#fff" opacity="0.2"/><ellipse cx="757.2" cy="433.7" rx="1.6" ry="0.3" fill="#682c2b" opacity="0.2"/><ellipse cx="279.6" cy="134.8" rx="2.1" ry="0.9" fill="#682c2b" opacity="0.2"/><ellipse cx="474.8" cy="123.7" rx="0.8" ry="0.5" fill="#682c2b" opacity="0.2"/><ellipse cx="115.4" cy="339.6" rx="1.4" ry="0.4" fill="#682c2b" opacity="0.1"/><ellipse cx="30.9" cy="327.2" rx="1.4" ry="0.3" fill="#fff" opacity="0.2"/><ellipse cx="68.5" cy="93.7" rx="1.8" ry="1.1" fill="#fff" opacity="0.1"/><ellipse cx="503.7" cy="224.0" rx="1.3" ry="0.5" fill="#fff" opacity="0.2"/><ellipse cx="143.9" cy="518.2" rx="1.8" ry="0.3" fill="#682c2b" opacity="0.2"/><ellipse cx="351.1" cy="290.8" rx="1.8" ry="1.0" fill="#fff" opacity="0.3"/><ellipse cx="685.2" cy="6.0" rx="0.4" ry="1.0" fill="#fff" opacity="0.2"/><ellipse cx="287.5" cy="518.0" rx="0.7" ry="0.3" fill="#682c2b" opacity="0.2"/><ellipse cx="341.4" cy="511.9" rx="0.9" ry="0.3" fill="#682c2b" opacity="0.1"/><ellipse cx="598.7" cy="199.2" rx="2.0" ry="0.9" fill="#682c2b" opacity="0.1"/><ellipse cx="315.3" cy="389.9" rx="1.9" ry="0.6" fill="#682c2b" opacity="0.1"/><ellipse cx="232.8" cy="335.3" rx="1.6" ry="0.5" fill="#682c2b" opacity="0.2"/><ellipse cx="730.3" cy="98.3" rx="0.7" ry="1.3" fill="#682c2b" opacity="0.2"/><ellipse cx="4.1" cy="242.6" rx="0.6" ry="0.7" fill="#682c2b" opacity="0.1"/><ellipse cx="756.4" cy="434.5" rx="2.0" ry="1.3" fill="#fff" opacity="0.1"/><ellipse cx="448.1" cy="506.1" rx="1.4" ry="1.2" fill="#682c2b" opacity="0.2"/><ellipse cx="728.3" cy="116.3" rx="1.1" ry="0.7" fill="#fff" opacity="0.1"/><ellipse cx="264.6" cy="569.0" rx="1.9" ry="0.5" fill="#682c2b" opacity="0.2"/><ellipse cx="697.6" cy="276.9" rx="1.5" ry="1.1" fill="#682c2b" opacity="0.2"/><ellipse cx="686.4" cy="397.7" rx="0.7" ry="1.0" fill="#682c2b" opacity="0.2"/><ellipse cx="453.1" cy="186.3" rx="0.6" ry="0.8" fill="#682c2b" opacity="0.1"/><ellipse cx="511.7" cy="214.6" rx="1.0" ry="1.1" fill="#fff" opacity="0.2"/><ellipse cx="648.9" cy="466.8" rx="1.2" ry="0.8" fill="#fff" opacity="0.1"/><ellipse cx="336.9" cy="238.2" rx="2.0" ry="0.8" fill="#fff" opacity="0.2"/><ellipse cx="77.1" cy="218.5" rx="1.3" ry="0.9" fill="#682c2b" opacity="0.1"/><ellipse cx="327.9" cy="121.4" rx="0.4" ry="0.6" fill="#682c2b" opacity="0.1"/><rect width="800" height="600" fill="url(#light)"/></svg>
