<svg xmlns="http://www.w3.org/2000/svg" width="800" height="600" viewBox="0 0 800 600"><defs><linearGradient id="base" x2="1" y2="1"><stop stop-color="#9596ac"/><stop offset="1" stop-color="#555e76"/></linearGradient><linearGradient id="light" x2=".7" y2="1"><stop stop-color="#fff" stop-opacity=".16"/><stop offset=".5" stop-color="#fff" stop-opacity="0"/><stop offset="1" stop-color="#000" stop-opacity=".07"/></linearGradient><linearGradient id="metal" x1="0" y1="0" x2="1" y2=".55"><stop stop-color="#555e76"/><stop offset=".35" stop-color="#9596ac"/><stop offset=".57" stop-color="#9596ac"/><stop offset="1" stop-color="#555e76"/></linearGradient></defs><rect width="800" height="600" fill="url(#metal)"/><path d="M-92.5 552.8h533.2" fill="none" stroke="#fff" stroke-opacity="0.1" stroke-width="1.0"/><path d="M-44.0 243.8h574.2" fill="none" stroke="#fff" stroke-opacity="0.1" stroke-width="0.3"/><path d="M-4.6 98.4h510.8" fill="none" stroke="#fff" stroke-opacity="0.0" stroke-width="0.8"/><path d="M-16.3 473.9h529.4" fill="none" stroke="#fff" stroke-opacity="0.1" stroke-width="0.5"/><path d="M-82.6 391.5h503.8" fill="none" stroke="#555e76" stroke-opacity="0.1" stroke-width="0.6"/><path d="M-34.2 270.5h630.2" fill="none" stroke="#fff" stroke-opacity="0.1" stroke-width="0.7"/><path d="M-8.7 133.4h711.9" fill="none" stroke="#555e76" stroke-opacity="0.1" stroke-width="0.6"/><path d="M-46.3 399.3h630.8" fill="none" stroke="#555e76" stroke-opacity="0.1" stroke-width="0.5"/><path d="M-76.6 553.9h547.3" fill="none" stroke="#555e76" stroke-opacity="0.1" stroke-width="0.9"/><path d="M-15.6 81.6h799.6" fill="none" stroke="#fff" stroke-opacity="0.1" stroke-width="0.6"/><path d="M-82.4 393.7h746.9" fill="none" stroke="#fff" stroke-opacity="0.1" stroke-width="0.9"/><path d="M-87.1 538.4h752.9" fill="none" stroke="#555e76" stroke-opacity="0.1" stroke-width="0.5"/><path d="M-23.0 554.4h543.2" fill="none" stroke="#555e76" stroke-opacity="0.1" stroke-width="0.9"/><path d="M-16.2 83.9h543.9" fill="none" stroke="#555e76" stroke-opacity="0.0" stroke-width="0.6"/><path d="M-26.7 217.2h514.3" fill="none" stroke="#fff" stroke-opacity="0.1" stroke-width="0.4"/><path d="M-71.7 145.3h877.8" fill="none" stroke="#fff" stroke-opacity="0.1" stroke-width="0.4"/><path d="M-19.1 584.2h631.1" fill="none" stroke="#555e76" stroke-opacity="0.1" stroke-width="0.9"/><path d="M-2.2 339.0h620.8" fill="none" stroke="#555e76" stroke-opacity="0.0" stroke-width="0.5"/><path d="M-100.0 145.4h720.6" fill="none" stroke="#fff" stroke-opacity="0.1" stroke-width="0.6"/><path d="M-29.8 479.2h672.1" fill="none" stroke="#fff" stroke-opacity="0.1" stroke-width="0.6"/><path d="M-82.9 324.4h663.4" fill="none" stroke="#fff" stroke-opacity="0.1" stroke-width="0.6"/><path d="M-11.3 548.3h567.5" fill="none" stroke="#fff" stroke-opacity="0.1" stroke-width="0.8"/><path d="M-24.3 305.5h545.6" fill="none" stroke="#555e76" stroke-opacity="0.1" stroke-width="0.5"/><path d="M-79.4 7.8h683.2" fill="none" stroke="#fff" stroke-opacity="0.1" stroke-width="0.8"/><path d="M-43.6 196.7h682.1" fill="none" stroke="#fff" stroke-opacity="0.1" stroke-width="0.4"/><path d="M-54.1 375.1h609.3" fill="none" stroke="#555e76" stroke-opacity="0.1" stroke-width="0.3"/><path d="M-10.5 29.4h731.8" fill="none" stroke="#555e76" stroke-opacity="0.1" stroke-width="0.5"/><path d="M-88.2 148.6h760.3" fill="none" stroke="#fff" stroke-opacity="0.1" stroke-width="0.6"/><path d="M-51.7 251.0h821.5" fill="none" stroke="#fff" stroke-opacity="0.1" stroke-width="0.3"/><path d="M-84.9 104.4h793.1" fill="none" stroke="#555e76" stroke-opacity="0.1" stroke-width="0.8"/><path d="M-2.7 510.1h899.5" fill="none" stroke="#fff" stroke-opacity="0.0" stroke-width="1.0"/><path d="M-3.6 547.3h500.2" fill="none" stroke="#555e76" stroke-opacity="0.1" stroke-width="0.7"/><path d="M-7.2 290.7h635.5" fill="none" stroke="#fff" stroke-opacity="0.1" stroke-width="0.9"/><path d="M-40.7 440.2h546.4" fill="none" stroke="#fff" stroke-opacity="0.1" stroke-width="0.5"/><path d="M-40.2 295.9h686.9" fill="none" stroke="#fff" stroke-opacity="0.1" stroke-width="0.7"/><path d="M-51.3 93.6h519.1" fill="none" stroke="#fff" stroke-opacity="0.0" stroke-width="0.4"/><path d="M-6.3 35.9h649.9" fill="none" stroke="#fff" stroke-opacity="0.1" stroke-width="1.0"/><path d="M-49.5 240.3h660.1" fill="none" stroke="#fff" stroke-opacity="0.0" stroke-width="0.8"/><path d="M-39.6 422.5h714.1" fill="none" stroke="#fff" stroke-opacity="0.1" stroke-width="0.4"/><path d="M-2.5 75.2h547.8" fill="none" stroke="#555e76" stroke-opacity="0.1" stroke-width="0.3"/><path d="M-7.5 523.7h539.6" fill="none" stroke="#fff" stroke-opacity="0.1" stroke-width="0.7"/><path d="M-6.8 588.3h898.1" fill="none" stroke="#fff" stroke-opacity="0.1" stroke-width="0.6"/><path d="M-94.4 581.5h574.1" fill="none" stroke="#555e76" stroke-opacity="0.1" stroke-width="0.9"/><path d="M-10.3 468.1h753.6" fill="none" stroke="#fff" stroke-opacity="0.1" stroke-width="0.9"/><path d="M-16.3 145.8h731.3" fill="none" stroke="#fff" stroke-opacity="0.1" stroke-width="0.4"/><path d="M-21.1 203.9h829.9" fill="none" stroke="#555e76" stroke-opacity="0.1" stroke-width="0.4"/><path d="M-94.6 127.4h646.5" fill="none" stroke="#fff" stroke-opacity="0.0" stroke-width="0.4"/><path d="M-14.3 165.8h686.0" fill="none" stroke="#fff" stroke-opacity="0.1" stroke-width="0.8"/><path d="M-88.3 324.2h630.4" fill="none" stroke="#555e76" stroke-opacity="0.1" stroke-width="0.4"/><path d="M-28.5 189.6h690.1" fill="none" stroke="#555e76" stroke-opacity="0.1" stroke-width="0.8"/><path d="M-63.8 321.8h538.2" fill="none" stroke="#555e76" stroke-opacity="0.1" stroke-width="0.8"/><path d="M-14.4 545.1h647.7" fill="none" stroke="#555e76" stroke-opacity="0.1" stroke-width="0.6"/><path d="M-51.3 424.0h673.9" fill="none" stroke="#555e76" stroke-opacity="0.1" stroke-width="1.0"/><path d="M-75.2 115.9h661.4" fill="none" stroke="#fff" stroke-opacity="0.1" stroke-width="0.7"/><path d="M-16.1 14.7h547.8" fill="none" stroke="#fff" stroke-opacity="0.1" stroke-width="0.5"/><path d="M-13.1 369.2h691.0" fill="none" stroke="#555e76" stroke-opacity="0.1" stroke-width="0.3"/><path d="M-46.1 504.0h607.0" fill="none" stroke="#555e76" stroke-opacity="0.0" stroke-width="1.0"/><path d="M-69.9 443.1h583.2" fill="none" stroke="#555e76" stroke-opacity="0.1" stroke-width="0.7"/><path d="M-30.9 363.9h555.7" fill="none" stroke="#555e76" stroke-opacity="0.1" stroke-width="0.7"/><path d="M-27.0 29.5h838.6" fill="none" stroke="#555e76" stroke-opacity="0.1" stroke-width="0.4"/><path d="M-86.2 504.0h786.2" fill="none" stroke="#fff" stroke-opacity="0.1" stroke-width="0.3"/><path d="M-3.5 481.6h885.6" fill="none" stroke="#555e76" stroke-opacity="0.0" stroke-width="0.4"/><path d="M-47.3 591.8h738.5" fill="none" stroke="#555e76" stroke-opacity="0.0" stroke-width="0.5"/><path d="M-65.9 123.3h529.8" fill="none" stroke="#555e76" stroke-opacity="0.1" stroke-width="0.5"/><path d="M-36.1 70.8h506.2" fill="none" stroke="#fff" stroke-opacity="0.0" stroke-width="1.0"/><path d="M-39.1 288.8h747.6" fill="none" stroke="#fff" stroke-opacity="0.1" stroke-width="0.8"/><path d="M-76.3 379.0h509.6" fill="none" stroke="#555e76" stroke-opacity="0.1" stroke-width="0.7"/><path d="M-82.3 370.6h891.9" fill="none" stroke="#555e76" stroke-opacity="0.1" stroke-width="0.4"/><path d="M-8.3 220.9h552.4" fill="none" stroke="#555e76" stroke-opacity="0.0" stroke-width="0.7"/><path d="M-69.5 504.0h680.8" fill="none" stroke="#fff" stroke-opacity="0.1" stroke-width="0.3"/><path d="M-32.5 496.6h883.1" fill="none" stroke="#555e76" stroke-opacity="0.0" stroke-width="0.5"/><path d="M-88.1 66.8h635.6" fill="none" stroke="#fff" stroke-opacity="0.1" stroke-width="0.9"/><path d="M-79.0 240.8h777.9" fill="none" stroke="#fff" stroke-opacity="0.1" stroke-width="0.4"/><path d="M-44.4 120.7h738.3" fill="none" stroke="#fff" stroke-opacity="0.1" stroke-width="1.0"/><path d="M-84.4 474.8h664.6" fill="none" stroke="#fff" stroke-opacity="0.1" stroke-width="0.7"/><path d="M-41.3 74.5h776.9" fill="none" stroke="#555e76" stroke-opacity="0.1" stroke-width="0.5"/><path d="M-23.0 24.9h706.6" fill="none" stroke="#555e76" stroke-opacity="0.0" stroke-width="0.9"/><path d="M-65.5 596.1h747.8" fill="none" stroke="#555e76" stroke-opacity="0.1" stroke-width="0.5"/><path d="M-23.1 509.9h865.2" fill="none" stroke="#555e76" stroke-opacity="0.1" stroke-width="0.6"/><path d="M-0.3 351.4h582.6" fill="none" stroke="#fff" stroke-opacity="0.1" stroke-width="0.6"/><path d="M-66.6 51.1h759.6" fill="none" stroke="#fff" stroke-opacity="0.1" stroke-width="0.9"/><path d="M-50.9 98.7h570.3" fill="none" stroke="#555e76" stroke-opacity="0.1" stroke-width="0.3"/><path d="M-50.4 408.1h542.1" fill="none" stroke="#555e76" stroke-opacity="0.0" stroke-width="0.9"/><path d="M-48.0 216.6h741.5" fill="none" stroke="#555e76" stroke-opacity="0.0" stroke-width="0.6"/><path d="M-60.2 193.2h508.6" fill="none" stroke="#555e76" stroke-opacity="0.1" stroke-width="0.7"/><path d="M-68.2 93.0h784.2" fill="none" stroke="#555e76" stroke-opacity="0.1" stroke-width="0.7"/><path d="M-84.5 367.5h862.7" fill="none" stroke="#555e76" stroke-opacity="0.1" stroke-width="0.8"/><path d="M-84.1 154.3h560.8" fill="none" stroke="#fff" stroke-opacity="0.1" stroke-width="0.3"/><path d="M-68.5 372.0h752.0" fill="none" stroke="#fff" stroke-opacity="0.1" stroke-width="0.8"/><path d="M-36.1 261.7h593.2" fill="none" stroke="#fff" stroke-opacity="0.1" stroke-width="0.9"/><path d="M-86.0 597.0h595.1" fill="none" stroke="#fff" stroke-opacity="0.1" stroke-width="0.6"/><path d="M-86.0 354.3h786.8" fill="none" stroke="#555e76" stroke-opacity="0.1" stroke-width="0.6"/><path d="M-80.5 42.5h618.5" fill="none" stroke="#fff" stroke-opacity="0.0" stroke-width="0.4"/><path d="M-95.2 365.3h560.3" fill="none" stroke="#555e76" stroke-opacity="0.1" stroke-width="0.4"/><path d="M-1.5 373.1h622.5" fill="none" stroke="#555e76" stroke-opacity="0.0" stroke-width="0.5"/><path d="M-38.9 191.0h851.4" fill="none" stroke="#fff" stroke-opacity="0.1" stroke-width="0.8"/><path d="M-37.9 119.9h893.5" fill="none" stroke="#555e76" stroke-opacity="0.0" stroke-width="0.4"/><path d="M-46.9 39.7h566.4" fill="none" stroke="#fff" stroke-opacity="0.1" stroke-width="0.8"/><path d="M-26.1 133.8h683.2" fill="none" stroke="#fff" stroke-opacity="0.1" stroke-width="0.7"/><path d="M-34.3 439.1h542.8" fill="none" stroke="#555e76" stroke-opacity="0.1" stroke-width="0.4"/><path d="M-81.8 141.9h771.9" fill="none" stroke="#fff" stroke-opacity="0.1" stroke-width="0.7"/><path d="M-61.6 130.6h593.6" fill="none" stroke="#fff" stroke-opacity="0.0" stroke-width="0.5"/><path d="M-85.2 10.7h735.6" fill="none" stroke="#fff" stroke-opacity="0.0" stroke-width="0.5"/><path d="M-37.6 427.4h501.7" fill="none" stroke="#555e76" stroke-opacity="0.0" stroke-width="0.9"/><path d="M-18.6 269.6h835.4" fill="none" stroke="#fff" stroke-opacity="0.1" stroke-width="1.0"/><path d="M-55.3 166.3h734.0" fill="none" stroke="#fff" stroke-opacity="0.1" stroke-width="0.6"/><path d="M-34.4 197.4h547.7" fill="none" stroke="#555e76" stroke-opacity="0.1" stroke-width="0.5"/><path d="M-23.8 329.6h742.7" fill="none" stroke="#fff" stroke-opacity="0.1" stroke-width="1.0"/><path d="M-4.8 324.9h654.6" fill="none" stroke="#fff" stroke-opacity="0.0" stroke-width="0.7"/><path d="M-35.5 366.7h823.5" fill="none" stroke="#fff" stroke-opacity="0.1" stroke-width="0.4"/><path d="M-78.9 156.9h712.3" fill="none" stroke="#fff" stroke-opacity="0.1" stroke-width="0.9"/><path d="M-83.0 192.7h799.8" fill="none" stroke="#555e76" stroke-opacity="0.1" stroke-width="0.6"/><path d="M-50.3 66.6h616.9" fill="none" stroke="#fff" stroke-opacity="0.1" stroke-width="0.9"/><path d="M-14.9 391.4h900.0" fill="none" stroke="#fff" stroke-opacity="0.1" stroke-width="0.9"/><path d="M-10.5 265.5h686.6" fill="none" stroke="#555e76" stroke-opacity="0.1" stroke-width="0.6"/><path d="M-93.5 503.4h698.3" fill="none" stroke="#fff" stroke-opacity="0.1" stroke-width="0.4"/><path d="M-40.2 102.4h778.1" fill="none" stroke="#fff" stroke-opacity="0.0" stroke-width="0.3"/><path d="M-94.9 223.8h887.1" fill="none" stroke="#fff" stroke-opacity="0.1" stroke-width="0.4"/><path d="M-64.7 493.9h657.0" fill="none" stroke="#fff" stroke-opacity="0.1" stroke-width="0.7"/><path d="M-64.4 91.3h750.0" fill="none" stroke="#fff" stroke-opacity="0.1" stroke-width="0.8"/><path d="M-75.7 440.0h740.2" fill="none" stroke="#fff" stroke-opacity="0.0" stroke-width="0.6"/><path d="M-17.0 193.8h703.0" fill="none" stroke="#555e76" stroke-opacity="0.0" stroke-width="0.4"/><path d="M-95.4 327.4h829.3" fill="none" stroke="#fff" stroke-opacity="0.0" stroke-width="0.8"/><path d="M-46.7 370.2h575.0" fill="none" stroke="#555e76" stroke-opacity="0.1" stroke-width="0.8"/><path d="M-34.0 274.7h553.8" fill="none" stroke="#fff" stroke-opacity="0.1" stroke-width="0.6"/><path d="M-83.7 137.1h793.6" fill="none" stroke="#555e76" stroke-opacity="0.1" stroke-width="0.4"/><path d="M-69.2 521.4h543.1" fill="none" stroke="#fff" stroke-opacity="0.0" stroke-width="0.4"/><path d="M-13.4 316.2h547.4" fill="none" stroke="#fff" stroke-opacity="0.1" stroke-width="0.8"/><path d="M-46.3 214.7h645.3" fill="none" stroke="#fff" stroke-opacity="0.1" stroke-width="1.0"/><path d="M-47.2 93.1h691.6" fill="none" stroke="#fff" stroke-opacity="0.1" stroke-width="0.8"/><path d="M-78.0 96.5h812.1" fill="none" stroke="#555e76" stroke-opacity="0.0" stroke-width="0.8"/><path d="M-7.6 184.0h866.7" fill="none" stroke="#fff" stroke-opacity="0.1" stroke-width="0.5"/><path d="M-94.7 344.4h769.0" fill="none" stroke="#555e76" stroke-opacity="0.1" stroke-width="0.6"/><path d="M-67.9 139.1h799.5" fill="none" stroke="#fff" stroke-opacity="0.1" stroke-width="0.6"/><path d="M-70.4 569.5h688.4" fill="none" stroke="#fff" stroke-opacity="0.1" stroke-width="0.9"/><path d="M-60.3 160.5h653.4" fill="none" stroke="#fff" stroke-opacity="0.1" stroke-width="0.7"/><path d="M-28.5 124.2h785.0" fill="none" stroke="#555e76" stroke-opacity="0.1" stroke-width="0.9"/><path d="M-41.0 562.9h598.8" fill="none" stroke="#555e76" stroke-opacity="0.0" stroke-width="0.8"/><path d="M-1.7 22.8h652.8" fill="none" stroke="#555e76" stroke-opacity="0.1" stroke-width="0.4"/><path d="M-76.8 555.5h670.7" fill="none" stroke="#555e76" stroke-opacity="0.1" stroke-width="1.0"/><path d="M-98.6 128.7h861.1" fill="none" stroke="#fff" stroke-opacity="0.0" stroke-width="0.4"/><path d="M-92.0 572.4h883.4" fill="none" stroke="#fff" stroke-opacity="0.1" stroke-width="0.9"/><path d="M-3.4 410.9h629.5" fill="none" stroke="#fff" stroke-opacity="0.1" stroke-width="0.6"/><path d="M-90.6 530.6h870.2" fill="none" stroke="#555e76" stroke-opacity="0.1" stroke-width="0.9"/><path d="M-10.5 222.4h700.2" fill="none" stroke="#fff" stroke-opacity="0.1" stroke-width="0.4"/><path d="M-40.9 343.0h817.8" fill="none" stroke="#555e76" stroke-opacity="0.0" stroke-width="0.9"/><path d="M-70.2 505.0h625.9" fill="none" stroke="#fff" stroke-opacity="0.1" stroke-width="0.4"/><path d="M-88.3 164.9h763.0" fill="none" stroke="#555e76" stroke-opacity="0.1" stroke-width="0.6"/><path d="M-96.8 172.1h592.9" fill="none" stroke="#fff" stroke-opacity="0.0" stroke-width="0.8"/><path d="M-35.2 402.2h621.4" fill="none" stroke="#fff" stroke-opacity="0.1" stroke-width="0.8"/><path d="M-66.9 273.9h797.5" fill="none" stroke="#555e76" stroke-opacity="0.1" stroke-width="0.7"/><path d="M-0.8 458.7h616.1" fill="none" stroke="#555e76" stroke-opacity="0.1" stroke-width="0.3"/><path d="M-7.8 297.2h694.6" fill="none" stroke="#fff" stroke-opacity="0.1" stroke-width="0.6"/><path d="M-51.7 151.9h676.3" fill="none" stroke="#555e76" stroke-opacity="0.1" stroke-width="0.3"/><path d="M-53.7 503.7h537.6" fill="none" stroke="#555e76" stroke-opacity="0.1" stroke-width="0.7"/><path d="M-65.4 74.2h673.0" fill="none" stroke="#fff" stroke-opacity="0.1" stroke-width="0.7"/><path d="M-21.0 358.4h527.7" fill="none" stroke="#555e76" stroke-opacity="0.1" stroke-width="0.7"/><path d="M-67.3 328.3h661.6" fill="none" stroke="#555e76" stroke-opacity="0.0" stroke-width="0.6"/><path d="M-29.5 54.2h592.3" fill="none" stroke="#fff" stroke-opacity="0.1" stroke-width="0.9"/><path d="M-55.0 214.6h800.3" fill="none" stroke="#fff" stroke-opacity="0.1" stroke-width="0.4"/><path d="M-69.9 282.1h709.6" fill="none" stroke="#555e76" stroke-opacity="0.1" stroke-width="1.0"/><path d="M-97.8 399.2h711.7" fill="none" stroke="#fff" stroke-opacity="0.1" stroke-width="0.9"/><path d="M-95.6 353.2h600.5" fill="none" stroke="#555e76" stroke-opacity="0.1" stroke-width="0.5"/><path d="M-77.1 239.7h558.5" fill="none" stroke="#555e76" stroke-opacity="0.1" stroke-width="1.0"/><path d="M-90.2 323.9h504.2" fill="none" stroke="#555e76" stroke-opacity="0.1" stroke-width="1.0"/><path d="M-5.8 498.3h599.8" fill="none" stroke="#555e76" stroke-opacity="0.1" stroke-width="0.8"/><path d="M-35.9 328.0h858.3" fill="none" stroke="#555e76" stroke-opacity="0.1" stroke-width="0.3"/><path d="M-40.9 219.2h898.2" fill="none" stroke="#555e76" stroke-opacity="0.1" stroke-width="1.0"/><path d="M-86.4 68.9h799.9" fill="none" stroke="#fff" stroke-opacity="0.1" stroke-width="0.8"/><path d="M-78.3 98.2h546.5" fill="none" stroke="#fff" stroke-opacity="0.1" stroke-width="0.3"/><path d="M-18.4 374.6h709.1" fill="none" stroke="#fff" stroke-opacity="0.1" stroke-width="0.4"/><path d="M-94.0 224.4h681.1" fill="none" stroke="#555e76" stroke-opacity="0.1" stroke-width="0.6"/><path d="M-16.2 469.4h511.4" fill="none" stroke="#555e76" stroke-opacity="0.1" stroke-width="0.8"/><path d="M-71.2 19.6h853.5" fill="none" stroke="#fff" stroke-opacity="0.1" stroke-width="0.3"/><path d="M-13.1 364.3h758.6" fill="none" stroke="#fff" stroke-opacity="0.1" stroke-width="0.8"/><path d="M-26.4 556.1h826.1" fill="none" stroke="#fff" stroke-opacity="0.1" stroke-width="0.7"/><path d="M-93.4 520.4h807.6" fill="none" stroke="#fff" stroke-opacity="0.1" stroke-width="1.0"/><path d="M-24.3 578.7h762.5" fill="none" stroke="#555e76" stroke-opacity="0.1" stroke-width="0.8"/><path d="M-30.2 87.8h514.5" fill="none" stroke="#fff" stroke-opacity="0.1" stroke-width="1.0"/><path d="M-45.0 510.9h880.7" fill="none" stroke="#555e76" stroke-opacity="0.1" stroke-width="0.9"/><path d="M-10.6 572.8h763.7" fill="none" stroke="#fff" stroke-opacity="0.1" stroke-width="0.9"/><path d="M-43.8 72.0h538.0" fill="none" stroke="#fff" stroke-opacity="0.1" stroke-width="0.4"/><path d="M-76.4 337.2h651.0" fill="none" stroke="#fff" stroke-opacity="0.1" stroke-width="1.0"/><path d="M-15.4 484.6h816.4" fill="none" stroke="#fff" stroke-opacity="0.1" stroke-width="0.7"/><path d="M-79.6 283.0h838.2" fill="none" stroke="#fff" stroke-opacity="0.1" stroke-width="0.6"/><rect width="800" height="600" fill="url(#light)"/></svg>
