<svg xmlns="http://www.w3.org/2000/svg" width="800" height="600" viewBox="0 0 800 600"><defs><linearGradient id="base" x2="1" y2="1"><stop stop-color="#627681"/><stop offset="1" stop-color="#344b59"/></linearGradient><linearGradient id="light" x2=".7" y2="1"><stop stop-color="#fff" stop-opacity=".16"/><stop offset=".5" stop-color="#fff" stop-opacity="0"/><stop offset="1" stop-color="#000" stop-opacity=".07"/></linearGradient><linearGradient id="metal" x1="0" y1="0" x2="1" y2=".55"><stop stop-color="#344b59"/><stop offset=".35" stop-color="#627681"/><stop offset=".57" stop-color="#627681"/><stop offset="1" stop-color="#344b59"/></linearGradient></defs><rect width="800" height="600" fill="url(#metal)"/><path d="M-56.8 587.8h660.4" fill="none" stroke="#344b59" stroke-opacity="0.1" stroke-width="0.7"/><path d="M-81.1 384.0h581.9" fill="none" stroke="#344b59" stroke-opacity="0.0" stroke-width="0.4"/><path d="M-66.7 585.3h632.3" fill="none" stroke="#fff" stroke-opacity="0.1" stroke-width="0.9"/><path d="M-88.2 512.5h802.7" fill="none" stroke="#fff" stroke-opacity="0.0" stroke-width="0.5"/><path d="M-99.3 107.8h782.7" fill="none" stroke="#344b59" stroke-opacity="0.1" stroke-width="0.7"/><path d="M-49.3 569.6h519.3" fill="none" stroke="#fff" stroke-opacity="0.1" stroke-width="0.7"/><path d="M-81.9 587.4h718.6" fill="none" stroke="#344b59" stroke-opacity="0.1" stroke-width="0.8"/><path d="M-30.3 469.0h580.3" fill="none" stroke="#fff" stroke-opacity="0.1" stroke-width="0.9"/><path d="M-24.4 210.2h734.6" fill="none" stroke="#344b59" stroke-opacity="0.1" stroke-width="0.7"/><path d="M-66.8 85.8h527.3" fill="none" stroke="#fff" stroke-opacity="0.1" stroke-width="1.0"/><path d="M-16.4 418.6h775.8" fill="none" stroke="#fff" stroke-opacity="0.1" stroke-width="0.7"/><path d="M-81.0 499.2h834.1" fill="none" stroke="#344b59" stroke-opacity="0.0" stroke-width="0.9"/><path d="M-59.8 373.5h578.4" fill="none" stroke="#fff" stroke-opacity="0.1" stroke-width="0.8"/><path d="M-34.4 72.6h683.9" fill="none" stroke="#fff" stroke-opacity="0.0" stroke-width="0.9"/><path d="M-80.7 218.3h630.2" fill="none" stroke="#344b59" stroke-opacity="0.1" stroke-width="1.0"/><path d="M-98.8 286.4h575.0" fill="none" stroke="#344b59" stroke-opacity="0.0" stroke-width="0.7"/><path d="M-43.2 534.7h896.3" fill="none" stroke="#344b59" stroke-opacity="0.1" stroke-width="0.8"/><path d="M-4.2 389.9h751.5" fill="none" stroke="#fff" stroke-opacity="0.1" stroke-width="0.4"/><path d="M-58.2 531.6h752.5" fill="none" stroke="#fff" stroke-opacity="0.1" stroke-width="0.7"/><path d="M-95.9 286.7h551.0" fill="none" stroke="#344b59" stroke-opacity="0.1" stroke-width="0.8"/><path d="M-59.2 56.6h870.9" fill="none" stroke="#344b59" stroke-opacity="0.1" stroke-width="0.8"/><path d="M-8.3 20.0h663.7" fill="none" stroke="#fff" stroke-opacity="0.0" stroke-width="0.5"/><path d="M-89.3 471.7h700.9" fill="none" stroke="#344b59" stroke-opacity="0.1" stroke-width="1.0"/><path d="M-39.3 574.4h796.7" fill="none" stroke="#344b59" stroke-opacity="0.0" stroke-width="0.4"/><path d="M-20.1 183.3h890.3" fill="none" stroke="#344b59" stroke-opacity="0.0" stroke-width="0.8"/><path d="M-81.7 56.7h537.1" fill="none" stroke="#344b59" stroke-opacity="0.0" stroke-width="0.7"/><path d="M-98.4 567.8h888.8" fill="none" stroke="#fff" stroke-opacity="0.1" stroke-width="0.8"/><path d="M-45.7 475.7h507.4" fill="none" stroke="#344b59" stroke-opacity="0.1" stroke-width="0.7"/><path d="M-89.8 382.2h879.2" fill="none" stroke="#344b59" stroke-opacity="0.0" stroke-width="0.5"/><path d="M-79.2 282.3h607.8" fill="none" stroke="#344b59" stroke-opacity="0.1" stroke-width="0.8"/><path d="M-65.6 101.9h878.3" fill="none" stroke="#fff" stroke-opacity="0.1" stroke-width="0.8"/><path d="M-69.8 189.0h638.2" fill="none" stroke="#fff" stroke-opacity="0.1" stroke-width="0.7"/><path d="M-52.6 574.6h753.8" fill="none" stroke="#344b59" stroke-opacity="0.0" stroke-width="0.6"/><path d="M-85.3 132.2h693.6" fill="none" stroke="#344b59" stroke-opacity="0.0" stroke-width="0.5"/><path d="M-41.5 332.7h597.6" fill="none" stroke="#fff" stroke-opacity="0.1" stroke-width="0.3"/><path d="M-86.4 193.5h828.4" fill="none" stroke="#344b59" stroke-opacity="0.1" stroke-width="0.8"/><path d="M-24.6 253.1h602.6" fill="none" stroke="#344b59" stroke-opacity="0.1" stroke-width="1.0"/><path d="M-18.6 446.7h780.1" fill="none" stroke="#fff" stroke-opacity="0.1" stroke-width="0.4"/><path d="M-6.3 406.6h884.2" fill="none" stroke="#fff" stroke-opacity="0.0" stroke-width="0.8"/><path d="M-66.7 244.3h650.4" fill="none" stroke="#fff" stroke-opacity="0.1" stroke-width="0.3"/><path d="M-9.7 486.5h591.7" fill="none" stroke="#fff" stroke-opacity="0.0" stroke-width="1.0"/><path d="M-29.6 10.6h732.8" fill="none" stroke="#344b59" stroke-opacity="0.1" stroke-width="0.5"/><path d="M-71.9 356.9h552.9" fill="none" stroke="#344b59" stroke-opacity="0.1" stroke-width="1.0"/><path d="M-47.9 356.2h784.5" fill="none" stroke="#344b59" stroke-opacity="0.1" stroke-width="0.6"/><path d="M-99.1 412.6h595.4" fill="none" stroke="#344b59" stroke-opacity="0.1" stroke-width="0.8"/><path d="M-92.4 80.1h733.7" fill="none" stroke="#344b59" stroke-opacity="0.1" stroke-width="0.5"/><path d="M-28.4 389.7h788.8" fill="none" stroke="#344b59" stroke-opacity="0.0" stroke-width="0.7"/><path d="M-96.4 174.2h517.5" fill="none" stroke="#fff" stroke-opacity="0.1" stroke-width="0.5"/><path d="M-13.9 218.3h751.5" fill="none" stroke="#344b59" stroke-opacity="0.1" stroke-width="0.7"/><path d="M-89.6 97.1h843.1" fill="none" stroke="#fff" stroke-opacity="0.1" stroke-width="0.6"/><path d="M-34.4 58.1h865.1" fill="none" stroke="#344b59" stroke-opacity="0.1" stroke-width="0.7"/><path d="M-65.5 331.4h767.2" fill="none" stroke="#344b59" stroke-opacity="0.1" stroke-width="0.5"/><path d="M-92.6 407.0h541.9" fill="none" stroke="#fff" stroke-opacity="0.1" stroke-width="0.9"/><path d="M-92.0 191.3h886.2" fill="none" stroke="#fff" stroke-opacity="0.1" stroke-width="0.8"/><path d="M-50.4 323.4h786.4" fill="none" stroke="#344b59" stroke-opacity="0.1" stroke-width="0.9"/><path d="M-46.0 395.2h631.7" fill="none" stroke="#344b59" stroke-opacity="0.1" stroke-width="0.4"/><path d="M-21.5 353.8h798.1" fill="none" stroke="#fff" stroke-opacity="0.1" stroke-width="0.6"/><path d="M-31.2 269.7h664.9" fill="none" stroke="#344b59" stroke-opacity="0.0" stroke-width="0.8"/><path d="M-16.4 104.0h856.2" fill="none" stroke="#fff" stroke-opacity="0.1" stroke-width="0.6"/><path d="M-11.2 0.2h663.5" fill="none" stroke="#fff" stroke-opacity="0.1" stroke-width="0.5"/><path d="M-9.2 348.0h631.6" fill="none" stroke="#344b59" stroke-opacity="0.1" stroke-width="0.7"/><path d="M-66.0 493.6h894.7" fill="none" stroke="#344b59" stroke-opacity="0.1" stroke-width="0.8"/><path d="M-73.3 511.4h570.1" fill="none" stroke="#344b59" stroke-opacity="0.1" stroke-width="0.9"/><path d="M-55.0 169.1h868.7" fill="none" stroke="#344b59" stroke-opacity="0.1" stroke-width="1.0"/><path d="M-4.6 523.2h889.3" fill="none" stroke="#344b59" stroke-opacity="0.1" stroke-width="1.0"/><path d="M-43.2 142.7h865.8" fill="none" stroke="#fff" stroke-opacity="0.1" stroke-width="0.6"/><path d="M-28.2 574.4h834.1" fill="none" stroke="#344b59" stroke-opacity="0.1" stroke-width="0.5"/><path d="M-24.7 20.5h631.1" fill="none" stroke="#fff" stroke-opacity="0.1" stroke-width="0.9"/><path d="M-59.1 275.1h534.1" fill="none" stroke="#fff" stroke-opacity="0.1" stroke-width="0.7"/><path d="M-51.1 267.4h830.6" fill="none" stroke="#fff" stroke-opacity="0.1" stroke-width="1.0"/><path d="M-62.4 50.5h706.8" fill="none" stroke="#344b59" stroke-opacity="0.1" stroke-width="0.8"/><path d="M-46.4 265.2h562.0" fill="none" stroke="#344b59" stroke-opacity="0.0" stroke-width="0.5"/><path d="M-32.0 566.2h750.2" fill="none" stroke="#344b59" stroke-opacity="0.1" stroke-width="0.9"/><path d="M-68.0 528.1h715.0" fill="none" stroke="#fff" stroke-opacity="0.1" stroke-width="0.5"/><path d="M-84.9 324.1h668.2" fill="none" stroke="#fff" stroke-opacity="0.0" stroke-width="0.8"/><path d="M-45.1 288.8h673.6" fill="none" stroke="#344b59" stroke-opacity="0.1" stroke-width="0.6"/><path d="M-40.1 118.5h773.8" fill="none" stroke="#fff" stroke-opacity="0.1" stroke-width="0.9"/><path d="M-3.3 422.4h755.1" fill="none" stroke="#fff" stroke-opacity="0.1" stroke-width="0.5"/><path d="M-28.0 393.7h812.2" fill="none" stroke="#344b59" stroke-opacity="0.1" stroke-width="1.0"/><path d="M-57.9 222.9h878.8" fill="none" stroke="#344b59" stroke-opacity="0.0" stroke-width="0.4"/><path d="M-50.6 493.9h648.5" fill="none" stroke="#344b59" stroke-opacity="0.0" stroke-width="0.9"/><path d="M-33.2 99.0h858.9" fill="none" stroke="#fff" stroke-opacity="0.0" stroke-width="0.7"/><path d="M-87.5 545.1h764.4" fill="none" stroke="#fff" stroke-opacity="0.0" stroke-width="0.9"/><path d="M-41.6 203.0h615.1" fill="none" stroke="#fff" stroke-opacity="0.0" stroke-width="0.5"/><path d="M-18.3 261.2h505.6" fill="none" stroke="#fff" stroke-opacity="0.1" stroke-width="0.6"/><path d="M-29.5 160.4h693.4" fill="none" stroke="#fff" stroke-opacity="0.1" stroke-width="0.9"/><path d="M-6.7 512.8h525.7" fill="none" stroke="#344b59" stroke-opacity="0.0" stroke-width="0.5"/><path d="M-73.2 414.4h794.0" fill="none" stroke="#fff" stroke-opacity="0.1" stroke-width="0.9"/><path d="M-66.3 451.6h769.7" fill="none" stroke="#fff" stroke-opacity="0.0" stroke-width="0.3"/><path d="M-82.6 451.7h895.9" fill="none" stroke="#fff" stroke-opacity="0.1" stroke-width="0.9"/><path d="M-3.9 529.1h639.8" fill="none" stroke="#fff" stroke-opacity="0.1" stroke-width="1.0"/><path d="M-45.1 125.0h875.3" fill="none" stroke="#344b59" stroke-opacity="0.1" stroke-width="0.8"/><path d="M-10.1 301.4h889.1" fill="none" stroke="#fff" stroke-opacity="0.1" stroke-width="0.8"/><path d="M-18.2 237.8h610.6" fill="none" stroke="#fff" stroke-opacity="0.1" stroke-width="1.0"/><path d="M-43.3 460.3h885.9" fill="none" stroke="#fff" stroke-opacity="0.1" stroke-width="0.5"/><path d="M-53.2 506.7h666.1" fill="none" stroke="#fff" stroke-opacity="0.1" stroke-width="0.4"/><path d="M-26.0 81.5h591.6" fill="none" stroke="#344b59" stroke-opacity="0.1" stroke-width="0.7"/><path d="M-7.6 368.0h551.0" fill="none" stroke="#fff" stroke-opacity="0.1" stroke-width="0.3"/><path d="M-50.5 30.3h697.6" fill="none" stroke="#344b59" stroke-opacity="0.1" stroke-width="0.5"/><path d="M-79.5 442.9h845.0" fill="none" stroke="#fff" stroke-opacity="0.1" stroke-width="0.7"/><path d="M-62.9 215.6h864.3" fill="none" stroke="#fff" stroke-opacity="0.0" stroke-width="0.9"/><path d="M-71.5 227.8h785.9" fill="none" stroke="#fff" stroke-opacity="0.1" stroke-width="0.6"/><path d="M-71.1 132.4h504.9" fill="none" stroke="#fff" stroke-opacity="0.0" stroke-width="0.9"/><path d="M-67.5 324.7h611.6" fill="none" stroke="#fff" stroke-opacity="0.1" stroke-width="0.6"/><path d="M-98.0 284.8h659.7" fill="none" stroke="#344b59" stroke-opacity="0.1" stroke-width="0.3"/><path d="M-78.4 278.3h851.6" fill="none" stroke="#344b59" stroke-opacity="0.1" stroke-width="0.3"/><path d="M-73.2 427.7h802.7" fill="none" stroke="#fff" stroke-opacity="0.1" stroke-width="0.8"/><path d="M-92.6 33.8h860.4" fill="none" stroke="#344b59" stroke-opacity="0.0" stroke-width="0.4"/><path d="M-36.3 320.5h525.9" fill="none" stroke="#fff" stroke-opacity="0.1" stroke-width="0.8"/><path d="M-35.7 583.2h588.2" fill="none" stroke="#fff" stroke-opacity="0.0" stroke-width="0.6"/><path d="M-93.9 431.5h543.7" fill="none" stroke="#344b59" stroke-opacity="0.0" stroke-width="0.5"/><path d="M-25.2 113.3h880.3" fill="none" stroke="#fff" stroke-opacity="0.1" stroke-width="0.3"/><path d="M-53.7 184.3h762.2" fill="none" stroke="#fff" stroke-opacity="0.1" stroke-width="0.3"/><path d="M-75.4 123.4h501.7" fill="none" stroke="#344b59" stroke-opacity="0.1" stroke-width="0.7"/><path d="M-28.8 487.3h856.2" fill="none" stroke="#fff" stroke-opacity="0.1" stroke-width="0.4"/><path d="M-87.8 126.1h578.5" fill="none" stroke="#fff" stroke-opacity="0.0" stroke-width="0.5"/><path d="M-83.8 35.8h899.1" fill="none" stroke="#fff" stroke-opacity="0.1" stroke-width="1.0"/><path d="M-32.8 498.7h850.6" fill="none" stroke="#fff" stroke-opacity="0.1" stroke-width="0.4"/><path d="M-66.7 228.2h887.2" fill="none" stroke="#344b59" stroke-opacity="0.0" stroke-width="0.7"/><path d="M-6.4 200.1h630.1" fill="none" stroke="#fff" stroke-opacity="0.1" stroke-width="0.5"/><path d="M-48.8 87.3h504.6" fill="none" stroke="#fff" stroke-opacity="0.1" stroke-width="0.3"/><path d="M-20.0 217.6h657.5" fill="none" stroke="#fff" stroke-opacity="0.1" stroke-width="0.4"/><path d="M-66.2 525.4h570.4" fill="none" stroke="#344b59" stroke-opacity="0.1" stroke-width="0.3"/><path d="M-55.0 362.0h551.9" fill="none" stroke="#344b59" stroke-opacity="0.1" stroke-width="0.4"/><path d="M-33.8 246.6h513.9" fill="none" stroke="#344b59" stroke-opacity="0.1" stroke-width="0.6"/><path d="M-91.7 573.7h645.9" fill="none" stroke="#fff" stroke-opacity="0.1" stroke-width="0.6"/><path d="M-77.5 524.6h719.1" fill="none" stroke="#fff" stroke-opacity="0.1" stroke-width="0.5"/><path d="M-93.8 57.6h702.1" fill="none" stroke="#344b59" stroke-opacity="0.0" stroke-width="0.9"/><path d="M-4.7 247.4h685.2" fill="none" stroke="#344b59" stroke-opacity="0.1" stroke-width="0.3"/><path d="M-6.4 310.8h502.0" fill="none" stroke="#344b59" stroke-opacity="0.1" stroke-width="0.5"/><path d="M-7.5 570.1h844.1" fill="none" stroke="#fff" stroke-opacity="0.1" stroke-width="0.8"/><path d="M-1.9 260.2h604.0" fill="none" stroke="#fff" stroke-opacity="0.1" stroke-width="0.7"/><path d="M-70.7 266.0h780.4" fill="none" stroke="#fff" stroke-opacity="0.1" stroke-width="0.7"/><path d="M-79.6 74.3h861.3" fill="none" stroke="#344b59" stroke-opacity="0.1" stroke-width="0.6"/><path d="M-28.2 216.0h696.9" fill="none" stroke="#fff" stroke-opacity="0.0" stroke-width="0.7"/><path d="M-3.1 366.1h795.7" fill="none" stroke="#fff" stroke-opacity="0.1" stroke-width="0.8"/><path d="M-89.3 227.6h669.9" fill="none" stroke="#fff" stroke-opacity="0.0" stroke-width="1.0"/><path d="M-32.5 451.2h820.3" fill="none" stroke="#fff" stroke-opacity="0.1" stroke-width="0.4"/><path d="M-29.5 324.7h737.3" fill="none" stroke="#fff" stroke-opacity="0.0" stroke-width="0.7"/><path d="M-85.5 78.2h604.0" fill="none" stroke="#fff" stroke-opacity="0.1" stroke-width="0.8"/><path d="M-16.3 197.5h563.8" fill="none" stroke="#fff" stroke-opacity="0.0" stroke-width="0.4"/><path d="M-33.0 196.4h573.3" fill="none" stroke="#344b59" stroke-opacity="0.1" stroke-width="0.6"/><path d="M-15.7 253.8h726.8" fill="none" stroke="#344b59" stroke-opacity="0.1" stroke-width="1.0"/><path d="M-15.1 276.1h643.6" fill="none" stroke="#fff" stroke-opacity="0.1" stroke-width="0.6"/><path d="M-98.7 62.5h567.0" fill="none" stroke="#fff" stroke-opacity="0.1" stroke-width="1.0"/><path d="M-31.4 47.7h774.2" fill="none" stroke="#fff" stroke-opacity="0.1" stroke-width="0.4"/><path d="M-44.9 329.6h846.4" fill="none" stroke="#fff" stroke-opacity="0.0" stroke-width="0.7"/><path d="M-43.0 474.8h841.5" fill="none" stroke="#344b59" stroke-opacity="0.1" stroke-width="0.7"/><path d="M-11.4 297.5h759.5" fill="none" stroke="#344b59" stroke-opacity="0.1" stroke-width="0.5"/><path d="M-89.3 127.5h623.0" fill="none" stroke="#fff" stroke-opacity="0.1" stroke-width="0.7"/><path d="M-13.5 8.2h539.2" fill="none" stroke="#344b59" stroke-opacity="0.1" stroke-width="0.3"/><path d="M-6.4 70.4h786.3" fill="none" stroke="#344b59" stroke-opacity="0.1" stroke-width="0.8"/><path d="M-38.2 221.0h602.4" fill="none" stroke="#344b59" stroke-opacity="0.1" stroke-width="0.6"/><path d="M-2.4 532.5h677.7" fill="none" stroke="#fff" stroke-opacity="0.1" stroke-width="0.6"/><path d="M-83.4 125.0h679.1" fill="none" stroke="#fff" stroke-opacity="0.1" stroke-width="0.7"/><path d="M-23.3 373.0h802.2" fill="none" stroke="#344b59" stroke-opacity="0.1" stroke-width="0.5"/><path d="M-96.2 337.8h867.9" fill="none" stroke="#fff" stroke-opacity="0.1" stroke-width="0.8"/><path d="M-17.5 310.1h790.9" fill="none" stroke="#344b59" stroke-opacity="0.0" stroke-width="0.6"/><path d="M-53.1 230.2h663.0" fill="none" stroke="#344b59" stroke-opacity="0.1" stroke-width="0.7"/><path d="M-81.0 227.3h548.0" fill="none" stroke="#344b59" stroke-opacity="0.1" stroke-width="0.9"/><path d="M-3.7 368.6h894.8" fill="none" stroke="#fff" stroke-opacity="0.1" stroke-width="0.4"/><path d="M-42.3 223.5h771.6" fill="none" stroke="#344b59" stroke-opacity="0.1" stroke-width="0.3"/><path d="M-73.0 13.5h829.4" fill="none" stroke="#344b59" stroke-opacity="0.0" stroke-width="0.8"/><path d="M-18.3 221.6h742.1" fill="none" stroke="#344b59" stroke-opacity="0.0" stroke-width="0.3"/><path d="M-92.3 168.1h769.4" fill="none" stroke="#344b59" stroke-opacity="0.1" stroke-width="0.8"/><path d="M-50.0 303.2h572.0" fill="none" stroke="#344b59" stroke-opacity="0.1" stroke-width="0.7"/><path d="M-4.4 14.5h601.0" fill="none" stroke="#344b59" stroke-opacity="0.0" stroke-width="0.5"/><path d="M-1.3 482.5h810.8" fill="none" stroke="#fff" stroke-opacity="0.1" stroke-width="0.6"/><path d="M-62.8 529.9h830.3" fill="none" stroke="#fff" stroke-opacity="0.0" stroke-width="0.8"/><path d="M-76.8 586.8h798.8" fill="none" stroke="#fff" stroke-opacity="0.0" stroke-width="0.5"/><path d="M-21.4 422.4h752.7" fill="none" stroke="#344b59" stroke-opacity="0.1" stroke-width="0.7"/><path d="M-93.7 458.8h863.2" fill="none" stroke="#344b59" stroke-opacity="0.1" stroke-width="0.5"/><path d="M-83.9 278.8h899.5" fill="none" stroke="#fff" stroke-opacity="0.1" stroke-width="1.0"/><path d="M-13.7 245.7h750.6" fill="none" stroke="#344b59" stroke-opacity="0.1" stroke-width="0.7"/><path d="M-57.9 361.8h604.9" fill="none" stroke="#fff" stroke-opacity="0.1" stroke-width="0.7"/><path d="M-19.5 91.8h790.1" fill="none" stroke="#fff" stroke-opacity="0.1" stroke-width="0.7"/><path d="M-36.1 451.2h837.6" fill="none" stroke="#344b59" stroke-opacity="0.1" stroke-width="0.7"/><path d="M-91.7 499.4h779.1" fill="none" stroke="#fff" stroke-opacity="0.1" stroke-width="1.0"/><path d="M-97.1 66.5h540.8" fill="none" stroke="#344b59" stroke-opacity="0.1" stroke-width="1.0"/><path d="M-20.9 573.8h888.1" fill="none" stroke="#344b59" stroke-opacity="0.1" stroke-width="0.4"/><path d="M-98.4 562.8h824.0" fill="none" stroke="#344b59" stroke-opacity="0.1" stroke-width="0.8"/><path d="M-61.1 518.1h575.8" fill="none" stroke="#344b59" stroke-opacity="0.1" stroke-width="0.4"/><path d="M-5.6 541.3h650.1" fill="none" stroke="#fff" stroke-opacity="0.1" stroke-width="0.6"/><path d="M-8.7 493.7h809.3" fill="none" stroke="#fff" stroke-opacity="0.1" stroke-width="0.8"/><path d="M-78.7 163.2h562.8" fill="none" stroke="#344b59" stroke-opacity="0.1" stroke-width="0.4"/><rect width="800" height="600" fill="url(#light)"/></svg>
